<?xml version="1.0" encoding="utf-8" standalone="no"?>
<!DOCTYPE svg PUBLIC "-//W3C//DTD SVG 1.1//EN"
  "http://www.w3.org/Graphics/SVG/1.1/DTD/svg11.dtd">
<!-- Created with matplotlib (http://matplotlib.org/) -->
<svg height="360pt" version="1.1" viewBox="0 0 540 360" width="540pt" xmlns="http://www.w3.org/2000/svg" xmlns:xlink="http://www.w3.org/1999/xlink">
 <defs>
  <style type="text/css">
*{stroke-linecap:butt;stroke-linejoin:round;stroke-miterlimit:100000;}
  </style>
 </defs>
 <g id="figure_1">
  <g id="patch_1">
   <path d="M 0 360 
L 540 360 
L 540 0 
L 0 0 
z
" style="fill:#ffffff;"/>
  </g>
  <g id="axes_1">
   <g id="patch_2">
    <path d="M 46.846875 318.2 
L 517.95 318.2 
L 517.95 23.8 
L 46.846875 23.8 
z
" style="fill:#eaeaf2;"/>
   </g>
   <g id="matplotlib.axis_1">
    <g id="xtick_1">
     <g id="line2d_1">
      <path clip-path="url(#pe97b893399)" d="M 46.846875 318.2 
L 46.846875 23.8 
" style="fill:none;stroke:#ffffff;stroke-linecap:round;"/>
     </g>
     <g id="line2d_2"/>
     <g id="text_1">
      <!-- −1000 -->
      <defs>
       <path d="M 4.15625 35.296875 
Q 4.15625 48 6.765625 55.734375 
Q 9.375 63.484375 14.515625 67.671875 
Q 19.671875 71.875 27.484375 71.875 
Q 33.25 71.875 37.59375 69.546875 
Q 41.9375 67.234375 44.765625 62.859375 
Q 47.609375 58.5 49.21875 52.21875 
Q 50.828125 45.953125 50.828125 35.296875 
Q 50.828125 22.703125 48.234375 14.96875 
Q 45.65625 7.234375 40.5 3 
Q 35.359375 -1.21875 27.484375 -1.21875 
Q 17.140625 -1.21875 11.234375 6.203125 
Q 4.15625 15.140625 4.15625 35.296875 
M 13.1875 35.296875 
Q 13.1875 17.671875 17.3125 11.828125 
Q 21.4375 6 27.484375 6 
Q 33.546875 6 37.671875 11.859375 
Q 41.796875 17.71875 41.796875 35.296875 
Q 41.796875 52.984375 37.671875 58.78125 
Q 33.546875 64.59375 27.390625 64.59375 
Q 21.34375 64.59375 17.71875 59.46875 
Q 13.1875 52.9375 13.1875 35.296875 
" id="ArialMT-30"/>
       <path d="M 37.25 0 
L 28.46875 0 
L 28.46875 56 
Q 25.296875 52.984375 20.140625 49.953125 
Q 14.984375 46.921875 10.890625 45.40625 
L 10.890625 53.90625 
Q 18.265625 57.375 23.78125 62.296875 
Q 29.296875 67.234375 31.59375 71.875 
L 37.25 71.875 
z
" id="ArialMT-31"/>
       <path d="M 52.828125 31.203125 
L 5.5625 31.203125 
L 5.5625 39.40625 
L 52.828125 39.40625 
z
" id="ArialMT-2212"/>
      </defs>
      <g style="fill:#262626;" transform="translate(32.8046875 332.3578125)scale(0.1 -0.1)">
       <use xlink:href="#ArialMT-2212"/>
       <use x="58.3984375" xlink:href="#ArialMT-31"/>
       <use x="114.013671875" xlink:href="#ArialMT-30"/>
       <use x="169.62890625" xlink:href="#ArialMT-30"/>
       <use x="225.244140625" xlink:href="#ArialMT-30"/>
      </g>
     </g>
    </g>
    <g id="xtick_2">
     <g id="line2d_3">
      <path clip-path="url(#pe97b893399)" d="M 125.364062 318.2 
L 125.364062 23.8 
" style="fill:none;stroke:#ffffff;stroke-linecap:round;"/>
     </g>
     <g id="line2d_4"/>
     <g id="text_2">
      <!-- 0 -->
      <g style="fill:#262626;" transform="translate(122.58359375 332.3578125)scale(0.1 -0.1)">
       <use xlink:href="#ArialMT-30"/>
      </g>
     </g>
    </g>
    <g id="xtick_3">
     <g id="line2d_5">
      <path clip-path="url(#pe97b893399)" d="M 203.88125 318.2 
L 203.88125 23.8 
" style="fill:none;stroke:#ffffff;stroke-linecap:round;"/>
     </g>
     <g id="line2d_6"/>
     <g id="text_3">
      <!-- 1000 -->
      <g style="fill:#262626;" transform="translate(192.759375 332.3578125)scale(0.1 -0.1)">
       <use xlink:href="#ArialMT-31"/>
       <use x="55.615234375" xlink:href="#ArialMT-30"/>
       <use x="111.23046875" xlink:href="#ArialMT-30"/>
       <use x="166.845703125" xlink:href="#ArialMT-30"/>
      </g>
     </g>
    </g>
    <g id="xtick_4">
     <g id="line2d_7">
      <path clip-path="url(#pe97b893399)" d="M 282.398438 318.2 
L 282.398438 23.8 
" style="fill:none;stroke:#ffffff;stroke-linecap:round;"/>
     </g>
     <g id="line2d_8"/>
     <g id="text_4">
      <!-- 2000 -->
      <defs>
       <path d="M 50.34375 8.453125 
L 50.34375 0 
L 3.03125 0 
Q 2.9375 3.171875 4.046875 6.109375 
Q 5.859375 10.9375 9.828125 15.625 
Q 13.8125 20.3125 21.34375 26.46875 
Q 33.015625 36.03125 37.109375 41.625 
Q 41.21875 47.21875 41.21875 52.203125 
Q 41.21875 57.421875 37.46875 61 
Q 33.734375 64.59375 27.734375 64.59375 
Q 21.390625 64.59375 17.578125 60.78125 
Q 13.765625 56.984375 13.71875 50.25 
L 4.6875 51.171875 
Q 5.609375 61.28125 11.65625 66.578125 
Q 17.71875 71.875 27.9375 71.875 
Q 38.234375 71.875 44.234375 66.15625 
Q 50.25 60.453125 50.25 52 
Q 50.25 47.703125 48.484375 43.546875 
Q 46.734375 39.40625 42.65625 34.8125 
Q 38.578125 30.21875 29.109375 22.21875 
Q 21.1875 15.578125 18.9375 13.203125 
Q 16.703125 10.84375 15.234375 8.453125 
z
" id="ArialMT-32"/>
      </defs>
      <g style="fill:#262626;" transform="translate(271.2765625 332.3578125)scale(0.1 -0.1)">
       <use xlink:href="#ArialMT-32"/>
       <use x="55.615234375" xlink:href="#ArialMT-30"/>
       <use x="111.23046875" xlink:href="#ArialMT-30"/>
       <use x="166.845703125" xlink:href="#ArialMT-30"/>
      </g>
     </g>
    </g>
    <g id="xtick_5">
     <g id="line2d_9">
      <path clip-path="url(#pe97b893399)" d="M 360.915625 318.2 
L 360.915625 23.8 
" style="fill:none;stroke:#ffffff;stroke-linecap:round;"/>
     </g>
     <g id="line2d_10"/>
     <g id="text_5">
      <!-- 3000 -->
      <defs>
       <path d="M 4.203125 18.890625 
L 12.984375 20.0625 
Q 14.5 12.59375 18.140625 9.296875 
Q 21.78125 6 27 6 
Q 33.203125 6 37.46875 10.296875 
Q 41.75 14.59375 41.75 20.953125 
Q 41.75 27 37.796875 30.921875 
Q 33.84375 34.859375 27.734375 34.859375 
Q 25.25 34.859375 21.53125 33.890625 
L 22.515625 41.609375 
Q 23.390625 41.5 23.921875 41.5 
Q 29.546875 41.5 34.03125 44.421875 
Q 38.53125 47.359375 38.53125 53.46875 
Q 38.53125 58.296875 35.25 61.46875 
Q 31.984375 64.65625 26.8125 64.65625 
Q 21.6875 64.65625 18.265625 61.421875 
Q 14.84375 58.203125 13.875 51.765625 
L 5.078125 53.328125 
Q 6.6875 62.15625 12.390625 67.015625 
Q 18.109375 71.875 26.609375 71.875 
Q 32.46875 71.875 37.390625 69.359375 
Q 42.328125 66.84375 44.9375 62.5 
Q 47.5625 58.15625 47.5625 53.265625 
Q 47.5625 48.640625 45.0625 44.828125 
Q 42.578125 41.015625 37.703125 38.765625 
Q 44.046875 37.3125 47.5625 32.6875 
Q 51.078125 28.078125 51.078125 21.140625 
Q 51.078125 11.765625 44.234375 5.25 
Q 37.40625 -1.265625 26.953125 -1.265625 
Q 17.53125 -1.265625 11.296875 4.34375 
Q 5.078125 9.96875 4.203125 18.890625 
" id="ArialMT-33"/>
      </defs>
      <g style="fill:#262626;" transform="translate(349.79375 332.3578125)scale(0.1 -0.1)">
       <use xlink:href="#ArialMT-33"/>
       <use x="55.615234375" xlink:href="#ArialMT-30"/>
       <use x="111.23046875" xlink:href="#ArialMT-30"/>
       <use x="166.845703125" xlink:href="#ArialMT-30"/>
      </g>
     </g>
    </g>
    <g id="xtick_6">
     <g id="line2d_11">
      <path clip-path="url(#pe97b893399)" d="M 439.432812 318.2 
L 439.432812 23.8 
" style="fill:none;stroke:#ffffff;stroke-linecap:round;"/>
     </g>
     <g id="line2d_12"/>
     <g id="text_6">
      <!-- 4000 -->
      <defs>
       <path d="M 32.328125 0 
L 32.328125 17.140625 
L 1.265625 17.140625 
L 1.265625 25.203125 
L 33.9375 71.578125 
L 41.109375 71.578125 
L 41.109375 25.203125 
L 50.78125 25.203125 
L 50.78125 17.140625 
L 41.109375 17.140625 
L 41.109375 0 
z
M 32.328125 25.203125 
L 32.328125 57.46875 
L 9.90625 25.203125 
z
" id="ArialMT-34"/>
      </defs>
      <g style="fill:#262626;" transform="translate(428.3109375 332.3578125)scale(0.1 -0.1)">
       <use xlink:href="#ArialMT-34"/>
       <use x="55.615234375" xlink:href="#ArialMT-30"/>
       <use x="111.23046875" xlink:href="#ArialMT-30"/>
       <use x="166.845703125" xlink:href="#ArialMT-30"/>
      </g>
     </g>
    </g>
    <g id="xtick_7">
     <g id="line2d_13">
      <path clip-path="url(#pe97b893399)" d="M 517.95 318.2 
L 517.95 23.8 
" style="fill:none;stroke:#ffffff;stroke-linecap:round;"/>
     </g>
     <g id="line2d_14"/>
     <g id="text_7">
      <!-- 5000 -->
      <defs>
       <path d="M 4.15625 18.75 
L 13.375 19.53125 
Q 14.40625 12.796875 18.140625 9.390625 
Q 21.875 6 27.15625 6 
Q 33.5 6 37.890625 10.78125 
Q 42.28125 15.578125 42.28125 23.484375 
Q 42.28125 31 38.0625 35.34375 
Q 33.84375 39.703125 27 39.703125 
Q 22.75 39.703125 19.328125 37.765625 
Q 15.921875 35.84375 13.96875 32.765625 
L 5.71875 33.84375 
L 12.640625 70.609375 
L 48.25 70.609375 
L 48.25 62.203125 
L 19.671875 62.203125 
L 15.828125 42.96875 
Q 22.265625 47.46875 29.34375 47.46875 
Q 38.71875 47.46875 45.15625 40.96875 
Q 51.609375 34.46875 51.609375 24.265625 
Q 51.609375 14.546875 45.953125 7.46875 
Q 39.0625 -1.21875 27.15625 -1.21875 
Q 17.390625 -1.21875 11.203125 4.25 
Q 5.03125 9.71875 4.15625 18.75 
" id="ArialMT-35"/>
      </defs>
      <g style="fill:#262626;" transform="translate(506.828125 332.3578125)scale(0.1 -0.1)">
       <use xlink:href="#ArialMT-35"/>
       <use x="55.615234375" xlink:href="#ArialMT-30"/>
       <use x="111.23046875" xlink:href="#ArialMT-30"/>
       <use x="166.845703125" xlink:href="#ArialMT-30"/>
      </g>
     </g>
    </g>
    <g id="text_8">
     <!-- NAMEPLATE_CAPACITY(MW) -->
     <defs>
      <path d="M 9.328125 0 
L 9.328125 71.578125 
L 18.796875 71.578125 
L 18.796875 0 
z
" id="ArialMT-49"/>
      <path d="M 27.875 0 
L 27.875 30.328125 
L 0.296875 71.578125 
L 11.8125 71.578125 
L 25.921875 50 
Q 29.828125 43.953125 33.203125 37.890625 
Q 36.421875 43.5 41.015625 50.53125 
L 54.890625 71.578125 
L 65.921875 71.578125 
L 37.359375 30.328125 
L 37.359375 0 
z
" id="ArialMT-59"/>
      <path d="M -0.140625 0 
L 27.34375 71.578125 
L 37.546875 71.578125 
L 66.84375 0 
L 56.0625 0 
L 47.703125 21.6875 
L 17.78125 21.6875 
L 9.90625 0 
z
M 20.515625 29.390625 
L 44.78125 29.390625 
L 37.3125 49.21875 
Q 33.890625 58.25 32.234375 64.0625 
Q 30.859375 57.171875 28.375 50.390625 
z
" id="ArialMT-41"/>
      <path d="M -1.515625 -19.875 
L -1.515625 -13.53125 
L 56.734375 -13.53125 
L 56.734375 -19.875 
z
" id="ArialMT-5f"/>
      <path d="M 7.71875 0 
L 7.71875 71.578125 
L 34.71875 71.578125 
Q 41.84375 71.578125 45.609375 70.90625 
Q 50.875 70.015625 54.4375 67.546875 
Q 58.015625 65.09375 60.1875 60.640625 
Q 62.359375 56.203125 62.359375 50.875 
Q 62.359375 41.75 56.546875 35.421875 
Q 50.734375 29.109375 35.546875 29.109375 
L 17.1875 29.109375 
L 17.1875 0 
z
M 17.1875 37.546875 
L 35.6875 37.546875 
Q 44.875 37.546875 48.734375 40.96875 
Q 52.59375 44.390625 52.59375 50.59375 
Q 52.59375 55.078125 50.3125 58.265625 
Q 48.046875 61.46875 44.34375 62.5 
Q 41.9375 63.140625 35.5 63.140625 
L 17.1875 63.140625 
z
" id="ArialMT-50"/>
      <path d="M 7.90625 0 
L 7.90625 71.578125 
L 59.671875 71.578125 
L 59.671875 63.140625 
L 17.390625 63.140625 
L 17.390625 41.21875 
L 56.984375 41.21875 
L 56.984375 32.8125 
L 17.390625 32.8125 
L 17.390625 8.453125 
L 61.328125 8.453125 
L 61.328125 0 
z
" id="ArialMT-45"/>
      <path d="M 20.21875 0 
L 1.21875 71.578125 
L 10.9375 71.578125 
L 21.828125 24.65625 
Q 23.578125 17.28125 24.859375 10.015625 
Q 27.59375 21.484375 28.078125 23.25 
L 41.703125 71.578125 
L 53.125 71.578125 
L 63.375 35.359375 
Q 67.234375 21.875 68.953125 10.015625 
Q 70.3125 16.796875 72.515625 25.59375 
L 83.734375 71.578125 
L 93.265625 71.578125 
L 73.640625 0 
L 64.5 0 
L 49.421875 54.546875 
Q 47.515625 61.375 47.171875 62.9375 
Q 46.046875 58.015625 45.0625 54.546875 
L 29.890625 0 
z
" id="ArialMT-57"/>
      <path d="M 25.921875 0 
L 25.921875 63.140625 
L 2.34375 63.140625 
L 2.34375 71.578125 
L 59.078125 71.578125 
L 59.078125 63.140625 
L 35.40625 63.140625 
L 35.40625 0 
z
" id="ArialMT-54"/>
      <path d="M 58.796875 25.09375 
L 68.265625 22.703125 
Q 65.28125 11.03125 57.546875 4.90625 
Q 49.8125 -1.21875 38.625 -1.21875 
Q 27.046875 -1.21875 19.796875 3.484375 
Q 12.546875 8.203125 8.765625 17.140625 
Q 4.984375 26.078125 4.984375 36.328125 
Q 4.984375 47.515625 9.25 55.828125 
Q 13.53125 64.15625 21.40625 68.46875 
Q 29.296875 72.796875 38.765625 72.796875 
Q 49.515625 72.796875 56.828125 67.328125 
Q 64.15625 61.859375 67.046875 51.953125 
L 57.71875 49.75 
Q 55.21875 57.5625 50.484375 61.125 
Q 45.75 64.703125 38.578125 64.703125 
Q 30.328125 64.703125 24.78125 60.734375 
Q 19.234375 56.78125 16.984375 50.109375 
Q 14.75 43.453125 14.75 36.375 
Q 14.75 27.25 17.40625 20.4375 
Q 20.0625 13.625 25.671875 10.25 
Q 31.296875 6.890625 37.84375 6.890625 
Q 45.796875 6.890625 51.3125 11.46875 
Q 56.84375 16.0625 58.796875 25.09375 
" id="ArialMT-43"/>
      <path d="M 12.359375 -21.046875 
L 6.0625 -21.046875 
Q 20.65625 2.390625 20.65625 25.875 
Q 20.65625 35.0625 18.5625 44.09375 
Q 16.890625 51.421875 13.921875 58.15625 
Q 12.015625 62.546875 6.0625 72.796875 
L 12.359375 72.796875 
Q 21.53125 60.546875 25.921875 48.1875 
Q 29.6875 37.546875 29.6875 25.921875 
Q 29.6875 12.75 24.625 0.4375 
Q 19.578125 -11.859375 12.359375 -21.046875 
" id="ArialMT-29"/>
      <path d="M 23.390625 -21.046875 
Q 16.109375 -11.859375 11.078125 0.4375 
Q 6.0625 12.75 6.0625 25.921875 
Q 6.0625 37.546875 9.8125 48.1875 
Q 14.203125 60.546875 23.390625 72.796875 
L 29.6875 72.796875 
Q 23.78125 62.640625 21.875 58.296875 
Q 18.890625 51.5625 17.1875 44.234375 
Q 15.09375 35.109375 15.09375 25.875 
Q 15.09375 2.390625 29.6875 -21.046875 
z
" id="ArialMT-28"/>
      <path d="M 7.328125 0 
L 7.328125 71.578125 
L 16.796875 71.578125 
L 16.796875 8.453125 
L 52.046875 8.453125 
L 52.046875 0 
z
" id="ArialMT-4c"/>
      <path d="M 7.625 0 
L 7.625 71.578125 
L 17.328125 71.578125 
L 54.9375 15.375 
L 54.9375 71.578125 
L 64.015625 71.578125 
L 64.015625 0 
L 54.296875 0 
L 16.703125 56.25 
L 16.703125 0 
z
" id="ArialMT-4e"/>
      <path d="M 7.421875 0 
L 7.421875 71.578125 
L 21.6875 71.578125 
L 38.625 20.90625 
Q 40.96875 13.8125 42.046875 10.296875 
Q 43.265625 14.203125 45.84375 21.78125 
L 62.984375 71.578125 
L 75.734375 71.578125 
L 75.734375 0 
L 66.609375 0 
L 66.609375 59.90625 
L 45.796875 0 
L 37.25 0 
L 16.546875 60.9375 
L 16.546875 0 
z
" id="ArialMT-4d"/>
     </defs>
     <g style="fill:#262626;" transform="translate(205.0959375 347.35296875)scale(0.11 -0.11)">
      <use xlink:href="#ArialMT-4e"/>
      <use x="72.216796875" xlink:href="#ArialMT-41"/>
      <use x="138.916015625" xlink:href="#ArialMT-4d"/>
      <use x="222.216796875" xlink:href="#ArialMT-45"/>
      <use x="288.916015625" xlink:href="#ArialMT-50"/>
      <use x="355.615234375" xlink:href="#ArialMT-4c"/>
      <use x="411.23046875" xlink:href="#ArialMT-41"/>
      <use x="477.8203125" xlink:href="#ArialMT-54"/>
      <use x="538.904296875" xlink:href="#ArialMT-45"/>
      <use x="605.603515625" xlink:href="#ArialMT-5f"/>
      <use x="661.21875" xlink:href="#ArialMT-43"/>
      <use x="733.435546875" xlink:href="#ArialMT-41"/>
      <use x="800.134765625" xlink:href="#ArialMT-50"/>
      <use x="866.724609375" xlink:href="#ArialMT-41"/>
      <use x="933.423828125" xlink:href="#ArialMT-43"/>
      <use x="1005.640625" xlink:href="#ArialMT-49"/>
      <use x="1033.42382812" xlink:href="#ArialMT-54"/>
      <use x="1094.5078125" xlink:href="#ArialMT-59"/>
      <use x="1161.20703125" xlink:href="#ArialMT-28"/>
      <use x="1194.5078125" xlink:href="#ArialMT-4d"/>
      <use x="1277.80859375" xlink:href="#ArialMT-57"/>
      <use x="1372.19335938" xlink:href="#ArialMT-29"/>
     </g>
    </g>
   </g>
   <g id="matplotlib.axis_2">
    <g id="ytick_1">
     <g id="line2d_15">
      <path clip-path="url(#pe97b893399)" d="M 46.846875 304.180952 
L 517.95 304.180952 
" style="fill:none;stroke:#ffffff;stroke-linecap:round;"/>
     </g>
     <g id="line2d_16"/>
     <g id="text_9">
      <!-- 0.0 -->
      <defs>
       <path d="M 9.078125 0 
L 9.078125 10.015625 
L 19.09375 10.015625 
L 19.09375 0 
z
" id="ArialMT-2e"/>
      </defs>
      <g style="fill:#262626;" transform="translate(25.946875 306.766108631)scale(0.1 -0.1)">
       <use xlink:href="#ArialMT-30"/>
       <use x="55.615234375" xlink:href="#ArialMT-2e"/>
       <use x="83.3984375" xlink:href="#ArialMT-30"/>
      </g>
     </g>
    </g>
    <g id="ytick_2">
     <g id="line2d_17">
      <path clip-path="url(#pe97b893399)" d="M 46.846875 248.104762 
L 517.95 248.104762 
" style="fill:none;stroke:#ffffff;stroke-linecap:round;"/>
     </g>
     <g id="line2d_18"/>
     <g id="text_10">
      <!-- 0.2 -->
      <g style="fill:#262626;" transform="translate(25.946875 250.689918155)scale(0.1 -0.1)">
       <use xlink:href="#ArialMT-30"/>
       <use x="55.615234375" xlink:href="#ArialMT-2e"/>
       <use x="83.3984375" xlink:href="#ArialMT-32"/>
      </g>
     </g>
    </g>
    <g id="ytick_3">
     <g id="line2d_19">
      <path clip-path="url(#pe97b893399)" d="M 46.846875 192.028571 
L 517.95 192.028571 
" style="fill:none;stroke:#ffffff;stroke-linecap:round;"/>
     </g>
     <g id="line2d_20"/>
     <g id="text_11">
      <!-- 0.4 -->
      <g style="fill:#262626;" transform="translate(25.946875 194.613727679)scale(0.1 -0.1)">
       <use xlink:href="#ArialMT-30"/>
       <use x="55.615234375" xlink:href="#ArialMT-2e"/>
       <use x="83.3984375" xlink:href="#ArialMT-34"/>
      </g>
     </g>
    </g>
    <g id="ytick_4">
     <g id="line2d_21">
      <path clip-path="url(#pe97b893399)" d="M 46.846875 135.952381 
L 517.95 135.952381 
" style="fill:none;stroke:#ffffff;stroke-linecap:round;"/>
     </g>
     <g id="line2d_22"/>
     <g id="text_12">
      <!-- 0.6 -->
      <defs>
       <path d="M 49.75 54.046875 
L 41.015625 53.375 
Q 39.84375 58.546875 37.703125 60.890625 
Q 34.125 64.65625 28.90625 64.65625 
Q 24.703125 64.65625 21.53125 62.3125 
Q 17.390625 59.28125 14.984375 53.46875 
Q 12.59375 47.65625 12.5 36.921875 
Q 15.671875 41.75 20.265625 44.09375 
Q 24.859375 46.4375 29.890625 46.4375 
Q 38.671875 46.4375 44.84375 39.96875 
Q 51.03125 33.5 51.03125 23.25 
Q 51.03125 16.5 48.125 10.71875 
Q 45.21875 4.9375 40.140625 1.859375 
Q 35.0625 -1.21875 28.609375 -1.21875 
Q 17.625 -1.21875 10.6875 6.859375 
Q 3.765625 14.9375 3.765625 33.5 
Q 3.765625 54.25 11.421875 63.671875 
Q 18.109375 71.875 29.4375 71.875 
Q 37.890625 71.875 43.28125 67.140625 
Q 48.6875 62.40625 49.75 54.046875 
M 13.875 23.1875 
Q 13.875 18.65625 15.796875 14.5 
Q 17.71875 10.359375 21.1875 8.171875 
Q 24.65625 6 28.46875 6 
Q 34.03125 6 38.03125 10.484375 
Q 42.046875 14.984375 42.046875 22.703125 
Q 42.046875 30.125 38.078125 34.390625 
Q 34.125 38.671875 28.125 38.671875 
Q 22.171875 38.671875 18.015625 34.390625 
Q 13.875 30.125 13.875 23.1875 
" id="ArialMT-36"/>
      </defs>
      <g style="fill:#262626;" transform="translate(25.946875 138.537537202)scale(0.1 -0.1)">
       <use xlink:href="#ArialMT-30"/>
       <use x="55.615234375" xlink:href="#ArialMT-2e"/>
       <use x="83.3984375" xlink:href="#ArialMT-36"/>
      </g>
     </g>
    </g>
    <g id="ytick_5">
     <g id="line2d_23">
      <path clip-path="url(#pe97b893399)" d="M 46.846875 79.87619 
L 517.95 79.87619 
" style="fill:none;stroke:#ffffff;stroke-linecap:round;"/>
     </g>
     <g id="line2d_24"/>
     <g id="text_13">
      <!-- 0.8 -->
      <defs>
       <path d="M 17.671875 38.8125 
Q 12.203125 40.828125 9.5625 44.53125 
Q 6.9375 48.25 6.9375 53.421875 
Q 6.9375 61.234375 12.546875 66.546875 
Q 18.171875 71.875 27.484375 71.875 
Q 36.859375 71.875 42.578125 66.421875 
Q 48.296875 60.984375 48.296875 53.171875 
Q 48.296875 48.1875 45.671875 44.5 
Q 43.0625 40.828125 37.75 38.8125 
Q 44.34375 36.671875 47.78125 31.875 
Q 51.21875 27.09375 51.21875 20.453125 
Q 51.21875 11.28125 44.71875 5.03125 
Q 38.234375 -1.21875 27.640625 -1.21875 
Q 17.046875 -1.21875 10.546875 5.046875 
Q 4.046875 11.328125 4.046875 20.703125 
Q 4.046875 27.6875 7.59375 32.390625 
Q 11.140625 37.109375 17.671875 38.8125 
M 15.921875 53.71875 
Q 15.921875 48.640625 19.1875 45.40625 
Q 22.46875 42.1875 27.6875 42.1875 
Q 32.765625 42.1875 36.015625 45.375 
Q 39.265625 48.578125 39.265625 53.21875 
Q 39.265625 58.0625 35.90625 61.359375 
Q 32.5625 64.65625 27.59375 64.65625 
Q 22.5625 64.65625 19.234375 61.421875 
Q 15.921875 58.203125 15.921875 53.71875 
M 13.09375 20.65625 
Q 13.09375 16.890625 14.875 13.375 
Q 16.65625 9.859375 20.171875 7.921875 
Q 23.6875 6 27.734375 6 
Q 34.03125 6 38.125 10.046875 
Q 42.234375 14.109375 42.234375 20.359375 
Q 42.234375 26.703125 38.015625 30.859375 
Q 33.796875 35.015625 27.4375 35.015625 
Q 21.234375 35.015625 17.15625 30.90625 
Q 13.09375 26.8125 13.09375 20.65625 
" id="ArialMT-38"/>
      </defs>
      <g style="fill:#262626;" transform="translate(25.946875 82.4613467262)scale(0.1 -0.1)">
       <use xlink:href="#ArialMT-30"/>
       <use x="55.615234375" xlink:href="#ArialMT-2e"/>
       <use x="83.3984375" xlink:href="#ArialMT-38"/>
      </g>
     </g>
    </g>
    <g id="text_14">
     <!-- Capacity Factor -->
     <defs>
      <path d="M 40.4375 19 
L 49.078125 17.875 
Q 47.65625 8.9375 41.8125 3.875 
Q 35.984375 -1.171875 27.484375 -1.171875 
Q 16.84375 -1.171875 10.375 5.78125 
Q 3.90625 12.75 3.90625 25.734375 
Q 3.90625 34.125 6.6875 40.421875 
Q 9.46875 46.734375 15.15625 49.875 
Q 20.84375 53.03125 27.546875 53.03125 
Q 35.984375 53.03125 41.359375 48.75 
Q 46.734375 44.484375 48.25 36.625 
L 39.703125 35.296875 
Q 38.484375 40.53125 35.375 43.15625 
Q 32.28125 45.796875 27.875 45.796875 
Q 21.234375 45.796875 17.078125 41.03125 
Q 12.9375 36.28125 12.9375 25.984375 
Q 12.9375 15.53125 16.9375 10.796875 
Q 20.953125 6.0625 27.390625 6.0625 
Q 32.5625 6.0625 36.03125 9.234375 
Q 39.5 12.40625 40.4375 19 
" id="ArialMT-63"/>
      <path d="M 40.4375 6.390625 
Q 35.546875 2.25 31.03125 0.53125 
Q 26.515625 -1.171875 21.34375 -1.171875 
Q 12.796875 -1.171875 8.203125 3 
Q 3.609375 7.171875 3.609375 13.671875 
Q 3.609375 17.484375 5.34375 20.625 
Q 7.078125 23.78125 9.890625 25.6875 
Q 12.703125 27.59375 16.21875 28.5625 
Q 18.796875 29.25 24.03125 29.890625 
Q 34.671875 31.15625 39.703125 32.90625 
Q 39.75 34.71875 39.75 35.203125 
Q 39.75 40.578125 37.25 42.78125 
Q 33.890625 45.75 27.25 45.75 
Q 21.046875 45.75 18.09375 43.578125 
Q 15.140625 41.40625 13.71875 35.890625 
L 5.125 37.0625 
Q 6.296875 42.578125 8.984375 45.96875 
Q 11.671875 49.359375 16.75 51.1875 
Q 21.828125 53.03125 28.515625 53.03125 
Q 35.15625 53.03125 39.296875 51.46875 
Q 43.453125 49.90625 45.40625 47.53125 
Q 47.359375 45.171875 48.140625 41.546875 
Q 48.578125 39.3125 48.578125 33.453125 
L 48.578125 21.734375 
Q 48.578125 9.46875 49.140625 6.21875 
Q 49.703125 2.984375 51.375 0 
L 42.1875 0 
Q 40.828125 2.734375 40.4375 6.390625 
M 39.703125 26.03125 
Q 34.90625 24.078125 25.34375 22.703125 
Q 19.921875 21.921875 17.671875 20.9375 
Q 15.4375 19.96875 14.203125 18.09375 
Q 12.984375 16.21875 12.984375 13.921875 
Q 12.984375 10.40625 15.640625 8.0625 
Q 18.3125 5.71875 23.4375 5.71875 
Q 28.515625 5.71875 32.46875 7.9375 
Q 36.421875 10.15625 38.28125 14.015625 
Q 39.703125 17 39.703125 22.796875 
z
" id="ArialMT-61"/>
      <path d="M 6.203125 -19.96875 
L 5.21875 -11.71875 
Q 8.109375 -12.5 10.25 -12.5 
Q 13.1875 -12.5 14.9375 -11.515625 
Q 16.703125 -10.546875 17.828125 -8.796875 
Q 18.65625 -7.46875 20.515625 -2.25 
Q 20.75 -1.515625 21.296875 -0.09375 
L 1.609375 51.859375 
L 11.078125 51.859375 
L 21.875 21.828125 
Q 23.96875 16.109375 25.640625 9.8125 
Q 27.15625 15.875 29.25 21.625 
L 40.328125 51.859375 
L 49.125 51.859375 
L 29.390625 -0.875 
Q 26.21875 -9.421875 24.46875 -12.640625 
Q 22.125 -17 19.09375 -19.015625 
Q 16.0625 -21.046875 11.859375 -21.046875 
Q 9.328125 -21.046875 6.203125 -19.96875 
" id="ArialMT-79"/>
      <path d="M 25.78125 7.859375 
L 27.046875 0.09375 
Q 23.34375 -0.6875 20.40625 -0.6875 
Q 15.625 -0.6875 12.984375 0.828125 
Q 10.359375 2.34375 9.28125 4.8125 
Q 8.203125 7.28125 8.203125 15.1875 
L 8.203125 45.015625 
L 1.765625 45.015625 
L 1.765625 51.859375 
L 8.203125 51.859375 
L 8.203125 64.703125 
L 16.9375 69.96875 
L 16.9375 51.859375 
L 25.78125 51.859375 
L 25.78125 45.015625 
L 16.9375 45.015625 
L 16.9375 14.703125 
Q 16.9375 10.9375 17.40625 9.859375 
Q 17.875 8.796875 18.921875 8.15625 
Q 19.96875 7.515625 21.921875 7.515625 
Q 23.390625 7.515625 25.78125 7.859375 
" id="ArialMT-74"/>
      <path d="M 6.640625 61.46875 
L 6.640625 71.578125 
L 15.4375 71.578125 
L 15.4375 61.46875 
z
M 6.640625 0 
L 6.640625 51.859375 
L 15.4375 51.859375 
L 15.4375 0 
z
" id="ArialMT-69"/>
      <path d="M 6.59375 -19.875 
L 6.59375 51.859375 
L 14.59375 51.859375 
L 14.59375 45.125 
Q 17.4375 49.078125 21 51.046875 
Q 24.5625 53.03125 29.640625 53.03125 
Q 36.28125 53.03125 41.359375 49.609375 
Q 46.4375 46.1875 49.015625 39.953125 
Q 51.609375 33.734375 51.609375 26.3125 
Q 51.609375 18.359375 48.75 11.984375 
Q 45.90625 5.609375 40.453125 2.21875 
Q 35.015625 -1.171875 29 -1.171875 
Q 24.609375 -1.171875 21.109375 0.6875 
Q 17.625 2.546875 15.375 5.375 
L 15.375 -19.875 
z
M 14.546875 25.640625 
Q 14.546875 15.625 18.59375 10.84375 
Q 22.65625 6.0625 28.421875 6.0625 
Q 34.28125 6.0625 38.453125 11.015625 
Q 42.625 15.96875 42.625 26.375 
Q 42.625 36.28125 38.546875 41.203125 
Q 34.46875 46.140625 28.8125 46.140625 
Q 23.1875 46.140625 18.859375 40.890625 
Q 14.546875 35.640625 14.546875 25.640625 
" id="ArialMT-70"/>
      <path d="M 6.5 0 
L 6.5 51.859375 
L 14.40625 51.859375 
L 14.40625 44 
Q 17.4375 49.515625 20 51.265625 
Q 22.5625 53.03125 25.640625 53.03125 
Q 30.078125 53.03125 34.671875 50.203125 
L 31.640625 42.046875 
Q 28.421875 43.953125 25.203125 43.953125 
Q 22.3125 43.953125 20.015625 42.21875 
Q 17.71875 40.484375 16.75 37.40625 
Q 15.28125 32.71875 15.28125 27.15625 
L 15.28125 0 
z
" id="ArialMT-72"/>
      <path d="M 8.203125 0 
L 8.203125 71.578125 
L 56.5 71.578125 
L 56.5 63.140625 
L 17.671875 63.140625 
L 17.671875 40.96875 
L 51.265625 40.96875 
L 51.265625 32.515625 
L 17.671875 32.515625 
L 17.671875 0 
z
" id="ArialMT-46"/>
      <path d="M 3.328125 25.921875 
Q 3.328125 40.328125 11.328125 47.265625 
Q 18.015625 53.03125 27.640625 53.03125 
Q 38.328125 53.03125 45.109375 46.015625 
Q 51.90625 39.015625 51.90625 26.65625 
Q 51.90625 16.65625 48.90625 10.90625 
Q 45.90625 5.171875 40.15625 2 
Q 34.421875 -1.171875 27.640625 -1.171875 
Q 16.75 -1.171875 10.03125 5.8125 
Q 3.328125 12.796875 3.328125 25.921875 
M 12.359375 25.921875 
Q 12.359375 15.96875 16.703125 11.015625 
Q 21.046875 6.0625 27.640625 6.0625 
Q 34.1875 6.0625 38.53125 11.03125 
Q 42.875 16.015625 42.875 26.21875 
Q 42.875 35.84375 38.5 40.796875 
Q 34.125 45.75 27.640625 45.75 
Q 21.046875 45.75 16.703125 40.8125 
Q 12.359375 35.890625 12.359375 25.921875 
" id="ArialMT-6f"/>
      <path id="ArialMT-20"/>
     </defs>
     <g style="fill:#262626;" transform="translate(18.63171875 209.511171875)rotate(-90.0)scale(0.11 -0.11)">
      <use xlink:href="#ArialMT-43"/>
      <use x="72.216796875" xlink:href="#ArialMT-61"/>
      <use x="127.83203125" xlink:href="#ArialMT-70"/>
      <use x="183.447265625" xlink:href="#ArialMT-61"/>
      <use x="239.0625" xlink:href="#ArialMT-63"/>
      <use x="289.0625" xlink:href="#ArialMT-69"/>
      <use x="311.279296875" xlink:href="#ArialMT-74"/>
      <use x="339.0625" xlink:href="#ArialMT-79"/>
      <use x="389.0625" xlink:href="#ArialMT-20"/>
      <use x="416.845703125" xlink:href="#ArialMT-46"/>
      <use x="477.9296875" xlink:href="#ArialMT-61"/>
      <use x="533.544921875" xlink:href="#ArialMT-63"/>
      <use x="583.544921875" xlink:href="#ArialMT-74"/>
      <use x="611.328125" xlink:href="#ArialMT-6f"/>
      <use x="666.943359375" xlink:href="#ArialMT-72"/>
     </g>
    </g>
   </g>
   <g id="PathCollection_1">
    <defs>
     <path d="M 0 2.236068 
C 0.593012 2.236068 1.161816 2.000462 1.581139 1.581139 
C 2.000462 1.161816 2.236068 0.593012 2.236068 0 
C 2.236068 -0.593012 2.000462 -1.161816 1.581139 -1.581139 
C 1.161816 -2.000462 0.593012 -2.236068 0 -2.236068 
C -0.593012 -2.236068 -1.161816 -2.000462 -1.581139 -1.581139 
C -2.000462 -1.161816 -2.236068 -0.593012 -2.236068 0 
C -2.236068 0.593012 -2.000462 1.161816 -1.581139 1.581139 
C -1.161816 2.000462 -0.593012 2.236068 0 2.236068 
z
" id="mffbd7cc707" style="stroke:#4c72b0;stroke-width:0.3;"/>
    </defs>
    <g clip-path="url(#pe97b893399)">
     <use style="fill:#4c72b0;stroke:#4c72b0;stroke-width:0.3;" x="181.8964375" xlink:href="#mffbd7cc707" y="117.21172912"/>
     <use style="fill:#4c72b0;stroke:#4c72b0;stroke-width:0.3;" x="436.998779687" xlink:href="#mffbd7cc707" y="142.347111515"/>
     <use style="fill:#4c72b0;stroke:#4c72b0;stroke-width:0.3;" x="160.971607031" xlink:href="#mffbd7cc707" y="61.1999363746"/>
     <use style="fill:#4c72b0;stroke:#4c72b0;stroke-width:0.3;" x="280.82809375" xlink:href="#mffbd7cc707" y="55.2541106259"/>
     <use style="fill:#4c72b0;stroke:#4c72b0;stroke-width:0.3;" x="172.505781875" xlink:href="#mffbd7cc707" y="79.3328718305"/>
     <use style="fill:#4c72b0;stroke:#4c72b0;stroke-width:0.3;" x="258.058109375" xlink:href="#mffbd7cc707" y="74.1785541507"/>
     <use style="fill:#4c72b0;stroke:#4c72b0;stroke-width:0.3;" x="198.54208125" xlink:href="#mffbd7cc707" y="121.465660816"/>
     <use style="fill:#4c72b0;stroke:#4c72b0;stroke-width:0.3;" x="169.804790625" xlink:href="#mffbd7cc707" y="71.9240447877"/>
    </g>
   </g>
   <g id="PathCollection_2">
    <defs>
     <path d="M 0 2.236068 
C 0.593012 2.236068 1.161816 2.000462 1.581139 1.581139 
C 2.000462 1.161816 2.236068 0.593012 2.236068 0 
C 2.236068 -0.593012 2.000462 -1.161816 1.581139 -1.581139 
C 1.161816 -2.000462 0.593012 -2.236068 0 -2.236068 
C -0.593012 -2.236068 -1.161816 -2.000462 -1.581139 -1.581139 
C -2.000462 -1.161816 -2.236068 -0.593012 -2.236068 0 
C -2.236068 0.593012 -2.000462 1.161816 -1.581139 1.581139 
C -1.161816 2.000462 -0.593012 2.236068 0 2.236068 
z
" id="m9c4fffda91" style="stroke:#55a868;stroke-width:0.3;"/>
    </defs>
    <g clip-path="url(#pe97b893399)">
     <use style="fill:#55a868;stroke:#55a868;stroke-width:0.3;" x="270.605155937" xlink:href="#m9c4fffda91" y="68.9969115524"/>
     <use style="fill:#55a868;stroke:#55a868;stroke-width:0.3;" x="218.548260625" xlink:href="#m9c4fffda91" y="73.6252703807"/>
     <use style="fill:#55a868;stroke:#55a868;stroke-width:0.3;" x="312.203561875" xlink:href="#m9c4fffda91" y="61.076995959"/>
     <use style="fill:#55a868;stroke:#55a868;stroke-width:0.3;" x="157.556109375" xlink:href="#m9c4fffda91" y="92.3146408286"/>
     <use style="fill:#55a868;stroke:#55a868;stroke-width:0.3;" x="171.736313437" xlink:href="#m9c4fffda91" y="62.7885502723"/>
     <use style="fill:#55a868;stroke:#55a868;stroke-width:0.3;" x="152.782264375" xlink:href="#m9c4fffda91" y="91.899019484"/>
    </g>
   </g>
   <g id="PathCollection_3">
    <defs>
     <path d="M 0 2.236068 
C 0.593012 2.236068 1.161816 2.000462 1.581139 1.581139 
C 2.000462 1.161816 2.236068 0.593012 2.236068 0 
C 2.236068 -0.593012 2.000462 -1.161816 1.581139 -1.581139 
C 1.161816 -2.000462 0.593012 -2.236068 0 -2.236068 
C -0.593012 -2.236068 -1.161816 -2.000462 -1.581139 -1.581139 
C -2.000462 -1.161816 -2.236068 -0.593012 -2.236068 0 
C -2.236068 0.593012 -2.000462 1.161816 -1.581139 1.581139 
C -1.161816 2.000462 -0.593012 2.236068 0 2.236068 
z
" id="m28f23cb650" style="stroke:#c44e52;stroke-width:0.3;"/>
    </defs>
    <g clip-path="url(#pe97b893399)">
     <use style="fill:#c44e52;stroke:#c44e52;stroke-width:0.3;" x="140.06248" xlink:href="#m28f23cb650" y="168.363393149"/>
     <use style="fill:#c44e52;stroke:#c44e52;stroke-width:0.3;" x="198.188753906" xlink:href="#m28f23cb650" y="284.470498227"/>
     <use style="fill:#c44e52;stroke:#c44e52;stroke-width:0.3;" x="200.607083281" xlink:href="#m28f23cb650" y="291.549108968"/>
     <use style="fill:#c44e52;stroke:#c44e52;stroke-width:0.3;" x="180.993489844" xlink:href="#m28f23cb650" y="295.595723994"/>
     <use style="fill:#c44e52;stroke:#c44e52;stroke-width:0.3;" x="305.561007812" xlink:href="#m28f23cb650" y="278.145837236"/>
     <use style="fill:#c44e52;stroke:#c44e52;stroke-width:0.3;" x="194.33356" xlink:href="#m28f23cb650" y="296.20154924"/>
     <use style="fill:#c44e52;stroke:#c44e52;stroke-width:0.3;" x="194.074453281" xlink:href="#m28f23cb650" y="294.022044044"/>
     <use style="fill:#c44e52;stroke:#c44e52;stroke-width:0.3;" x="236.976244531" xlink:href="#m28f23cb650" y="277.09561298"/>
     <use style="fill:#c44e52;stroke:#c44e52;stroke-width:0.3;" x="175.198921406" xlink:href="#m28f23cb650" y="264.184912387"/>
     <use style="fill:#c44e52;stroke:#c44e52;stroke-width:0.3;" x="237.902747344" xlink:href="#m28f23cb650" y="298.296075834"/>
     <use style="fill:#c44e52;stroke:#c44e52;stroke-width:0.3;" x="232.437951094" xlink:href="#m28f23cb650" y="300.670467152"/>
     <use style="fill:#c44e52;stroke:#c44e52;stroke-width:0.3;" x="211.528824062" xlink:href="#m28f23cb650" y="292.628202167"/>
     <use style="fill:#c44e52;stroke:#c44e52;stroke-width:0.3;" x="150.61519" xlink:href="#m28f23cb650" y="298.232395535"/>
     <use style="fill:#c44e52;stroke:#c44e52;stroke-width:0.3;" x="181.378224062" xlink:href="#m28f23cb650" y="269.123597547"/>
     <use style="fill:#c44e52;stroke:#c44e52;stroke-width:0.3;" x="233.694226094" xlink:href="#m28f23cb650" y="294.994767517"/>
     <use style="fill:#c44e52;stroke:#c44e52;stroke-width:0.3;" x="144.467294219" xlink:href="#m28f23cb650" y="294.926429225"/>
     <use style="fill:#c44e52;stroke:#c44e52;stroke-width:0.3;" x="217.653164687" xlink:href="#m28f23cb650" y="298.319218673"/>
     <use style="fill:#c44e52;stroke:#c44e52;stroke-width:0.3;" x="198.565636406" xlink:href="#m28f23cb650" y="264.604999347"/>
     <use style="fill:#c44e52;stroke:#c44e52;stroke-width:0.3;" x="169.176653125" xlink:href="#m28f23cb650" y="282.466755201"/>
     <use style="fill:#c44e52;stroke:#c44e52;stroke-width:0.3;" x="139.607080312" xlink:href="#m28f23cb650" y="295.058969518"/>
     <use style="fill:#c44e52;stroke:#c44e52;stroke-width:0.3;" x="136.199434375" xlink:href="#m28f23cb650" y="303.807074234"/>
     <use style="fill:#c44e52;stroke:#c44e52;stroke-width:0.3;" x="132.933119375" xlink:href="#m28f23cb650" y="304.020253546"/>
     <use style="fill:#c44e52;stroke:#c44e52;stroke-width:0.3;" x="158.945863594" xlink:href="#m28f23cb650" y="283.228181391"/>
     <use style="fill:#c44e52;stroke:#c44e52;stroke-width:0.3;" x="175.536545312" xlink:href="#m28f23cb650" y="254.002006306"/>
     <use style="fill:#c44e52;stroke:#c44e52;stroke-width:0.3;" x="158.207802031" xlink:href="#m28f23cb650" y="295.651935923"/>
     <use style="fill:#c44e52;stroke:#c44e52;stroke-width:0.3;" x="195.40139375" xlink:href="#m28f23cb650" y="253.84997499"/>
     <use style="fill:#c44e52;stroke:#c44e52;stroke-width:0.3;" x="195.558428125" xlink:href="#m28f23cb650" y="272.353469569"/>
     <use style="fill:#c44e52;stroke:#c44e52;stroke-width:0.3;" x="164.143701406" xlink:href="#m28f23cb650" y="303.332207434"/>
     <use style="fill:#c44e52;stroke:#c44e52;stroke-width:0.3;" x="130.938782812" xlink:href="#m28f23cb650" y="304.135421356"/>
     <use style="fill:#c44e52;stroke:#c44e52;stroke-width:0.3;" x="172.757036875" xlink:href="#m28f23cb650" y="287.745199298"/>
     <use style="fill:#c44e52;stroke:#c44e52;stroke-width:0.3;" x="130.546196875" xlink:href="#m28f23cb650" y="293.546883051"/>
     <use style="fill:#c44e52;stroke:#c44e52;stroke-width:0.3;" x="144.223890937" xlink:href="#m28f23cb650" y="220.820016117"/>
     <use style="fill:#c44e52;stroke:#c44e52;stroke-width:0.3;" x="132.014468281" xlink:href="#m28f23cb650" y="301.84183703"/>
     <use style="fill:#c44e52;stroke:#c44e52;stroke-width:0.3;" x="139.002497969" xlink:href="#m28f23cb650" y="293.45060588"/>
     <use style="fill:#c44e52;stroke:#c44e52;stroke-width:0.3;" x="160.382728125" xlink:href="#m28f23cb650" y="247.945516524"/>
     <use style="fill:#c44e52;stroke:#c44e52;stroke-width:0.3;" x="180.561645312" xlink:href="#m28f23cb650" y="291.59784708"/>
     <use style="fill:#c44e52;stroke:#c44e52;stroke-width:0.3;" x="137.463561094" xlink:href="#m28f23cb650" y="237.883970441"/>
     <use style="fill:#c44e52;stroke:#c44e52;stroke-width:0.3;" x="139.214494375" xlink:href="#m28f23cb650" y="125.384532574"/>
     <use style="fill:#c44e52;stroke:#c44e52;stroke-width:0.3;" x="168.548515625" xlink:href="#m28f23cb650" y="225.570990532"/>
     <use style="fill:#c44e52;stroke:#c44e52;stroke-width:0.3;" x="171.971865" xlink:href="#m28f23cb650" y="205.710543075"/>
     <use style="fill:#c44e52;stroke:#c44e52;stroke-width:0.3;" x="216.192745" xlink:href="#m28f23cb650" y="298.719654492"/>
     <use style="fill:#c44e52;stroke:#c44e52;stroke-width:0.3;" x="128.583267187" xlink:href="#m28f23cb650" y="99.3793571243"/>
     <use style="fill:#c44e52;stroke:#c44e52;stroke-width:0.3;" x="126.486858281" xlink:href="#m28f23cb650" y="274.904657899"/>
     <use style="fill:#c44e52;stroke:#c44e52;stroke-width:0.3;" x="128.50475" xlink:href="#m28f23cb650" y="116.117268972"/>
     <use style="fill:#c44e52;stroke:#c44e52;stroke-width:0.3;" x="129.82383875" xlink:href="#m28f23cb650" y="298.15147261"/>
     <use style="fill:#c44e52;stroke:#c44e52;stroke-width:0.3;" x="127.381954219" xlink:href="#m28f23cb650" y="69.4466547033"/>
     <use style="fill:#c44e52;stroke:#c44e52;stroke-width:0.3;" x="148.91921875" xlink:href="#m28f23cb650" y="124.59127648"/>
     <use style="fill:#c44e52;stroke:#c44e52;stroke-width:0.3;" x="125.631020937" xlink:href="#m28f23cb650" y="190.965187317"/>
     <use style="fill:#c44e52;stroke:#c44e52;stroke-width:0.3;" x="129.706062969" xlink:href="#m28f23cb650" y="170.076399579"/>
     <use style="fill:#c44e52;stroke:#c44e52;stroke-width:0.3;" x="142.237406094" xlink:href="#m28f23cb650" y="167.780643649"/>
     <use style="fill:#c44e52;stroke:#c44e52;stroke-width:0.3;" x="179.493811562" xlink:href="#m28f23cb650" y="107.731587779"/>
     <use style="fill:#c44e52;stroke:#c44e52;stroke-width:0.3;" x="154.957190469" xlink:href="#m28f23cb650" y="95.466439199"/>
     <use style="fill:#c44e52;stroke:#c44e52;stroke-width:0.3;" x="161.890258125" xlink:href="#m28f23cb650" y="267.143221595"/>
     <use style="fill:#c44e52;stroke:#c44e52;stroke-width:0.3;" x="133.4042225" xlink:href="#m28f23cb650" y="147.097116533"/>
     <use style="fill:#c44e52;stroke:#c44e52;stroke-width:0.3;" x="130.444124531" xlink:href="#m28f23cb650" y="170.491885831"/>
     <use style="fill:#c44e52;stroke:#c44e52;stroke-width:0.3;" x="150.206900625" xlink:href="#m28f23cb650" y="121.202362796"/>
     <use style="fill:#c44e52;stroke:#c44e52;stroke-width:0.3;" x="125.905831094" xlink:href="#m28f23cb650" y="159.957228383"/>
     <use style="fill:#c44e52;stroke:#c44e52;stroke-width:0.3;" x="144.993359375" xlink:href="#m28f23cb650" y="238.125888584"/>
     <use style="fill:#c44e52;stroke:#c44e52;stroke-width:0.3;" x="136.050251719" xlink:href="#m28f23cb650" y="224.872362081"/>
     <use style="fill:#c44e52;stroke:#c44e52;stroke-width:0.3;" x="131.6454375" xlink:href="#m28f23cb650" y="288.42792781"/>
     <use style="fill:#c44e52;stroke:#c44e52;stroke-width:0.3;" x="132.52483" xlink:href="#m28f23cb650" y="304.013547568"/>
     <use style="fill:#c44e52;stroke:#c44e52;stroke-width:0.3;" x="138.55495" xlink:href="#m28f23cb650" y="182.368477122"/>
     <use style="fill:#c44e52;stroke:#c44e52;stroke-width:0.3;" x="132.9017125" xlink:href="#m28f23cb650" y="242.146466957"/>
     <use style="fill:#c44e52;stroke:#c44e52;stroke-width:0.3;" x="128.112164062" xlink:href="#m28f23cb650" y="69.0053746839"/>
     <use style="fill:#c44e52;stroke:#c44e52;stroke-width:0.3;" x="125.835165625" xlink:href="#m28f23cb650" y="264.914922954"/>
     <use style="fill:#c44e52;stroke:#c44e52;stroke-width:0.3;" x="145.542979687" xlink:href="#m28f23cb650" y="124.709356583"/>
     <use style="fill:#c44e52;stroke:#c44e52;stroke-width:0.3;" x="128.583267187" xlink:href="#m28f23cb650" y="90.6677805716"/>
     <use style="fill:#c44e52;stroke:#c44e52;stroke-width:0.3;" x="152.373975" xlink:href="#m28f23cb650" y="283.468263669"/>
     <use style="fill:#c44e52;stroke:#c44e52;stroke-width:0.3;" x="175.897724375" xlink:href="#m28f23cb650" y="154.789841373"/>
     <use style="fill:#c44e52;stroke:#c44e52;stroke-width:0.3;" x="130.318497031" xlink:href="#m28f23cb650" y="163.493419799"/>
     <use style="fill:#c44e52;stroke:#c44e52;stroke-width:0.3;" x="160.696796875" xlink:href="#m28f23cb650" y="194.324306768"/>
     <use style="fill:#c44e52;stroke:#c44e52;stroke-width:0.3;" x="233.607857187" xlink:href="#m28f23cb650" y="195.095385929"/>
     <use style="fill:#c44e52;stroke:#c44e52;stroke-width:0.3;" x="140.368697031" xlink:href="#m28f23cb650" y="268.336334955"/>
     <use style="fill:#c44e52;stroke:#c44e52;stroke-width:0.3;" x="143.423015625" xlink:href="#m28f23cb650" y="216.75236147"/>
     <use style="fill:#c44e52;stroke:#c44e52;stroke-width:0.3;" x="129.682507812" xlink:href="#m28f23cb650" y="234.820710431"/>
     <use style="fill:#c44e52;stroke:#c44e52;stroke-width:0.3;" x="125.774844739" xlink:href="#m28f23cb650" y="-1.0"/>
     <use style="fill:#c44e52;stroke:#c44e52;stroke-width:0.3;" x="125.650778135" xlink:href="#m28f23cb650" y="-1.0"/>
     <use style="fill:#c44e52;stroke:#c44e52;stroke-width:0.3;" x="125.521096875" xlink:href="#m28f23cb650" y="246.824499587"/>
     <use style="fill:#c44e52;stroke:#c44e52;stroke-width:0.3;" x="125.5315381" xlink:href="#m28f23cb650" y="-1.0"/>
     <use style="fill:#c44e52;stroke:#c44e52;stroke-width:0.3;" x="125.633220722" xlink:href="#m28f23cb650" y="-1.0"/>
     <use style="fill:#c44e52;stroke:#c44e52;stroke-width:0.3;" x="125.631020937" xlink:href="#m28f23cb650" y="444.371428571"/>
     <use style="fill:#c44e52;stroke:#c44e52;stroke-width:0.3;" x="125.638872656" xlink:href="#m28f23cb650" y="304.180952381"/>
     <use style="fill:#c44e52;stroke:#c44e52;stroke-width:0.3;" x="164.457770156" xlink:href="#m28f23cb650" y="141.427831641"/>
     <use style="fill:#c44e52;stroke:#c44e52;stroke-width:0.3;" x="147.553019687" xlink:href="#m28f23cb650" y="157.9498141"/>
     <use style="fill:#c44e52;stroke:#c44e52;stroke-width:0.3;" x="170.27589375" xlink:href="#m28f23cb650" y="121.316346618"/>
     <use style="fill:#c44e52;stroke:#c44e52;stroke-width:0.3;" x="125.80375875" xlink:href="#m28f23cb650" y="155.748684497"/>
     <use style="fill:#c44e52;stroke:#c44e52;stroke-width:0.3;" x="189.355570312" xlink:href="#m28f23cb650" y="162.836226346"/>
     <use style="fill:#c44e52;stroke:#c44e52;stroke-width:0.3;" x="125.48969" xlink:href="#m28f23cb650" y="90.7145466406"/>
     <use style="fill:#c44e52;stroke:#c44e52;stroke-width:0.3;" x="125.960793125" xlink:href="#m28f23cb650" y="138.126664149"/>
     <use style="fill:#c44e52;stroke:#c44e52;stroke-width:0.3;" x="199.146663594" xlink:href="#m28f23cb650" y="146.635667969"/>
     <use style="fill:#c44e52;stroke:#c44e52;stroke-width:0.3;" x="159.2834875" xlink:href="#m28f23cb650" y="95.5439224308"/>
     <use style="fill:#c44e52;stroke:#c44e52;stroke-width:0.3;" x="261.512865625" xlink:href="#m28f23cb650" y="180.59182451"/>
     <use style="fill:#c44e52;stroke:#c44e52;stroke-width:0.3;" x="211.010610625" xlink:href="#m28f23cb650" y="175.860339324"/>
     <use style="fill:#c44e52;stroke:#c44e52;stroke-width:0.3;" x="166.899654687" xlink:href="#m28f23cb650" y="164.467736843"/>
     <use style="fill:#c44e52;stroke:#c44e52;stroke-width:0.3;" x="188.256329687" xlink:href="#m28f23cb650" y="186.697195205"/>
     <use style="fill:#c44e52;stroke:#c44e52;stroke-width:0.3;" x="199.138811875" xlink:href="#m28f23cb650" y="171.354188534"/>
     <use style="fill:#c44e52;stroke:#c44e52;stroke-width:0.3;" x="195.888200312" xlink:href="#m28f23cb650" y="212.425035725"/>
     <use style="fill:#c44e52;stroke:#c44e52;stroke-width:0.3;" x="188.9315775" xlink:href="#m28f23cb650" y="173.618787483"/>
     <use style="fill:#c44e52;stroke:#c44e52;stroke-width:0.3;" x="203.017560937" xlink:href="#m28f23cb650" y="184.636841174"/>
     <use style="fill:#c44e52;stroke:#c44e52;stroke-width:0.3;" x="215.046394062" xlink:href="#m28f23cb650" y="186.664472033"/>
     <use style="fill:#c44e52;stroke:#c44e52;stroke-width:0.3;" x="172.081789062" xlink:href="#m28f23cb650" y="129.505749259"/>
     <use style="fill:#c44e52;stroke:#c44e52;stroke-width:0.3;" x="182.508871562" xlink:href="#m28f23cb650" y="206.452512784"/>
     <use style="fill:#c44e52;stroke:#c44e52;stroke-width:0.3;" x="169.098135937" xlink:href="#m28f23cb650" y="252.731347577"/>
     <use style="fill:#c44e52;stroke:#c44e52;stroke-width:0.3;" x="197.466395781" xlink:href="#m28f23cb650" y="122.491102066"/>
     <use style="fill:#c44e52;stroke:#c44e52;stroke-width:0.3;" x="170.550703906" xlink:href="#m28f23cb650" y="165.011528741"/>
     <use style="fill:#c44e52;stroke:#c44e52;stroke-width:0.3;" x="214.49677375" xlink:href="#m28f23cb650" y="181.464014039"/>
     <use style="fill:#c44e52;stroke:#c44e52;stroke-width:0.3;" x="158.184246875" xlink:href="#m28f23cb650" y="179.052965956"/>
     <use style="fill:#c44e52;stroke:#c44e52;stroke-width:0.3;" x="206.70786875" xlink:href="#m28f23cb650" y="179.177592409"/>
     <use style="fill:#c44e52;stroke:#c44e52;stroke-width:0.3;" x="175.6150625" xlink:href="#m28f23cb650" y="125.825429441"/>
     <use style="fill:#c44e52;stroke:#c44e52;stroke-width:0.3;" x="181.503851562" xlink:href="#m28f23cb650" y="182.867234155"/>
     <use style="fill:#c44e52;stroke:#c44e52;stroke-width:0.3;" x="132.642605781" xlink:href="#m28f23cb650" y="84.2948770581"/>
     <use style="fill:#c44e52;stroke:#c44e52;stroke-width:0.3;" x="168.407184687" xlink:href="#m28f23cb650" y="142.520834634"/>
     <use style="fill:#c44e52;stroke:#c44e52;stroke-width:0.3;" x="183.937884375" xlink:href="#m28f23cb650" y="194.601184312"/>
     <use style="fill:#c44e52;stroke:#c44e52;stroke-width:0.3;" x="197.175882187" xlink:href="#m28f23cb650" y="142.566871498"/>
     <use style="fill:#c44e52;stroke:#c44e52;stroke-width:0.3;" x="178.410274375" xlink:href="#m28f23cb650" y="174.68286575"/>
     <use style="fill:#c44e52;stroke:#c44e52;stroke-width:0.3;" x="143.89411875" xlink:href="#m28f23cb650" y="299.948167804"/>
     <use style="fill:#c44e52;stroke:#c44e52;stroke-width:0.3;" x="203.56718125" xlink:href="#m28f23cb650" y="115.089510124"/>
     <use style="fill:#c44e52;stroke:#c44e52;stroke-width:0.3;" x="173.338064062" xlink:href="#m28f23cb650" y="133.762195103"/>
     <use style="fill:#c44e52;stroke:#c44e52;stroke-width:0.3;" x="265.423021562" xlink:href="#m28f23cb650" y="152.20194643"/>
     <use style="fill:#c44e52;stroke:#c44e52;stroke-width:0.3;" x="168.650587969" xlink:href="#m28f23cb650" y="197.237304705"/>
     <use style="fill:#c44e52;stroke:#c44e52;stroke-width:0.3;" x="137.447857656" xlink:href="#m28f23cb650" y="124.992316718"/>
     <use style="fill:#c44e52;stroke:#c44e52;stroke-width:0.3;" x="160.5397625" xlink:href="#m28f23cb650" y="282.589901531"/>
     <use style="fill:#c44e52;stroke:#c44e52;stroke-width:0.3;" x="160.783165781" xlink:href="#m28f23cb650" y="282.964333866"/>
     <use style="fill:#c44e52;stroke:#c44e52;stroke-width:0.3;" x="125.756648437" xlink:href="#m28f23cb650" y="295.743931046"/>
     <use style="fill:#c44e52;stroke:#c44e52;stroke-width:0.3;" x="125.843017344" xlink:href="#m28f23cb650" y="209.408869098"/>
    </g>
   </g>
   <g id="PathCollection_4">
    <defs>
     <path d="M 0 2.236068 
C 0.593012 2.236068 1.161816 2.000462 1.581139 1.581139 
C 2.000462 1.161816 2.236068 0.593012 2.236068 0 
C 2.236068 -0.593012 2.000462 -1.161816 1.581139 -1.581139 
C 1.161816 -2.000462 0.593012 -2.236068 0 -2.236068 
C -0.593012 -2.236068 -1.161816 -2.000462 -1.581139 -1.581139 
C -2.000462 -1.161816 -2.236068 -0.593012 -2.236068 0 
C -2.236068 0.593012 -2.000462 1.161816 -1.581139 1.581139 
C -1.161816 2.000462 -0.593012 2.236068 0 2.236068 
z
" id="m75fa0af43a" style="stroke:#8172b2;stroke-width:0.3;"/>
    </defs>
    <g clip-path="url(#pe97b893399)">
     <use style="fill:#8172b2;stroke:#8172b2;stroke-width:0.3;" x="125.960793125" xlink:href="#m75fa0af43a" y="177.837696982"/>
     <use style="fill:#8172b2;stroke:#8172b2;stroke-width:0.3;" x="139.811225" xlink:href="#m75fa0af43a" y="132.76586858"/>
     <use style="fill:#8172b2;stroke:#8172b2;stroke-width:0.3;" x="131.386330781" xlink:href="#m75fa0af43a" y="191.128019568"/>
    </g>
   </g>
   <g id="PathCollection_5">
    <defs>
     <path d="M 0 2.236068 
C 0.593012 2.236068 1.161816 2.000462 1.581139 1.581139 
C 2.000462 1.161816 2.236068 0.593012 2.236068 0 
C 2.236068 -0.593012 2.000462 -1.161816 1.581139 -1.581139 
C 1.161816 -2.000462 0.593012 -2.236068 0 -2.236068 
C -0.593012 -2.236068 -1.161816 -2.000462 -1.581139 -1.581139 
C -2.000462 -1.161816 -2.236068 -0.593012 -2.236068 0 
C -2.236068 0.593012 -2.000462 1.161816 -1.581139 1.581139 
C -1.161816 2.000462 -0.593012 2.236068 0 2.236068 
z
" id="mb166fa6e1e" style="stroke:#ccb974;stroke-width:0.3;"/>
    </defs>
    <g clip-path="url(#pe97b893399)">
     <use style="fill:#ccb974;stroke:#ccb974;stroke-width:0.3;" x="125.693834687" xlink:href="#mb166fa6e1e" y="303.967572661"/>
     <use style="fill:#ccb974;stroke:#ccb974;stroke-width:0.3;" x="125.835165625" xlink:href="#mb166fa6e1e" y="303.402127071"/>
     <use style="fill:#ccb974;stroke:#ccb974;stroke-width:0.3;" x="126.212048125" xlink:href="#mb166fa6e1e" y="303.890521836"/>
    </g>
   </g>
   <g id="patch_3">
    <path d="M 46.846875 318.2 
L 517.95 318.2 
" style="fill:none;"/>
   </g>
   <g id="patch_4">
    <path d="M 46.846875 318.2 
L 46.846875 23.8 
" style="fill:none;"/>
   </g>
   <g id="text_15">
    <!-- 2007 ERCOT Fossil Fuel Power Plants -->
    <defs>
     <path d="M 42.09375 16.703125 
L 51.171875 15.578125 
Q 49.03125 7.625 43.21875 3.21875 
Q 37.40625 -1.171875 28.375 -1.171875 
Q 17 -1.171875 10.328125 5.828125 
Q 3.65625 12.84375 3.65625 25.484375 
Q 3.65625 38.578125 10.390625 45.796875 
Q 17.140625 53.03125 27.875 53.03125 
Q 38.28125 53.03125 44.875 45.953125 
Q 51.46875 38.875 51.46875 26.03125 
Q 51.46875 25.25 51.421875 23.6875 
L 12.75 23.6875 
Q 13.234375 15.140625 17.578125 10.59375 
Q 21.921875 6.0625 28.421875 6.0625 
Q 33.25 6.0625 36.671875 8.59375 
Q 40.09375 11.140625 42.09375 16.703125 
M 13.234375 30.90625 
L 42.1875 30.90625 
Q 41.609375 37.453125 38.875 40.71875 
Q 34.671875 45.796875 27.984375 45.796875 
Q 21.921875 45.796875 17.796875 41.75 
Q 13.671875 37.703125 13.234375 30.90625 
" id="ArialMT-65"/>
     <path d="M 7.859375 0 
L 7.859375 71.578125 
L 39.59375 71.578125 
Q 49.171875 71.578125 54.140625 69.640625 
Q 59.125 67.71875 62.109375 62.828125 
Q 65.09375 57.953125 65.09375 52.046875 
Q 65.09375 44.4375 60.15625 39.203125 
Q 55.21875 33.984375 44.921875 32.5625 
Q 48.6875 30.765625 50.640625 29 
Q 54.78125 25.203125 58.5 19.484375 
L 70.953125 0 
L 59.03125 0 
L 49.5625 14.890625 
Q 45.40625 21.34375 42.71875 24.75 
Q 40.046875 28.171875 37.921875 29.53125 
Q 35.796875 30.90625 33.59375 31.453125 
Q 31.984375 31.78125 28.328125 31.78125 
L 17.328125 31.78125 
L 17.328125 0 
z
M 17.328125 39.984375 
L 37.703125 39.984375 
Q 44.1875 39.984375 47.84375 41.328125 
Q 51.515625 42.671875 53.421875 45.625 
Q 55.328125 48.578125 55.328125 52.046875 
Q 55.328125 57.125 51.640625 60.390625 
Q 47.953125 63.671875 39.984375 63.671875 
L 17.328125 63.671875 
z
" id="ArialMT-52"/>
     <path d="M 40.578125 0 
L 40.578125 7.625 
Q 34.515625 -1.171875 24.125 -1.171875 
Q 19.53125 -1.171875 15.546875 0.578125 
Q 11.578125 2.34375 9.640625 5 
Q 7.71875 7.671875 6.9375 11.53125 
Q 6.390625 14.109375 6.390625 19.734375 
L 6.390625 51.859375 
L 15.1875 51.859375 
L 15.1875 23.09375 
Q 15.1875 16.21875 15.71875 13.8125 
Q 16.546875 10.359375 19.234375 8.375 
Q 21.921875 6.390625 25.875 6.390625 
Q 29.828125 6.390625 33.296875 8.421875 
Q 36.765625 10.453125 38.203125 13.9375 
Q 39.65625 17.4375 39.65625 24.078125 
L 39.65625 51.859375 
L 48.4375 51.859375 
L 48.4375 0 
z
" id="ArialMT-75"/>
     <path d="M 16.15625 0 
L 0.296875 51.859375 
L 9.375 51.859375 
L 17.625 21.921875 
L 20.703125 10.796875 
Q 20.90625 11.625 23.390625 21.484375 
L 31.640625 51.859375 
L 40.671875 51.859375 
L 48.4375 21.78125 
L 51.03125 11.859375 
L 54 21.875 
L 62.890625 51.859375 
L 71.4375 51.859375 
L 55.21875 0 
L 46.09375 0 
L 37.84375 31.0625 
L 35.84375 39.890625 
L 25.34375 0 
z
" id="ArialMT-77"/>
     <path d="M 3.078125 15.484375 
L 11.765625 16.84375 
Q 12.5 11.625 15.84375 8.84375 
Q 19.1875 6.0625 25.203125 6.0625 
Q 31.25 6.0625 34.171875 8.515625 
Q 37.109375 10.984375 37.109375 14.3125 
Q 37.109375 17.28125 34.515625 19 
Q 32.71875 20.171875 25.53125 21.96875 
Q 15.875 24.421875 12.140625 26.203125 
Q 8.40625 27.984375 6.46875 31.125 
Q 4.546875 34.28125 4.546875 38.09375 
Q 4.546875 41.546875 6.125 44.5 
Q 7.71875 47.46875 10.453125 49.421875 
Q 12.5 50.921875 16.03125 51.96875 
Q 19.578125 53.03125 23.640625 53.03125 
Q 29.734375 53.03125 34.34375 51.265625 
Q 38.96875 49.515625 41.15625 46.5 
Q 43.359375 43.5 44.1875 38.484375 
L 35.59375 37.3125 
Q 35.015625 41.3125 32.203125 43.546875 
Q 29.390625 45.796875 24.265625 45.796875 
Q 18.21875 45.796875 15.625 43.796875 
Q 13.03125 41.796875 13.03125 39.109375 
Q 13.03125 37.40625 14.109375 36.03125 
Q 15.1875 34.625 17.484375 33.6875 
Q 18.796875 33.203125 25.25 31.453125 
Q 34.578125 28.953125 38.25 27.359375 
Q 41.9375 25.78125 44.03125 22.75 
Q 46.140625 19.734375 46.140625 15.234375 
Q 46.140625 10.84375 43.578125 6.953125 
Q 41.015625 3.078125 36.171875 0.953125 
Q 31.34375 -1.171875 25.25 -1.171875 
Q 15.140625 -1.171875 9.84375 3.03125 
Q 4.546875 7.234375 3.078125 15.484375 
" id="ArialMT-73"/>
     <path d="M 6.390625 0 
L 6.390625 71.578125 
L 15.1875 71.578125 
L 15.1875 0 
z
" id="ArialMT-6c"/>
     <path d="M 6.59375 0 
L 6.59375 51.859375 
L 14.5 51.859375 
L 14.5 44.484375 
Q 20.21875 53.03125 31 53.03125 
Q 35.6875 53.03125 39.625 51.34375 
Q 43.5625 49.65625 45.515625 46.921875 
Q 47.46875 44.1875 48.25 40.4375 
Q 48.734375 37.984375 48.734375 31.890625 
L 48.734375 0 
L 39.9375 0 
L 39.9375 31.546875 
Q 39.9375 36.921875 38.90625 39.578125 
Q 37.890625 42.234375 35.28125 43.8125 
Q 32.671875 45.40625 29.15625 45.40625 
Q 23.53125 45.40625 19.453125 41.84375 
Q 15.375 38.28125 15.375 28.328125 
L 15.375 0 
z
" id="ArialMT-6e"/>
     <path d="M 4.734375 62.203125 
L 4.734375 70.65625 
L 51.078125 70.65625 
L 51.078125 63.8125 
Q 44.234375 56.546875 37.515625 44.484375 
Q 30.8125 32.421875 27.15625 19.671875 
Q 24.515625 10.6875 23.78125 0 
L 14.75 0 
Q 14.890625 8.453125 18.0625 20.40625 
Q 21.234375 32.375 27.171875 43.484375 
Q 33.109375 54.59375 39.796875 62.203125 
z
" id="ArialMT-37"/>
     <path d="M 4.828125 34.859375 
Q 4.828125 52.6875 14.390625 62.765625 
Q 23.96875 72.859375 39.109375 72.859375 
Q 49.03125 72.859375 56.984375 68.109375 
Q 64.9375 63.375 69.109375 54.90625 
Q 73.296875 46.4375 73.296875 35.6875 
Q 73.296875 24.8125 68.890625 16.21875 
Q 64.5 7.625 56.4375 3.203125 
Q 48.390625 -1.21875 39.0625 -1.21875 
Q 28.953125 -1.21875 20.984375 3.65625 
Q 13.03125 8.546875 8.921875 16.984375 
Q 4.828125 25.4375 4.828125 34.859375 
M 14.59375 34.71875 
Q 14.59375 21.78125 21.546875 14.328125 
Q 28.515625 6.890625 39.015625 6.890625 
Q 49.703125 6.890625 56.609375 14.40625 
Q 63.53125 21.921875 63.53125 35.75 
Q 63.53125 44.484375 60.578125 51 
Q 57.625 57.515625 51.921875 61.109375 
Q 46.234375 64.703125 39.15625 64.703125 
Q 29.109375 64.703125 21.84375 57.78125 
Q 14.59375 50.875 14.59375 34.71875 
" id="ArialMT-4f"/>
    </defs>
    <g style="fill:#262626;" transform="translate(178.69875 18.8)scale(0.12 -0.12)">
     <use xlink:href="#ArialMT-32"/>
     <use x="55.615234375" xlink:href="#ArialMT-30"/>
     <use x="111.23046875" xlink:href="#ArialMT-30"/>
     <use x="166.845703125" xlink:href="#ArialMT-37"/>
     <use x="222.4609375" xlink:href="#ArialMT-20"/>
     <use x="250.244140625" xlink:href="#ArialMT-45"/>
     <use x="316.943359375" xlink:href="#ArialMT-52"/>
     <use x="389.16015625" xlink:href="#ArialMT-43"/>
     <use x="461.376953125" xlink:href="#ArialMT-4f"/>
     <use x="539.16015625" xlink:href="#ArialMT-54"/>
     <use x="600.228515625" xlink:href="#ArialMT-20"/>
     <use x="628.01171875" xlink:href="#ArialMT-46"/>
     <use x="689.095703125" xlink:href="#ArialMT-6f"/>
     <use x="744.7109375" xlink:href="#ArialMT-73"/>
     <use x="794.7109375" xlink:href="#ArialMT-73"/>
     <use x="844.7109375" xlink:href="#ArialMT-69"/>
     <use x="866.927734375" xlink:href="#ArialMT-6c"/>
     <use x="889.14453125" xlink:href="#ArialMT-20"/>
     <use x="916.927734375" xlink:href="#ArialMT-46"/>
     <use x="978.01171875" xlink:href="#ArialMT-75"/>
     <use x="1033.62695312" xlink:href="#ArialMT-65"/>
     <use x="1089.2421875" xlink:href="#ArialMT-6c"/>
     <use x="1111.45898438" xlink:href="#ArialMT-20"/>
     <use x="1139.2421875" xlink:href="#ArialMT-50"/>
     <use x="1205.94140625" xlink:href="#ArialMT-6f"/>
     <use x="1261.55664062" xlink:href="#ArialMT-77"/>
     <use x="1333.7734375" xlink:href="#ArialMT-65"/>
     <use x="1389.38867188" xlink:href="#ArialMT-72"/>
     <use x="1422.68945312" xlink:href="#ArialMT-20"/>
     <use x="1450.47265625" xlink:href="#ArialMT-50"/>
     <use x="1517.171875" xlink:href="#ArialMT-6c"/>
     <use x="1539.38867188" xlink:href="#ArialMT-61"/>
     <use x="1595.00390625" xlink:href="#ArialMT-6e"/>
     <use x="1650.61914062" xlink:href="#ArialMT-74"/>
     <use x="1678.40234375" xlink:href="#ArialMT-73"/>
    </g>
   </g>
   <g id="legend_1">
    <g id="PathCollection_6">
     <path d="M 403.679687 39.56888 
C 404.2727 39.56888 404.841503 39.333274 405.260826 38.913951 
C 405.680149 38.494628 405.915755 37.925825 405.915755 37.332813 
C 405.915755 36.7398 405.680149 36.170997 405.260826 35.751674 
C 404.841503 35.332351 404.2727 35.096745 403.679687 35.096745 
C 403.086675 35.096745 402.517872 35.332351 402.098549 35.751674 
C 401.679226 36.170997 401.44362 36.7398 401.44362 37.332813 
C 401.44362 37.925825 401.679226 38.494628 402.098549 38.913951 
C 402.517872 39.333274 403.086675 39.56888 403.679687 39.56888 
z
" style="fill:#4c72b0;stroke:#4c72b0;stroke-width:0.3;"/>
     <path d="M 403.679687 39.56888 
C 404.2727 39.56888 404.841503 39.333274 405.260826 38.913951 
C 405.680149 38.494628 405.915755 37.925825 405.915755 37.332813 
C 405.915755 36.7398 405.680149 36.170997 405.260826 35.751674 
C 404.841503 35.332351 404.2727 35.096745 403.679687 35.096745 
C 403.086675 35.096745 402.517872 35.332351 402.098549 35.751674 
C 401.679226 36.170997 401.44362 36.7398 401.44362 37.332813 
C 401.44362 37.925825 401.679226 38.494628 402.098549 38.913951 
C 402.517872 39.333274 403.086675 39.56888 403.679687 39.56888 
z
" style="fill:#4c72b0;stroke:#4c72b0;stroke-width:0.3;"/>
     <path d="M 403.679687 39.56888 
C 404.2727 39.56888 404.841503 39.333274 405.260826 38.913951 
C 405.680149 38.494628 405.915755 37.925825 405.915755 37.332813 
C 405.915755 36.7398 405.680149 36.170997 405.260826 35.751674 
C 404.841503 35.332351 404.2727 35.096745 403.679687 35.096745 
C 403.086675 35.096745 402.517872 35.332351 402.098549 35.751674 
C 401.679226 36.170997 401.44362 36.7398 401.44362 37.332813 
C 401.44362 37.925825 401.679226 38.494628 402.098549 38.913951 
C 402.517872 39.333274 403.086675 39.56888 403.679687 39.56888 
z
" style="fill:#4c72b0;stroke:#4c72b0;stroke-width:0.3;"/>
    </g>
    <g id="text_16">
     <!-- Subbituminous coal -->
     <defs>
      <path d="M 4.5 23 
L 13.421875 23.78125 
Q 14.0625 18.40625 16.375 14.96875 
Q 18.703125 11.53125 23.578125 9.40625 
Q 28.46875 7.28125 34.578125 7.28125 
Q 39.984375 7.28125 44.140625 8.890625 
Q 48.296875 10.5 50.3125 13.296875 
Q 52.34375 16.109375 52.34375 19.4375 
Q 52.34375 22.796875 50.390625 25.3125 
Q 48.4375 27.828125 43.953125 29.546875 
Q 41.0625 30.671875 31.203125 33.03125 
Q 21.34375 35.40625 17.390625 37.5 
Q 12.25 40.1875 9.734375 44.15625 
Q 7.234375 48.140625 7.234375 53.078125 
Q 7.234375 58.5 10.296875 63.203125 
Q 13.375 67.921875 19.28125 70.359375 
Q 25.203125 72.796875 32.421875 72.796875 
Q 40.375 72.796875 46.453125 70.234375 
Q 52.546875 67.671875 55.8125 62.6875 
Q 59.078125 57.71875 59.328125 51.421875 
L 50.25 50.734375 
Q 49.515625 57.515625 45.28125 60.984375 
Q 41.0625 64.453125 32.8125 64.453125 
Q 24.21875 64.453125 20.28125 61.296875 
Q 16.359375 58.15625 16.359375 53.71875 
Q 16.359375 49.859375 19.140625 47.359375 
Q 21.875 44.875 33.421875 42.265625 
Q 44.96875 39.65625 49.265625 37.703125 
Q 55.515625 34.8125 58.484375 30.390625 
Q 61.46875 25.984375 61.46875 20.21875 
Q 61.46875 14.5 58.203125 9.4375 
Q 54.9375 4.390625 48.796875 1.578125 
Q 42.671875 -1.21875 35.015625 -1.21875 
Q 25.296875 -1.21875 18.71875 1.609375 
Q 12.15625 4.4375 8.421875 10.125 
Q 4.6875 15.828125 4.5 23 
" id="ArialMT-53"/>
      <path d="M 6.59375 0 
L 6.59375 51.859375 
L 14.453125 51.859375 
L 14.453125 44.578125 
Q 16.890625 48.390625 20.9375 50.703125 
Q 25 53.03125 30.171875 53.03125 
Q 35.9375 53.03125 39.625 50.640625 
Q 43.3125 48.25 44.828125 43.953125 
Q 50.984375 53.03125 60.84375 53.03125 
Q 68.5625 53.03125 72.703125 48.75 
Q 76.859375 44.484375 76.859375 35.59375 
L 76.859375 0 
L 68.109375 0 
L 68.109375 32.671875 
Q 68.109375 37.9375 67.25 40.25 
Q 66.40625 42.578125 64.15625 43.984375 
Q 61.921875 45.40625 58.890625 45.40625 
Q 53.421875 45.40625 49.796875 41.765625 
Q 46.1875 38.140625 46.1875 30.125 
L 46.1875 0 
L 37.40625 0 
L 37.40625 33.6875 
Q 37.40625 39.546875 35.25 42.46875 
Q 33.109375 45.40625 28.21875 45.40625 
Q 24.515625 45.40625 21.359375 43.453125 
Q 18.21875 41.5 16.796875 37.734375 
Q 15.375 33.984375 15.375 26.90625 
L 15.375 0 
z
" id="ArialMT-6d"/>
      <path d="M 14.703125 0 
L 6.546875 0 
L 6.546875 71.578125 
L 15.328125 71.578125 
L 15.328125 46.046875 
Q 20.90625 53.03125 29.546875 53.03125 
Q 34.328125 53.03125 38.59375 51.09375 
Q 42.875 49.171875 45.625 45.671875 
Q 48.390625 42.1875 49.953125 37.25 
Q 51.515625 32.328125 51.515625 26.703125 
Q 51.515625 13.375 44.921875 6.09375 
Q 38.328125 -1.171875 29.109375 -1.171875 
Q 19.921875 -1.171875 14.703125 6.5 
z
M 14.59375 26.3125 
Q 14.59375 17 17.140625 12.84375 
Q 21.296875 6.0625 28.375 6.0625 
Q 34.125 6.0625 38.328125 11.0625 
Q 42.53125 16.0625 42.53125 25.984375 
Q 42.53125 36.140625 38.5 40.96875 
Q 34.46875 45.796875 28.765625 45.796875 
Q 23 45.796875 18.796875 40.796875 
Q 14.59375 35.796875 14.59375 26.3125 
" id="ArialMT-62"/>
     </defs>
     <g style="fill:#262626;" transform="translate(421.6796875 39.9578125)scale(0.1 -0.1)">
      <use xlink:href="#ArialMT-53"/>
      <use x="66.69921875" xlink:href="#ArialMT-75"/>
      <use x="122.314453125" xlink:href="#ArialMT-62"/>
      <use x="177.9296875" xlink:href="#ArialMT-62"/>
      <use x="233.544921875" xlink:href="#ArialMT-69"/>
      <use x="255.76171875" xlink:href="#ArialMT-74"/>
      <use x="283.544921875" xlink:href="#ArialMT-75"/>
      <use x="339.16015625" xlink:href="#ArialMT-6d"/>
      <use x="422.4609375" xlink:href="#ArialMT-69"/>
      <use x="444.677734375" xlink:href="#ArialMT-6e"/>
      <use x="500.29296875" xlink:href="#ArialMT-6f"/>
      <use x="555.908203125" xlink:href="#ArialMT-75"/>
      <use x="611.5234375" xlink:href="#ArialMT-73"/>
      <use x="661.5234375" xlink:href="#ArialMT-20"/>
      <use x="689.306640625" xlink:href="#ArialMT-63"/>
      <use x="739.306640625" xlink:href="#ArialMT-6f"/>
      <use x="794.921875" xlink:href="#ArialMT-61"/>
      <use x="850.537109375" xlink:href="#ArialMT-6c"/>
     </g>
    </g>
    <g id="PathCollection_7">
     <path d="M 403.679687 53.714193 
C 404.2727 53.714193 404.841503 53.478587 405.260826 53.059264 
C 405.680149 52.639941 405.915755 52.071137 405.915755 51.478125 
C 405.915755 50.885113 405.680149 50.316309 405.260826 49.896986 
C 404.841503 49.477663 404.2727 49.242057 403.679687 49.242057 
C 403.086675 49.242057 402.517872 49.477663 402.098549 49.896986 
C 401.679226 50.316309 401.44362 50.885113 401.44362 51.478125 
C 401.44362 52.071137 401.679226 52.639941 402.098549 53.059264 
C 402.517872 53.478587 403.086675 53.714193 403.679687 53.714193 
z
" style="fill:#55a868;stroke:#55a868;stroke-width:0.3;"/>
     <path d="M 403.679687 53.714193 
C 404.2727 53.714193 404.841503 53.478587 405.260826 53.059264 
C 405.680149 52.639941 405.915755 52.071137 405.915755 51.478125 
C 405.915755 50.885113 405.680149 50.316309 405.260826 49.896986 
C 404.841503 49.477663 404.2727 49.242057 403.679687 49.242057 
C 403.086675 49.242057 402.517872 49.477663 402.098549 49.896986 
C 401.679226 50.316309 401.44362 50.885113 401.44362 51.478125 
C 401.44362 52.071137 401.679226 52.639941 402.098549 53.059264 
C 402.517872 53.478587 403.086675 53.714193 403.679687 53.714193 
z
" style="fill:#55a868;stroke:#55a868;stroke-width:0.3;"/>
     <path d="M 403.679687 53.714193 
C 404.2727 53.714193 404.841503 53.478587 405.260826 53.059264 
C 405.680149 52.639941 405.915755 52.071137 405.915755 51.478125 
C 405.915755 50.885113 405.680149 50.316309 405.260826 49.896986 
C 404.841503 49.477663 404.2727 49.242057 403.679687 49.242057 
C 403.086675 49.242057 402.517872 49.477663 402.098549 49.896986 
C 401.679226 50.316309 401.44362 50.885113 401.44362 51.478125 
C 401.44362 52.071137 401.679226 52.639941 402.098549 53.059264 
C 402.517872 53.478587 403.086675 53.714193 403.679687 53.714193 
z
" style="fill:#55a868;stroke:#55a868;stroke-width:0.3;"/>
    </g>
    <g id="text_17">
     <!-- Lignite coal -->
     <defs>
      <path d="M 4.984375 -4.296875 
L 13.53125 -5.5625 
Q 14.0625 -9.515625 16.5 -11.328125 
Q 19.78125 -13.765625 25.4375 -13.765625 
Q 31.546875 -13.765625 34.859375 -11.328125 
Q 38.1875 -8.890625 39.359375 -4.5 
Q 40.046875 -1.8125 39.984375 6.78125 
Q 34.234375 0 25.640625 0 
Q 14.9375 0 9.078125 7.71875 
Q 3.21875 15.4375 3.21875 26.21875 
Q 3.21875 33.640625 5.90625 39.90625 
Q 8.59375 46.1875 13.6875 49.609375 
Q 18.796875 53.03125 25.6875 53.03125 
Q 34.859375 53.03125 40.828125 45.609375 
L 40.828125 51.859375 
L 48.921875 51.859375 
L 48.921875 7.03125 
Q 48.921875 -5.078125 46.453125 -10.125 
Q 44 -15.1875 38.640625 -18.109375 
Q 33.296875 -21.046875 25.484375 -21.046875 
Q 16.21875 -21.046875 10.5 -16.875 
Q 4.78125 -12.703125 4.984375 -4.296875 
M 12.25 26.859375 
Q 12.25 16.65625 16.296875 11.96875 
Q 20.359375 7.28125 26.46875 7.28125 
Q 32.515625 7.28125 36.609375 11.9375 
Q 40.71875 16.609375 40.71875 26.5625 
Q 40.71875 36.078125 36.5 40.90625 
Q 32.28125 45.75 26.3125 45.75 
Q 20.453125 45.75 16.34375 40.984375 
Q 12.25 36.234375 12.25 26.859375 
" id="ArialMT-67"/>
     </defs>
     <g style="fill:#262626;" transform="translate(421.6796875 54.103125)scale(0.1 -0.1)">
      <use xlink:href="#ArialMT-4c"/>
      <use x="55.615234375" xlink:href="#ArialMT-69"/>
      <use x="77.83203125" xlink:href="#ArialMT-67"/>
      <use x="133.447265625" xlink:href="#ArialMT-6e"/>
      <use x="189.0625" xlink:href="#ArialMT-69"/>
      <use x="211.279296875" xlink:href="#ArialMT-74"/>
      <use x="239.0625" xlink:href="#ArialMT-65"/>
      <use x="294.677734375" xlink:href="#ArialMT-20"/>
      <use x="322.4609375" xlink:href="#ArialMT-63"/>
      <use x="372.4609375" xlink:href="#ArialMT-6f"/>
      <use x="428.076171875" xlink:href="#ArialMT-61"/>
      <use x="483.69140625" xlink:href="#ArialMT-6c"/>
     </g>
    </g>
    <g id="PathCollection_8">
     <path d="M 403.679687 67.976693 
C 404.2727 67.976693 404.841503 67.741087 405.260826 67.321764 
C 405.680149 66.902441 405.915755 66.333637 405.915755 65.740625 
C 405.915755 65.147613 405.680149 64.578809 405.260826 64.159486 
C 404.841503 63.740163 404.2727 63.504557 403.679687 63.504557 
C 403.086675 63.504557 402.517872 63.740163 402.098549 64.159486 
C 401.679226 64.578809 401.44362 65.147613 401.44362 65.740625 
C 401.44362 66.333637 401.679226 66.902441 402.098549 67.321764 
C 402.517872 67.741087 403.086675 67.976693 403.679687 67.976693 
z
" style="fill:#c44e52;stroke:#c44e52;stroke-width:0.3;"/>
     <path d="M 403.679687 67.976693 
C 404.2727 67.976693 404.841503 67.741087 405.260826 67.321764 
C 405.680149 66.902441 405.915755 66.333637 405.915755 65.740625 
C 405.915755 65.147613 405.680149 64.578809 405.260826 64.159486 
C 404.841503 63.740163 404.2727 63.504557 403.679687 63.504557 
C 403.086675 63.504557 402.517872 63.740163 402.098549 64.159486 
C 401.679226 64.578809 401.44362 65.147613 401.44362 65.740625 
C 401.44362 66.333637 401.679226 66.902441 402.098549 67.321764 
C 402.517872 67.741087 403.086675 67.976693 403.679687 67.976693 
z
" style="fill:#c44e52;stroke:#c44e52;stroke-width:0.3;"/>
     <path d="M 403.679687 67.976693 
C 404.2727 67.976693 404.841503 67.741087 405.260826 67.321764 
C 405.680149 66.902441 405.915755 66.333637 405.915755 65.740625 
C 405.915755 65.147613 405.680149 64.578809 405.260826 64.159486 
C 404.841503 63.740163 404.2727 63.504557 403.679687 63.504557 
C 403.086675 63.504557 402.517872 63.740163 402.098549 64.159486 
C 401.679226 64.578809 401.44362 65.147613 401.44362 65.740625 
C 401.44362 66.333637 401.679226 66.902441 402.098549 67.321764 
C 402.517872 67.741087 403.086675 67.976693 403.679687 67.976693 
z
" style="fill:#c44e52;stroke:#c44e52;stroke-width:0.3;"/>
    </g>
    <g id="text_18">
     <!-- Natural gas -->
     <g style="fill:#262626;" transform="translate(421.6796875 68.365625)scale(0.1 -0.1)">
      <use xlink:href="#ArialMT-4e"/>
      <use x="72.216796875" xlink:href="#ArialMT-61"/>
      <use x="127.83203125" xlink:href="#ArialMT-74"/>
      <use x="155.615234375" xlink:href="#ArialMT-75"/>
      <use x="211.23046875" xlink:href="#ArialMT-72"/>
      <use x="244.53125" xlink:href="#ArialMT-61"/>
      <use x="300.146484375" xlink:href="#ArialMT-6c"/>
      <use x="322.36328125" xlink:href="#ArialMT-20"/>
      <use x="350.146484375" xlink:href="#ArialMT-67"/>
      <use x="405.76171875" xlink:href="#ArialMT-61"/>
      <use x="461.376953125" xlink:href="#ArialMT-73"/>
     </g>
    </g>
    <g id="PathCollection_9">
     <path d="M 403.679687 82.239193 
C 404.2727 82.239193 404.841503 82.003587 405.260826 81.584264 
C 405.680149 81.164941 405.915755 80.596137 405.915755 80.003125 
C 405.915755 79.410113 405.680149 78.841309 405.260826 78.421986 
C 404.841503 78.002663 404.2727 77.767057 403.679687 77.767057 
C 403.086675 77.767057 402.517872 78.002663 402.098549 78.421986 
C 401.679226 78.841309 401.44362 79.410113 401.44362 80.003125 
C 401.44362 80.596137 401.679226 81.164941 402.098549 81.584264 
C 402.517872 82.003587 403.086675 82.239193 403.679687 82.239193 
z
" style="fill:#8172b2;stroke:#8172b2;stroke-width:0.3;"/>
     <path d="M 403.679687 82.239193 
C 404.2727 82.239193 404.841503 82.003587 405.260826 81.584264 
C 405.680149 81.164941 405.915755 80.596137 405.915755 80.003125 
C 405.915755 79.410113 405.680149 78.841309 405.260826 78.421986 
C 404.841503 78.002663 404.2727 77.767057 403.679687 77.767057 
C 403.086675 77.767057 402.517872 78.002663 402.098549 78.421986 
C 401.679226 78.841309 401.44362 79.410113 401.44362 80.003125 
C 401.44362 80.596137 401.679226 81.164941 402.098549 81.584264 
C 402.517872 82.003587 403.086675 82.239193 403.679687 82.239193 
z
" style="fill:#8172b2;stroke:#8172b2;stroke-width:0.3;"/>
     <path d="M 403.679687 82.239193 
C 404.2727 82.239193 404.841503 82.003587 405.260826 81.584264 
C 405.680149 81.164941 405.915755 80.596137 405.915755 80.003125 
C 405.915755 79.410113 405.680149 78.841309 405.260826 78.421986 
C 404.841503 78.002663 404.2727 77.767057 403.679687 77.767057 
C 403.086675 77.767057 402.517872 78.002663 402.098549 78.421986 
C 401.679226 78.841309 401.44362 79.410113 401.44362 80.003125 
C 401.44362 80.596137 401.679226 81.164941 402.098549 81.584264 
C 402.517872 82.003587 403.086675 82.239193 403.679687 82.239193 
z
" style="fill:#8172b2;stroke:#8172b2;stroke-width:0.3;"/>
    </g>
    <g id="text_19">
     <!-- Petroleum coke -->
     <defs>
      <path d="M 6.640625 0 
L 6.640625 71.578125 
L 15.4375 71.578125 
L 15.4375 30.765625 
L 36.234375 51.859375 
L 47.609375 51.859375 
L 27.78125 32.625 
L 49.609375 0 
L 38.765625 0 
L 21.625 26.515625 
L 15.4375 20.5625 
L 15.4375 0 
z
" id="ArialMT-6b"/>
     </defs>
     <g style="fill:#262626;" transform="translate(421.6796875 82.628125)scale(0.1 -0.1)">
      <use xlink:href="#ArialMT-50"/>
      <use x="66.69921875" xlink:href="#ArialMT-65"/>
      <use x="122.314453125" xlink:href="#ArialMT-74"/>
      <use x="150.09765625" xlink:href="#ArialMT-72"/>
      <use x="183.3984375" xlink:href="#ArialMT-6f"/>
      <use x="239.013671875" xlink:href="#ArialMT-6c"/>
      <use x="261.23046875" xlink:href="#ArialMT-65"/>
      <use x="316.845703125" xlink:href="#ArialMT-75"/>
      <use x="372.4609375" xlink:href="#ArialMT-6d"/>
      <use x="455.76171875" xlink:href="#ArialMT-20"/>
      <use x="483.544921875" xlink:href="#ArialMT-63"/>
      <use x="533.544921875" xlink:href="#ArialMT-6f"/>
      <use x="589.16015625" xlink:href="#ArialMT-6b"/>
      <use x="639.16015625" xlink:href="#ArialMT-65"/>
     </g>
    </g>
    <g id="PathCollection_10">
     <path d="M 403.679687 96.384505 
C 404.2727 96.384505 404.841503 96.148899 405.260826 95.729576 
C 405.680149 95.310253 405.915755 94.74145 405.915755 94.148438 
C 405.915755 93.555425 405.680149 92.986622 405.260826 92.567299 
C 404.841503 92.147976 404.2727 91.91237 403.679687 91.91237 
C 403.086675 91.91237 402.517872 92.147976 402.098549 92.567299 
C 401.679226 92.986622 401.44362 93.555425 401.44362 94.148438 
C 401.44362 94.74145 401.679226 95.310253 402.098549 95.729576 
C 402.517872 96.148899 403.086675 96.384505 403.679687 96.384505 
z
" style="fill:#ccb974;stroke:#ccb974;stroke-width:0.3;"/>
     <path d="M 403.679687 96.384505 
C 404.2727 96.384505 404.841503 96.148899 405.260826 95.729576 
C 405.680149 95.310253 405.915755 94.74145 405.915755 94.148438 
C 405.915755 93.555425 405.680149 92.986622 405.260826 92.567299 
C 404.841503 92.147976 404.2727 91.91237 403.679687 91.91237 
C 403.086675 91.91237 402.517872 92.147976 402.098549 92.567299 
C 401.679226 92.986622 401.44362 93.555425 401.44362 94.148438 
C 401.44362 94.74145 401.679226 95.310253 402.098549 95.729576 
C 402.517872 96.148899 403.086675 96.384505 403.679687 96.384505 
z
" style="fill:#ccb974;stroke:#ccb974;stroke-width:0.3;"/>
     <path d="M 403.679687 96.384505 
C 404.2727 96.384505 404.841503 96.148899 405.260826 95.729576 
C 405.680149 95.310253 405.915755 94.74145 405.915755 94.148438 
C 405.915755 93.555425 405.680149 92.986622 405.260826 92.567299 
C 404.841503 92.147976 404.2727 91.91237 403.679687 91.91237 
C 403.086675 91.91237 402.517872 92.147976 402.098549 92.567299 
C 401.679226 92.986622 401.44362 93.555425 401.44362 94.148438 
C 401.44362 94.74145 401.679226 95.310253 402.098549 95.729576 
C 402.517872 96.148899 403.086675 96.384505 403.679687 96.384505 
z
" style="fill:#ccb974;stroke:#ccb974;stroke-width:0.3;"/>
    </g>
    <g id="text_20">
     <!-- Diesel fuel -->
     <defs>
      <path d="M 7.71875 0 
L 7.71875 71.578125 
L 32.375 71.578125 
Q 40.71875 71.578125 45.125 70.5625 
Q 51.265625 69.140625 55.609375 65.4375 
Q 61.28125 60.640625 64.078125 53.1875 
Q 66.890625 45.75 66.890625 36.1875 
Q 66.890625 28.03125 64.984375 21.734375 
Q 63.09375 15.4375 60.109375 11.296875 
Q 57.125 7.171875 53.578125 4.796875 
Q 50.046875 2.4375 45.046875 1.21875 
Q 40.046875 0 33.546875 0 
z
M 17.1875 8.453125 
L 32.46875 8.453125 
Q 39.546875 8.453125 43.578125 9.765625 
Q 47.609375 11.078125 50 13.484375 
Q 53.375 16.84375 55.25 22.53125 
Q 57.125 28.21875 57.125 36.328125 
Q 57.125 47.5625 53.4375 53.59375 
Q 49.75 59.625 44.484375 61.671875 
Q 40.671875 63.140625 32.234375 63.140625 
L 17.1875 63.140625 
z
" id="ArialMT-44"/>
      <path d="M 8.6875 0 
L 8.6875 45.015625 
L 0.921875 45.015625 
L 0.921875 51.859375 
L 8.6875 51.859375 
L 8.6875 57.375 
Q 8.6875 62.59375 9.625 65.140625 
Q 10.890625 68.5625 14.078125 70.671875 
Q 17.28125 72.796875 23.046875 72.796875 
Q 26.765625 72.796875 31.25 71.921875 
L 29.9375 64.265625 
Q 27.203125 64.75 24.75 64.75 
Q 20.75 64.75 19.09375 63.03125 
Q 17.4375 61.328125 17.4375 56.640625 
L 17.4375 51.859375 
L 27.546875 51.859375 
L 27.546875 45.015625 
L 17.4375 45.015625 
L 17.4375 0 
z
" id="ArialMT-66"/>
     </defs>
     <g style="fill:#262626;" transform="translate(421.6796875 96.7734375)scale(0.1 -0.1)">
      <use xlink:href="#ArialMT-44"/>
      <use x="72.216796875" xlink:href="#ArialMT-69"/>
      <use x="94.43359375" xlink:href="#ArialMT-65"/>
      <use x="150.048828125" xlink:href="#ArialMT-73"/>
      <use x="200.048828125" xlink:href="#ArialMT-65"/>
      <use x="255.6640625" xlink:href="#ArialMT-6c"/>
      <use x="277.880859375" xlink:href="#ArialMT-20"/>
      <use x="305.6640625" xlink:href="#ArialMT-66"/>
      <use x="333.447265625" xlink:href="#ArialMT-75"/>
      <use x="389.0625" xlink:href="#ArialMT-65"/>
      <use x="444.677734375" xlink:href="#ArialMT-6c"/>
     </g>
    </g>
   </g>
  </g>
 </g>
 <defs>
  <clipPath id="pe97b893399">
   <rect height="294.4" width="471.103125" x="46.846875" y="23.8"/>
  </clipPath>
 </defs>
</svg>
