<?xml version="1.0" encoding="utf-8" standalone="no"?>
<!DOCTYPE svg PUBLIC "-//W3C//DTD SVG 1.1//EN"
  "http://www.w3.org/Graphics/SVG/1.1/DTD/svg11.dtd">
<!-- Created with matplotlib (http://matplotlib.org/) -->
<svg height="288pt" version="1.1" viewBox="0 0 432 288" width="432pt" xmlns="http://www.w3.org/2000/svg" xmlns:xlink="http://www.w3.org/1999/xlink">
 <defs>
  <style type="text/css">
*{stroke-linecap:butt;stroke-linejoin:round;stroke-miterlimit:100000;}
  </style>
 </defs>
 <g id="figure_1">
  <g id="patch_1">
   <path d="M 0 288 
L 432 288 
L 432 0 
L 0 0 
z
" style="fill:#ffffff;"/>
  </g>
  <g id="axes_1">
   <g id="patch_2">
    <path d="M 54 252 
L 388.8 252 
L 388.8 28.8 
L 54 28.8 
z
" style="fill:#eaeaf2;"/>
   </g>
   <g id="matplotlib.axis_1">
    <g id="xtick_1">
     <g id="line2d_1"/>
     <g id="line2d_2"/>
     <g id="text_1">
      <!-- 2007 -->
      <defs>
       <path d="M 4.15625 35.296875 
Q 4.15625 48 6.765625 55.734375 
Q 9.375 63.484375 14.515625 67.671875 
Q 19.671875 71.875 27.484375 71.875 
Q 33.25 71.875 37.59375 69.546875 
Q 41.9375 67.234375 44.765625 62.859375 
Q 47.609375 58.5 49.21875 52.21875 
Q 50.828125 45.953125 50.828125 35.296875 
Q 50.828125 22.703125 48.234375 14.96875 
Q 45.65625 7.234375 40.5 3 
Q 35.359375 -1.21875 27.484375 -1.21875 
Q 17.140625 -1.21875 11.234375 6.203125 
Q 4.15625 15.140625 4.15625 35.296875 
M 13.1875 35.296875 
Q 13.1875 17.671875 17.3125 11.828125 
Q 21.4375 6 27.484375 6 
Q 33.546875 6 37.671875 11.859375 
Q 41.796875 17.71875 41.796875 35.296875 
Q 41.796875 52.984375 37.671875 58.78125 
Q 33.546875 64.59375 27.390625 64.59375 
Q 21.34375 64.59375 17.71875 59.46875 
Q 13.1875 52.9375 13.1875 35.296875 
" id="ArialMT-30"/>
       <path d="M 50.34375 8.453125 
L 50.34375 0 
L 3.03125 0 
Q 2.9375 3.171875 4.046875 6.109375 
Q 5.859375 10.9375 9.828125 15.625 
Q 13.8125 20.3125 21.34375 26.46875 
Q 33.015625 36.03125 37.109375 41.625 
Q 41.21875 47.21875 41.21875 52.203125 
Q 41.21875 57.421875 37.46875 61 
Q 33.734375 64.59375 27.734375 64.59375 
Q 21.390625 64.59375 17.578125 60.78125 
Q 13.765625 56.984375 13.71875 50.25 
L 4.6875 51.171875 
Q 5.609375 61.28125 11.65625 66.578125 
Q 17.71875 71.875 27.9375 71.875 
Q 38.234375 71.875 44.234375 66.15625 
Q 50.25 60.453125 50.25 52 
Q 50.25 47.703125 48.484375 43.546875 
Q 46.734375 39.40625 42.65625 34.8125 
Q 38.578125 30.21875 29.109375 22.21875 
Q 21.1875 15.578125 18.9375 13.203125 
Q 16.703125 10.84375 15.234375 8.453125 
z
" id="ArialMT-32"/>
       <path d="M 4.734375 62.203125 
L 4.734375 70.65625 
L 51.078125 70.65625 
L 51.078125 63.8125 
Q 44.234375 56.546875 37.515625 44.484375 
Q 30.8125 32.421875 27.15625 19.671875 
Q 24.515625 10.6875 23.78125 0 
L 14.75 0 
Q 14.890625 8.453125 18.0625 20.40625 
Q 21.234375 32.375 27.171875 43.484375 
Q 33.109375 54.59375 39.796875 62.203125 
z
" id="ArialMT-37"/>
      </defs>
      <g style="fill:#262626;" transform="translate(61.478125 266.1578125)scale(0.1 -0.1)">
       <use xlink:href="#ArialMT-32"/>
       <use x="55.615234375" xlink:href="#ArialMT-30"/>
       <use x="111.23046875" xlink:href="#ArialMT-30"/>
       <use x="166.845703125" xlink:href="#ArialMT-37"/>
      </g>
     </g>
    </g>
    <g id="xtick_2">
     <g id="line2d_3"/>
     <g id="line2d_4"/>
     <g id="text_2">
      <!-- 2008 -->
      <defs>
       <path d="M 17.671875 38.8125 
Q 12.203125 40.828125 9.5625 44.53125 
Q 6.9375 48.25 6.9375 53.421875 
Q 6.9375 61.234375 12.546875 66.546875 
Q 18.171875 71.875 27.484375 71.875 
Q 36.859375 71.875 42.578125 66.421875 
Q 48.296875 60.984375 48.296875 53.171875 
Q 48.296875 48.1875 45.671875 44.5 
Q 43.0625 40.828125 37.75 38.8125 
Q 44.34375 36.671875 47.78125 31.875 
Q 51.21875 27.09375 51.21875 20.453125 
Q 51.21875 11.28125 44.71875 5.03125 
Q 38.234375 -1.21875 27.640625 -1.21875 
Q 17.046875 -1.21875 10.546875 5.046875 
Q 4.046875 11.328125 4.046875 20.703125 
Q 4.046875 27.6875 7.59375 32.390625 
Q 11.140625 37.109375 17.671875 38.8125 
M 15.921875 53.71875 
Q 15.921875 48.640625 19.1875 45.40625 
Q 22.46875 42.1875 27.6875 42.1875 
Q 32.765625 42.1875 36.015625 45.375 
Q 39.265625 48.578125 39.265625 53.21875 
Q 39.265625 58.0625 35.90625 61.359375 
Q 32.5625 64.65625 27.59375 64.65625 
Q 22.5625 64.65625 19.234375 61.421875 
Q 15.921875 58.203125 15.921875 53.71875 
M 13.09375 20.65625 
Q 13.09375 16.890625 14.875 13.375 
Q 16.65625 9.859375 20.171875 7.921875 
Q 23.6875 6 27.734375 6 
Q 34.03125 6 38.125 10.046875 
Q 42.234375 14.109375 42.234375 20.359375 
Q 42.234375 26.703125 38.015625 30.859375 
Q 33.796875 35.015625 27.4375 35.015625 
Q 21.234375 35.015625 17.15625 30.90625 
Q 13.09375 26.8125 13.09375 20.65625 
" id="ArialMT-38"/>
      </defs>
      <g style="fill:#262626;" transform="translate(98.678125 266.1578125)scale(0.1 -0.1)">
       <use xlink:href="#ArialMT-32"/>
       <use x="55.615234375" xlink:href="#ArialMT-30"/>
       <use x="111.23046875" xlink:href="#ArialMT-30"/>
       <use x="166.845703125" xlink:href="#ArialMT-38"/>
      </g>
     </g>
    </g>
    <g id="xtick_3">
     <g id="line2d_5"/>
     <g id="line2d_6"/>
     <g id="text_3">
      <!-- 2009 -->
      <defs>
       <path d="M 5.46875 16.546875 
L 13.921875 17.328125 
Q 14.984375 11.375 18.015625 8.6875 
Q 21.046875 6 25.78125 6 
Q 29.828125 6 32.875 7.859375 
Q 35.9375 9.71875 37.890625 12.8125 
Q 39.84375 15.921875 41.15625 21.1875 
Q 42.484375 26.46875 42.484375 31.9375 
Q 42.484375 32.515625 42.4375 33.6875 
Q 39.796875 29.5 35.234375 26.875 
Q 30.671875 24.265625 25.34375 24.265625 
Q 16.453125 24.265625 10.296875 30.703125 
Q 4.15625 37.15625 4.15625 47.703125 
Q 4.15625 58.59375 10.578125 65.234375 
Q 17 71.875 26.65625 71.875 
Q 33.640625 71.875 39.421875 68.109375 
Q 45.21875 64.359375 48.21875 57.390625 
Q 51.21875 50.4375 51.21875 37.25 
Q 51.21875 23.53125 48.234375 15.40625 
Q 45.265625 7.28125 39.375 3.03125 
Q 33.5 -1.21875 25.59375 -1.21875 
Q 17.1875 -1.21875 11.859375 3.4375 
Q 6.546875 8.109375 5.46875 16.546875 
M 41.453125 48.140625 
Q 41.453125 55.71875 37.421875 60.15625 
Q 33.40625 64.59375 27.734375 64.59375 
Q 21.875 64.59375 17.53125 59.8125 
Q 13.1875 55.03125 13.1875 47.40625 
Q 13.1875 40.578125 17.3125 36.296875 
Q 21.4375 32.03125 27.484375 32.03125 
Q 33.59375 32.03125 37.515625 36.296875 
Q 41.453125 40.578125 41.453125 48.140625 
" id="ArialMT-39"/>
      </defs>
      <g style="fill:#262626;" transform="translate(135.878125 266.1578125)scale(0.1 -0.1)">
       <use xlink:href="#ArialMT-32"/>
       <use x="55.615234375" xlink:href="#ArialMT-30"/>
       <use x="111.23046875" xlink:href="#ArialMT-30"/>
       <use x="166.845703125" xlink:href="#ArialMT-39"/>
      </g>
     </g>
    </g>
    <g id="xtick_4">
     <g id="line2d_7"/>
     <g id="line2d_8"/>
     <g id="text_4">
      <!-- 2010 -->
      <defs>
       <path d="M 37.25 0 
L 28.46875 0 
L 28.46875 56 
Q 25.296875 52.984375 20.140625 49.953125 
Q 14.984375 46.921875 10.890625 45.40625 
L 10.890625 53.90625 
Q 18.265625 57.375 23.78125 62.296875 
Q 29.296875 67.234375 31.59375 71.875 
L 37.25 71.875 
z
" id="ArialMT-31"/>
      </defs>
      <g style="fill:#262626;" transform="translate(173.078125 266.1578125)scale(0.1 -0.1)">
       <use xlink:href="#ArialMT-32"/>
       <use x="55.615234375" xlink:href="#ArialMT-30"/>
       <use x="111.23046875" xlink:href="#ArialMT-31"/>
       <use x="166.845703125" xlink:href="#ArialMT-30"/>
      </g>
     </g>
    </g>
    <g id="xtick_5">
     <g id="line2d_9"/>
     <g id="line2d_10"/>
     <g id="text_5">
      <!-- 2011 -->
      <g style="fill:#262626;" transform="translate(210.28359375 266.1578125)scale(0.1 -0.1)">
       <use xlink:href="#ArialMT-32"/>
       <use x="55.615234375" xlink:href="#ArialMT-30"/>
       <use x="111.23046875" xlink:href="#ArialMT-31"/>
       <use x="166.736328125" xlink:href="#ArialMT-31"/>
      </g>
     </g>
    </g>
    <g id="xtick_6">
     <g id="line2d_11"/>
     <g id="line2d_12"/>
     <g id="text_6">
      <!-- 2012 -->
      <g style="fill:#262626;" transform="translate(247.478125 266.1578125)scale(0.1 -0.1)">
       <use xlink:href="#ArialMT-32"/>
       <use x="55.615234375" xlink:href="#ArialMT-30"/>
       <use x="111.23046875" xlink:href="#ArialMT-31"/>
       <use x="166.845703125" xlink:href="#ArialMT-32"/>
      </g>
     </g>
    </g>
    <g id="xtick_7">
     <g id="line2d_13"/>
     <g id="line2d_14"/>
     <g id="text_7">
      <!-- 2013 -->
      <defs>
       <path d="M 4.203125 18.890625 
L 12.984375 20.0625 
Q 14.5 12.59375 18.140625 9.296875 
Q 21.78125 6 27 6 
Q 33.203125 6 37.46875 10.296875 
Q 41.75 14.59375 41.75 20.953125 
Q 41.75 27 37.796875 30.921875 
Q 33.84375 34.859375 27.734375 34.859375 
Q 25.25 34.859375 21.53125 33.890625 
L 22.515625 41.609375 
Q 23.390625 41.5 23.921875 41.5 
Q 29.546875 41.5 34.03125 44.421875 
Q 38.53125 47.359375 38.53125 53.46875 
Q 38.53125 58.296875 35.25 61.46875 
Q 31.984375 64.65625 26.8125 64.65625 
Q 21.6875 64.65625 18.265625 61.421875 
Q 14.84375 58.203125 13.875 51.765625 
L 5.078125 53.328125 
Q 6.6875 62.15625 12.390625 67.015625 
Q 18.109375 71.875 26.609375 71.875 
Q 32.46875 71.875 37.390625 69.359375 
Q 42.328125 66.84375 44.9375 62.5 
Q 47.5625 58.15625 47.5625 53.265625 
Q 47.5625 48.640625 45.0625 44.828125 
Q 42.578125 41.015625 37.703125 38.765625 
Q 44.046875 37.3125 47.5625 32.6875 
Q 51.078125 28.078125 51.078125 21.140625 
Q 51.078125 11.765625 44.234375 5.25 
Q 37.40625 -1.265625 26.953125 -1.265625 
Q 17.53125 -1.265625 11.296875 4.34375 
Q 5.078125 9.96875 4.203125 18.890625 
" id="ArialMT-33"/>
      </defs>
      <g style="fill:#262626;" transform="translate(284.678125 266.1578125)scale(0.1 -0.1)">
       <use xlink:href="#ArialMT-32"/>
       <use x="55.615234375" xlink:href="#ArialMT-30"/>
       <use x="111.23046875" xlink:href="#ArialMT-31"/>
       <use x="166.845703125" xlink:href="#ArialMT-33"/>
      </g>
     </g>
    </g>
    <g id="xtick_8">
     <g id="line2d_15"/>
     <g id="line2d_16"/>
     <g id="text_8">
      <!-- 2014 -->
      <defs>
       <path d="M 32.328125 0 
L 32.328125 17.140625 
L 1.265625 17.140625 
L 1.265625 25.203125 
L 33.9375 71.578125 
L 41.109375 71.578125 
L 41.109375 25.203125 
L 50.78125 25.203125 
L 50.78125 17.140625 
L 41.109375 17.140625 
L 41.109375 0 
z
M 32.328125 25.203125 
L 32.328125 57.46875 
L 9.90625 25.203125 
z
" id="ArialMT-34"/>
      </defs>
      <g style="fill:#262626;" transform="translate(321.878125 266.1578125)scale(0.1 -0.1)">
       <use xlink:href="#ArialMT-32"/>
       <use x="55.615234375" xlink:href="#ArialMT-30"/>
       <use x="111.23046875" xlink:href="#ArialMT-31"/>
       <use x="166.845703125" xlink:href="#ArialMT-34"/>
      </g>
     </g>
    </g>
    <g id="xtick_9">
     <g id="line2d_17"/>
     <g id="line2d_18"/>
     <g id="text_9">
      <!-- 2015 -->
      <defs>
       <path d="M 4.15625 18.75 
L 13.375 19.53125 
Q 14.40625 12.796875 18.140625 9.390625 
Q 21.875 6 27.15625 6 
Q 33.5 6 37.890625 10.78125 
Q 42.28125 15.578125 42.28125 23.484375 
Q 42.28125 31 38.0625 35.34375 
Q 33.84375 39.703125 27 39.703125 
Q 22.75 39.703125 19.328125 37.765625 
Q 15.921875 35.84375 13.96875 32.765625 
L 5.71875 33.84375 
L 12.640625 70.609375 
L 48.25 70.609375 
L 48.25 62.203125 
L 19.671875 62.203125 
L 15.828125 42.96875 
Q 22.265625 47.46875 29.34375 47.46875 
Q 38.71875 47.46875 45.15625 40.96875 
Q 51.609375 34.46875 51.609375 24.265625 
Q 51.609375 14.546875 45.953125 7.46875 
Q 39.0625 -1.21875 27.15625 -1.21875 
Q 17.390625 -1.21875 11.203125 4.25 
Q 5.03125 9.71875 4.15625 18.75 
" id="ArialMT-35"/>
      </defs>
      <g style="fill:#262626;" transform="translate(359.078125 266.1578125)scale(0.1 -0.1)">
       <use xlink:href="#ArialMT-32"/>
       <use x="55.615234375" xlink:href="#ArialMT-30"/>
       <use x="111.23046875" xlink:href="#ArialMT-31"/>
       <use x="166.845703125" xlink:href="#ArialMT-35"/>
      </g>
     </g>
    </g>
    <g id="text_10">
     <!-- year -->
     <defs>
      <path d="M 6.5 0 
L 6.5 51.859375 
L 14.40625 51.859375 
L 14.40625 44 
Q 17.4375 49.515625 20 51.265625 
Q 22.5625 53.03125 25.640625 53.03125 
Q 30.078125 53.03125 34.671875 50.203125 
L 31.640625 42.046875 
Q 28.421875 43.953125 25.203125 43.953125 
Q 22.3125 43.953125 20.015625 42.21875 
Q 17.71875 40.484375 16.75 37.40625 
Q 15.28125 32.71875 15.28125 27.15625 
L 15.28125 0 
z
" id="ArialMT-72"/>
      <path d="M 40.4375 6.390625 
Q 35.546875 2.25 31.03125 0.53125 
Q 26.515625 -1.171875 21.34375 -1.171875 
Q 12.796875 -1.171875 8.203125 3 
Q 3.609375 7.171875 3.609375 13.671875 
Q 3.609375 17.484375 5.34375 20.625 
Q 7.078125 23.78125 9.890625 25.6875 
Q 12.703125 27.59375 16.21875 28.5625 
Q 18.796875 29.25 24.03125 29.890625 
Q 34.671875 31.15625 39.703125 32.90625 
Q 39.75 34.71875 39.75 35.203125 
Q 39.75 40.578125 37.25 42.78125 
Q 33.890625 45.75 27.25 45.75 
Q 21.046875 45.75 18.09375 43.578125 
Q 15.140625 41.40625 13.71875 35.890625 
L 5.125 37.0625 
Q 6.296875 42.578125 8.984375 45.96875 
Q 11.671875 49.359375 16.75 51.1875 
Q 21.828125 53.03125 28.515625 53.03125 
Q 35.15625 53.03125 39.296875 51.46875 
Q 43.453125 49.90625 45.40625 47.53125 
Q 47.359375 45.171875 48.140625 41.546875 
Q 48.578125 39.3125 48.578125 33.453125 
L 48.578125 21.734375 
Q 48.578125 9.46875 49.140625 6.21875 
Q 49.703125 2.984375 51.375 0 
L 42.1875 0 
Q 40.828125 2.734375 40.4375 6.390625 
M 39.703125 26.03125 
Q 34.90625 24.078125 25.34375 22.703125 
Q 19.921875 21.921875 17.671875 20.9375 
Q 15.4375 19.96875 14.203125 18.09375 
Q 12.984375 16.21875 12.984375 13.921875 
Q 12.984375 10.40625 15.640625 8.0625 
Q 18.3125 5.71875 23.4375 5.71875 
Q 28.515625 5.71875 32.46875 7.9375 
Q 36.421875 10.15625 38.28125 14.015625 
Q 39.703125 17 39.703125 22.796875 
z
" id="ArialMT-61"/>
      <path d="M 6.203125 -19.96875 
L 5.21875 -11.71875 
Q 8.109375 -12.5 10.25 -12.5 
Q 13.1875 -12.5 14.9375 -11.515625 
Q 16.703125 -10.546875 17.828125 -8.796875 
Q 18.65625 -7.46875 20.515625 -2.25 
Q 20.75 -1.515625 21.296875 -0.09375 
L 1.609375 51.859375 
L 11.078125 51.859375 
L 21.875 21.828125 
Q 23.96875 16.109375 25.640625 9.8125 
Q 27.15625 15.875 29.25 21.625 
L 40.328125 51.859375 
L 49.125 51.859375 
L 29.390625 -0.875 
Q 26.21875 -9.421875 24.46875 -12.640625 
Q 22.125 -17 19.09375 -19.015625 
Q 16.0625 -21.046875 11.859375 -21.046875 
Q 9.328125 -21.046875 6.203125 -19.96875 
" id="ArialMT-79"/>
      <path d="M 42.09375 16.703125 
L 51.171875 15.578125 
Q 49.03125 7.625 43.21875 3.21875 
Q 37.40625 -1.171875 28.375 -1.171875 
Q 17 -1.171875 10.328125 5.828125 
Q 3.65625 12.84375 3.65625 25.484375 
Q 3.65625 38.578125 10.390625 45.796875 
Q 17.140625 53.03125 27.875 53.03125 
Q 38.28125 53.03125 44.875 45.953125 
Q 51.46875 38.875 51.46875 26.03125 
Q 51.46875 25.25 51.421875 23.6875 
L 12.75 23.6875 
Q 13.234375 15.140625 17.578125 10.59375 
Q 21.921875 6.0625 28.421875 6.0625 
Q 33.25 6.0625 36.671875 8.59375 
Q 40.09375 11.140625 42.09375 16.703125 
M 13.234375 30.90625 
L 42.1875 30.90625 
Q 41.609375 37.453125 38.875 40.71875 
Q 34.671875 45.796875 27.984375 45.796875 
Q 21.921875 45.796875 17.796875 41.75 
Q 13.671875 37.703125 13.234375 30.90625 
" id="ArialMT-65"/>
     </defs>
     <g style="fill:#262626;" transform="translate(210.701640625 280.89)scale(0.11 -0.11)">
      <use xlink:href="#ArialMT-79"/>
      <use x="50.0" xlink:href="#ArialMT-65"/>
      <use x="105.615234375" xlink:href="#ArialMT-61"/>
      <use x="161.23046875" xlink:href="#ArialMT-72"/>
     </g>
    </g>
   </g>
   <g id="matplotlib.axis_2">
    <g id="ytick_1">
     <g id="line2d_19">
      <path clip-path="url(#p998102ce44)" d="M 54 252 
L 388.8 252 
" style="fill:none;stroke:#ffffff;stroke-linecap:round;"/>
     </g>
     <g id="line2d_20"/>
     <g id="line2d_21"/>
     <g id="text_11">
      <!-- −10 -->
      <defs>
       <path d="M 52.828125 31.203125 
L 5.5625 31.203125 
L 5.5625 39.40625 
L 52.828125 39.40625 
z
" id="ArialMT-2212"/>
      </defs>
      <g style="fill:#262626;" transform="translate(30.0375 254.58515625)scale(0.1 -0.1)">
       <use xlink:href="#ArialMT-2212"/>
       <use x="58.3984375" xlink:href="#ArialMT-31"/>
       <use x="114.013671875" xlink:href="#ArialMT-30"/>
      </g>
     </g>
    </g>
    <g id="ytick_2">
     <g id="line2d_22">
      <path clip-path="url(#p998102ce44)" d="M 54 214.8 
L 388.8 214.8 
" style="fill:none;stroke:#ffffff;stroke-linecap:round;"/>
     </g>
     <g id="line2d_23"/>
     <g id="line2d_24"/>
     <g id="text_12">
      <!-- 0 -->
      <g style="fill:#262626;" transform="translate(41.4390625 217.38515625)scale(0.1 -0.1)">
       <use xlink:href="#ArialMT-30"/>
      </g>
     </g>
    </g>
    <g id="ytick_3">
     <g id="line2d_25">
      <path clip-path="url(#p998102ce44)" d="M 54 177.6 
L 388.8 177.6 
" style="fill:none;stroke:#ffffff;stroke-linecap:round;"/>
     </g>
     <g id="line2d_26"/>
     <g id="line2d_27"/>
     <g id="text_13">
      <!-- 10 -->
      <g style="fill:#262626;" transform="translate(35.878125 180.18515625)scale(0.1 -0.1)">
       <use xlink:href="#ArialMT-31"/>
       <use x="55.615234375" xlink:href="#ArialMT-30"/>
      </g>
     </g>
    </g>
    <g id="ytick_4">
     <g id="line2d_28">
      <path clip-path="url(#p998102ce44)" d="M 54 140.4 
L 388.8 140.4 
" style="fill:none;stroke:#ffffff;stroke-linecap:round;"/>
     </g>
     <g id="line2d_29"/>
     <g id="line2d_30"/>
     <g id="text_14">
      <!-- 20 -->
      <g style="fill:#262626;" transform="translate(35.878125 142.98515625)scale(0.1 -0.1)">
       <use xlink:href="#ArialMT-32"/>
       <use x="55.615234375" xlink:href="#ArialMT-30"/>
      </g>
     </g>
    </g>
    <g id="ytick_5">
     <g id="line2d_31">
      <path clip-path="url(#p998102ce44)" d="M 54 103.2 
L 388.8 103.2 
" style="fill:none;stroke:#ffffff;stroke-linecap:round;"/>
     </g>
     <g id="line2d_32"/>
     <g id="line2d_33"/>
     <g id="text_15">
      <!-- 30 -->
      <g style="fill:#262626;" transform="translate(35.878125 105.78515625)scale(0.1 -0.1)">
       <use xlink:href="#ArialMT-33"/>
       <use x="55.615234375" xlink:href="#ArialMT-30"/>
      </g>
     </g>
    </g>
    <g id="ytick_6">
     <g id="line2d_34">
      <path clip-path="url(#p998102ce44)" d="M 54 66 
L 388.8 66 
" style="fill:none;stroke:#ffffff;stroke-linecap:round;"/>
     </g>
     <g id="line2d_35"/>
     <g id="line2d_36"/>
     <g id="text_16">
      <!-- 40 -->
      <g style="fill:#262626;" transform="translate(35.878125 68.58515625)scale(0.1 -0.1)">
       <use xlink:href="#ArialMT-34"/>
       <use x="55.615234375" xlink:href="#ArialMT-30"/>
      </g>
     </g>
    </g>
    <g id="ytick_7">
     <g id="line2d_37">
      <path clip-path="url(#p998102ce44)" d="M 54 28.8 
L 388.8 28.8 
" style="fill:none;stroke:#ffffff;stroke-linecap:round;"/>
     </g>
     <g id="line2d_38"/>
     <g id="line2d_39"/>
     <g id="text_17">
      <!-- 50 -->
      <g style="fill:#262626;" transform="translate(35.878125 31.38515625)scale(0.1 -0.1)">
       <use xlink:href="#ArialMT-35"/>
       <use x="55.615234375" xlink:href="#ArialMT-30"/>
      </g>
     </g>
    </g>
    <g id="text_18">
     <!-- Wind Output, % of Load -->
     <defs>
      <path d="M 8.6875 0 
L 8.6875 45.015625 
L 0.921875 45.015625 
L 0.921875 51.859375 
L 8.6875 51.859375 
L 8.6875 57.375 
Q 8.6875 62.59375 9.625 65.140625 
Q 10.890625 68.5625 14.078125 70.671875 
Q 17.28125 72.796875 23.046875 72.796875 
Q 26.765625 72.796875 31.25 71.921875 
L 29.9375 64.265625 
Q 27.203125 64.75 24.75 64.75 
Q 20.75 64.75 19.09375 63.03125 
Q 17.4375 61.328125 17.4375 56.640625 
L 17.4375 51.859375 
L 27.546875 51.859375 
L 27.546875 45.015625 
L 17.4375 45.015625 
L 17.4375 0 
z
" id="ArialMT-66"/>
      <path d="M 40.234375 0 
L 40.234375 6.546875 
Q 35.296875 -1.171875 25.734375 -1.171875 
Q 19.53125 -1.171875 14.328125 2.25 
Q 9.125 5.671875 6.265625 11.796875 
Q 3.421875 17.921875 3.421875 25.875 
Q 3.421875 33.640625 6 39.96875 
Q 8.59375 46.296875 13.765625 49.65625 
Q 18.953125 53.03125 25.34375 53.03125 
Q 30.03125 53.03125 33.6875 51.046875 
Q 37.359375 49.078125 39.65625 45.90625 
L 39.65625 71.578125 
L 48.390625 71.578125 
L 48.390625 0 
z
M 12.453125 25.875 
Q 12.453125 15.921875 16.640625 10.984375 
Q 20.84375 6.0625 26.5625 6.0625 
Q 32.328125 6.0625 36.34375 10.765625 
Q 40.375 15.484375 40.375 25.140625 
Q 40.375 35.796875 36.265625 40.765625 
Q 32.171875 45.75 26.171875 45.75 
Q 20.3125 45.75 16.375 40.96875 
Q 12.453125 36.1875 12.453125 25.875 
" id="ArialMT-64"/>
      <path d="M 25.78125 7.859375 
L 27.046875 0.09375 
Q 23.34375 -0.6875 20.40625 -0.6875 
Q 15.625 -0.6875 12.984375 0.828125 
Q 10.359375 2.34375 9.28125 4.8125 
Q 8.203125 7.28125 8.203125 15.1875 
L 8.203125 45.015625 
L 1.765625 45.015625 
L 1.765625 51.859375 
L 8.203125 51.859375 
L 8.203125 64.703125 
L 16.9375 69.96875 
L 16.9375 51.859375 
L 25.78125 51.859375 
L 25.78125 45.015625 
L 16.9375 45.015625 
L 16.9375 14.703125 
Q 16.9375 10.9375 17.40625 9.859375 
Q 17.875 8.796875 18.921875 8.15625 
Q 19.96875 7.515625 21.921875 7.515625 
Q 23.390625 7.515625 25.78125 7.859375 
" id="ArialMT-74"/>
      <path d="M 40.578125 0 
L 40.578125 7.625 
Q 34.515625 -1.171875 24.125 -1.171875 
Q 19.53125 -1.171875 15.546875 0.578125 
Q 11.578125 2.34375 9.640625 5 
Q 7.71875 7.671875 6.9375 11.53125 
Q 6.390625 14.109375 6.390625 19.734375 
L 6.390625 51.859375 
L 15.1875 51.859375 
L 15.1875 23.09375 
Q 15.1875 16.21875 15.71875 13.8125 
Q 16.546875 10.359375 19.234375 8.375 
Q 21.921875 6.390625 25.875 6.390625 
Q 29.828125 6.390625 33.296875 8.421875 
Q 36.765625 10.453125 38.203125 13.9375 
Q 39.65625 17.4375 39.65625 24.078125 
L 39.65625 51.859375 
L 48.4375 51.859375 
L 48.4375 0 
z
" id="ArialMT-75"/>
      <path d="M 6.640625 61.46875 
L 6.640625 71.578125 
L 15.4375 71.578125 
L 15.4375 61.46875 
z
M 6.640625 0 
L 6.640625 51.859375 
L 15.4375 51.859375 
L 15.4375 0 
z
" id="ArialMT-69"/>
      <path d="M 6.59375 -19.875 
L 6.59375 51.859375 
L 14.59375 51.859375 
L 14.59375 45.125 
Q 17.4375 49.078125 21 51.046875 
Q 24.5625 53.03125 29.640625 53.03125 
Q 36.28125 53.03125 41.359375 49.609375 
Q 46.4375 46.1875 49.015625 39.953125 
Q 51.609375 33.734375 51.609375 26.3125 
Q 51.609375 18.359375 48.75 11.984375 
Q 45.90625 5.609375 40.453125 2.21875 
Q 35.015625 -1.171875 29 -1.171875 
Q 24.609375 -1.171875 21.109375 0.6875 
Q 17.625 2.546875 15.375 5.375 
L 15.375 -19.875 
z
M 14.546875 25.640625 
Q 14.546875 15.625 18.59375 10.84375 
Q 22.65625 6.0625 28.421875 6.0625 
Q 34.28125 6.0625 38.453125 11.015625 
Q 42.625 15.96875 42.625 26.375 
Q 42.625 36.28125 38.546875 41.203125 
Q 34.46875 46.140625 28.8125 46.140625 
Q 23.1875 46.140625 18.859375 40.890625 
Q 14.546875 35.640625 14.546875 25.640625 
" id="ArialMT-70"/>
      <path d="M 20.21875 0 
L 1.21875 71.578125 
L 10.9375 71.578125 
L 21.828125 24.65625 
Q 23.578125 17.28125 24.859375 10.015625 
Q 27.59375 21.484375 28.078125 23.25 
L 41.703125 71.578125 
L 53.125 71.578125 
L 63.375 35.359375 
Q 67.234375 21.875 68.953125 10.015625 
Q 70.3125 16.796875 72.515625 25.59375 
L 83.734375 71.578125 
L 93.265625 71.578125 
L 73.640625 0 
L 64.5 0 
L 49.421875 54.546875 
Q 47.515625 61.375 47.171875 62.9375 
Q 46.046875 58.015625 45.0625 54.546875 
L 29.890625 0 
z
" id="ArialMT-57"/>
      <path d="M 3.328125 25.921875 
Q 3.328125 40.328125 11.328125 47.265625 
Q 18.015625 53.03125 27.640625 53.03125 
Q 38.328125 53.03125 45.109375 46.015625 
Q 51.90625 39.015625 51.90625 26.65625 
Q 51.90625 16.65625 48.90625 10.90625 
Q 45.90625 5.171875 40.15625 2 
Q 34.421875 -1.171875 27.640625 -1.171875 
Q 16.75 -1.171875 10.03125 5.8125 
Q 3.328125 12.796875 3.328125 25.921875 
M 12.359375 25.921875 
Q 12.359375 15.96875 16.703125 11.015625 
Q 21.046875 6.0625 27.640625 6.0625 
Q 34.1875 6.0625 38.53125 11.03125 
Q 42.875 16.015625 42.875 26.21875 
Q 42.875 35.84375 38.5 40.796875 
Q 34.125 45.75 27.640625 45.75 
Q 21.046875 45.75 16.703125 40.8125 
Q 12.359375 35.890625 12.359375 25.921875 
" id="ArialMT-6f"/>
      <path d="M 6.59375 0 
L 6.59375 51.859375 
L 14.5 51.859375 
L 14.5 44.484375 
Q 20.21875 53.03125 31 53.03125 
Q 35.6875 53.03125 39.625 51.34375 
Q 43.5625 49.65625 45.515625 46.921875 
Q 47.46875 44.1875 48.25 40.4375 
Q 48.734375 37.984375 48.734375 31.890625 
L 48.734375 0 
L 39.9375 0 
L 39.9375 31.546875 
Q 39.9375 36.921875 38.90625 39.578125 
Q 37.890625 42.234375 35.28125 43.8125 
Q 32.671875 45.40625 29.15625 45.40625 
Q 23.53125 45.40625 19.453125 41.84375 
Q 15.375 38.28125 15.375 28.328125 
L 15.375 0 
z
" id="ArialMT-6e"/>
      <path d="M 5.8125 54.390625 
Q 5.8125 62.0625 9.671875 67.421875 
Q 13.53125 72.796875 20.84375 72.796875 
Q 27.59375 72.796875 32 67.984375 
Q 36.421875 63.1875 36.421875 53.859375 
Q 36.421875 44.78125 31.953125 39.875 
Q 27.484375 34.96875 20.953125 34.96875 
Q 14.453125 34.96875 10.125 39.796875 
Q 5.8125 44.625 5.8125 54.390625 
M 21.09375 66.75 
Q 17.828125 66.75 15.65625 63.90625 
Q 13.484375 61.078125 13.484375 53.515625 
Q 13.484375 46.625 15.671875 43.8125 
Q 17.875 41.015625 21.09375 41.015625 
Q 24.421875 41.015625 26.59375 43.84375 
Q 28.765625 46.6875 28.765625 54.203125 
Q 28.765625 61.140625 26.5625 63.9375 
Q 24.359375 66.75 21.09375 66.75 
M 21.140625 -2.640625 
L 60.296875 72.796875 
L 67.4375 72.796875 
L 28.421875 -2.640625 
z
M 52.09375 16.796875 
Q 52.09375 24.515625 55.953125 29.859375 
Q 59.8125 35.203125 67.1875 35.203125 
Q 73.921875 35.203125 78.34375 30.390625 
Q 82.765625 25.59375 82.765625 16.265625 
Q 82.765625 7.171875 78.296875 2.265625 
Q 73.828125 -2.640625 67.234375 -2.640625 
Q 60.75 -2.640625 56.421875 2.21875 
Q 52.09375 7.078125 52.09375 16.796875 
M 67.4375 29.15625 
Q 64.109375 29.15625 61.9375 26.3125 
Q 59.765625 23.484375 59.765625 15.921875 
Q 59.765625 9.078125 61.953125 6.25 
Q 64.15625 3.421875 67.390625 3.421875 
Q 70.75 3.421875 72.921875 6.25 
Q 75.09375 9.078125 75.09375 16.609375 
Q 75.09375 23.53125 72.890625 26.34375 
Q 70.703125 29.15625 67.4375 29.15625 
" id="ArialMT-25"/>
      <path id="ArialMT-20"/>
      <path d="M 8.890625 0 
L 8.890625 10.015625 
L 18.890625 10.015625 
L 18.890625 0 
Q 18.890625 -5.515625 16.9375 -8.90625 
Q 14.984375 -12.3125 10.75 -14.15625 
L 8.296875 -10.40625 
Q 11.078125 -9.1875 12.390625 -6.8125 
Q 13.71875 -4.4375 13.875 0 
z
" id="ArialMT-2c"/>
      <path d="M 7.328125 0 
L 7.328125 71.578125 
L 16.796875 71.578125 
L 16.796875 8.453125 
L 52.046875 8.453125 
L 52.046875 0 
z
" id="ArialMT-4c"/>
      <path d="M 4.828125 34.859375 
Q 4.828125 52.6875 14.390625 62.765625 
Q 23.96875 72.859375 39.109375 72.859375 
Q 49.03125 72.859375 56.984375 68.109375 
Q 64.9375 63.375 69.109375 54.90625 
Q 73.296875 46.4375 73.296875 35.6875 
Q 73.296875 24.8125 68.890625 16.21875 
Q 64.5 7.625 56.4375 3.203125 
Q 48.390625 -1.21875 39.0625 -1.21875 
Q 28.953125 -1.21875 20.984375 3.65625 
Q 13.03125 8.546875 8.921875 16.984375 
Q 4.828125 25.4375 4.828125 34.859375 
M 14.59375 34.71875 
Q 14.59375 21.78125 21.546875 14.328125 
Q 28.515625 6.890625 39.015625 6.890625 
Q 49.703125 6.890625 56.609375 14.40625 
Q 63.53125 21.921875 63.53125 35.75 
Q 63.53125 44.484375 60.578125 51 
Q 57.625 57.515625 51.921875 61.109375 
Q 46.234375 64.703125 39.15625 64.703125 
Q 29.109375 64.703125 21.84375 57.78125 
Q 14.59375 50.875 14.59375 34.71875 
" id="ArialMT-4f"/>
     </defs>
     <g style="fill:#262626;" transform="translate(22.85125 198.79109375)rotate(-90.0)scale(0.11 -0.11)">
      <use xlink:href="#ArialMT-57"/>
      <use x="94.384765625" xlink:href="#ArialMT-69"/>
      <use x="116.6015625" xlink:href="#ArialMT-6e"/>
      <use x="172.216796875" xlink:href="#ArialMT-64"/>
      <use x="227.83203125" xlink:href="#ArialMT-20"/>
      <use x="255.615234375" xlink:href="#ArialMT-4f"/>
      <use x="333.3984375" xlink:href="#ArialMT-75"/>
      <use x="389.013671875" xlink:href="#ArialMT-74"/>
      <use x="416.796875" xlink:href="#ArialMT-70"/>
      <use x="472.412109375" xlink:href="#ArialMT-75"/>
      <use x="528.02734375" xlink:href="#ArialMT-74"/>
      <use x="555.810546875" xlink:href="#ArialMT-2c"/>
      <use x="583.59375" xlink:href="#ArialMT-20"/>
      <use x="611.376953125" xlink:href="#ArialMT-25"/>
      <use x="700.29296875" xlink:href="#ArialMT-20"/>
      <use x="728.076171875" xlink:href="#ArialMT-6f"/>
      <use x="783.69140625" xlink:href="#ArialMT-66"/>
      <use x="811.474609375" xlink:href="#ArialMT-20"/>
      <use x="839.2578125" xlink:href="#ArialMT-4c"/>
      <use x="894.873046875" xlink:href="#ArialMT-6f"/>
      <use x="950.48828125" xlink:href="#ArialMT-61"/>
      <use x="1006.10351562" xlink:href="#ArialMT-64"/>
     </g>
    </g>
   </g>
   <g id="PolyCollection_1">
    <defs>
     <path d="M 83.199398 -73.1528 
L 62.000602 -73.1528 
L 60.108177 -73.626373 
L 58.714471 -74.099946 
L 57.925345 -74.573518 
L 57.72 -75.047091 
L 57.9805 -75.520664 
L 58.545348 -75.994237 
L 59.260563 -76.467809 
L 60.010922 -76.941382 
L 60.728309 -77.414955 
L 61.38398 -77.888528 
L 61.974176 -78.362101 
L 62.506414 -78.835673 
L 62.990244 -79.309246 
L 63.433046 -79.782819 
L 63.839309 -80.256392 
L 64.211164 -80.729965 
L 64.548794 -81.203537 
L 64.850715 -81.67711 
L 65.114783 -82.150683 
L 65.340359 -82.624256 
L 65.530966 -83.097828 
L 65.695817 -83.571401 
L 65.848788 -84.044974 
L 66.004649 -84.518547 
L 66.174089 -84.99212 
L 66.359973 -85.465692 
L 66.556682 -85.939265 
L 66.752651 -86.412838 
L 66.934573 -86.886411 
L 67.091235 -87.359984 
L 67.215752 -87.833556 
L 67.306159 -88.307129 
L 67.365071 -88.780702 
L 67.399067 -89.254275 
L 67.41797 -89.727847 
L 67.433781 -90.20142 
L 67.458997 -90.674993 
L 67.504482 -91.148566 
L 67.577522 -91.622139 
L 67.680758 -92.095711 
L 67.812258 -92.569284 
L 67.96637 -93.042857 
L 68.134772 -93.51643 
L 68.307506 -93.990003 
L 68.474259 -94.463575 
L 68.626178 -94.937148 
L 68.757954 -95.410721 
L 68.869305 -95.884294 
L 68.964977 -96.357866 
L 69.053063 -96.831439 
L 69.142361 -97.305012 
L 69.239987 -97.778585 
L 69.350179 -98.252158 
L 69.474485 -98.72573 
L 69.612813 -99.199303 
L 69.764514 -99.672876 
L 69.92888 -100.146449 
L 70.104843 -100.620022 
L 70.290201 -101.093594 
L 70.480883 -101.567167 
L 70.670777 -102.04074 
L 70.852333 -102.514313 
L 71.017875 -102.987885 
L 71.161256 -103.461458 
L 71.279392 -103.935031 
L 71.373126 -104.408604 
L 71.447091 -104.882177 
L 71.508488 -105.355749 
L 71.565123 -105.829322 
L 71.623279 -106.302895 
L 71.686147 -106.776468 
L 71.753351 -107.250041 
L 71.821778 -107.723613 
L 71.887369 -108.197186 
L 71.947023 -108.670759 
L 71.999724 -109.144332 
L 72.046401 -109.617904 
L 72.088761 -110.091477 
L 72.127945 -110.56505 
L 72.163842 -111.038623 
L 72.195412 -111.512196 
L 72.221704 -111.985768 
L 72.24284 -112.459341 
L 72.26034 -112.932914 
L 72.27657 -113.406487 
L 72.293653 -113.88006 
L 72.312487 -114.353632 
L 72.332457 -114.827205 
L 72.352044 -115.300778 
L 72.369954 -115.774351 
L 72.386073 -116.247923 
L 72.401664 -116.721496 
L 72.418683 -117.195069 
L 72.43868 -117.668642 
L 72.46193 -118.142215 
L 72.487267 -118.615787 
L 72.512608 -119.08936 
L 72.535785 -119.562933 
L 72.55525 -120.036506 
L 72.64475 -120.036506 
L 72.64475 -120.036506 
L 72.664215 -119.562933 
L 72.687392 -119.08936 
L 72.712733 -118.615787 
L 72.73807 -118.142215 
L 72.76132 -117.668642 
L 72.781317 -117.195069 
L 72.798336 -116.721496 
L 72.813927 -116.247923 
L 72.830046 -115.774351 
L 72.847956 -115.300778 
L 72.867543 -114.827205 
L 72.887513 -114.353632 
L 72.906347 -113.88006 
L 72.92343 -113.406487 
L 72.93966 -112.932914 
L 72.95716 -112.459341 
L 72.978296 -111.985768 
L 73.004588 -111.512196 
L 73.036158 -111.038623 
L 73.072055 -110.56505 
L 73.111239 -110.091477 
L 73.153599 -109.617904 
L 73.200276 -109.144332 
L 73.252977 -108.670759 
L 73.312631 -108.197186 
L 73.378222 -107.723613 
L 73.446649 -107.250041 
L 73.513853 -106.776468 
L 73.576721 -106.302895 
L 73.634877 -105.829322 
L 73.691512 -105.355749 
L 73.752909 -104.882177 
L 73.826874 -104.408604 
L 73.920608 -103.935031 
L 74.038744 -103.461458 
L 74.182125 -102.987885 
L 74.347667 -102.514313 
L 74.529223 -102.04074 
L 74.719117 -101.567167 
L 74.909799 -101.093594 
L 75.095157 -100.620022 
L 75.27112 -100.146449 
L 75.435486 -99.672876 
L 75.587187 -99.199303 
L 75.725515 -98.72573 
L 75.849821 -98.252158 
L 75.960013 -97.778585 
L 76.057639 -97.305012 
L 76.146937 -96.831439 
L 76.235023 -96.357866 
L 76.330695 -95.884294 
L 76.442046 -95.410721 
L 76.573822 -94.937148 
L 76.725741 -94.463575 
L 76.892494 -93.990003 
L 77.065228 -93.51643 
L 77.23363 -93.042857 
L 77.387742 -92.569284 
L 77.519242 -92.095711 
L 77.622478 -91.622139 
L 77.695518 -91.148566 
L 77.741003 -90.674993 
L 77.766219 -90.20142 
L 77.78203 -89.727847 
L 77.800933 -89.254275 
L 77.834929 -88.780702 
L 77.893841 -88.307129 
L 77.984248 -87.833556 
L 78.108765 -87.359984 
L 78.265427 -86.886411 
L 78.447349 -86.412838 
L 78.643318 -85.939265 
L 78.840027 -85.465692 
L 79.025911 -84.99212 
L 79.195351 -84.518547 
L 79.351212 -84.044974 
L 79.504183 -83.571401 
L 79.669034 -83.097828 
L 79.859641 -82.624256 
L 80.085217 -82.150683 
L 80.349285 -81.67711 
L 80.651206 -81.203537 
L 80.988836 -80.729965 
L 81.360691 -80.256392 
L 81.766954 -79.782819 
L 82.209756 -79.309246 
L 82.693586 -78.835673 
L 83.225824 -78.362101 
L 83.81602 -77.888528 
L 84.471691 -77.414955 
L 85.189078 -76.941382 
L 85.939437 -76.467809 
L 86.654652 -75.994237 
L 87.2195 -75.520664 
L 87.48 -75.047091 
L 87.274655 -74.573518 
L 86.485529 -74.099946 
L 85.091823 -73.626373 
L 83.199398 -73.1528 
z
" id="m5e040024ad" style="stroke:#464646;stroke-width:1.25;"/>
    </defs>
    <g clip-path="url(#p998102ce44)">
     <use style="fill:#ea96a3;stroke:#464646;stroke-width:1.25;" x="0.0" xlink:href="#m5e040024ad" y="288.0"/>
    </g>
   </g>
   <g id="PolyCollection_2">
    <defs>
     <path d="M 114.975637 -73.097995 
L 104.624363 -73.097995 
L 103.72608 -73.753843 
L 103.021055 -74.409692 
L 102.564633 -75.06554 
L 102.365645 -75.721388 
L 102.390143 -76.377236 
L 102.576769 -77.033085 
L 102.856634 -77.688933 
L 103.170219 -78.344781 
L 103.476747 -79.000629 
L 103.755396 -79.656478 
L 104.000752 -80.312326 
L 104.215986 -80.968174 
L 104.406706 -81.624023 
L 104.577058 -82.279871 
L 104.728314 -82.935719 
L 104.859335 -83.591567 
L 104.968044 -84.247416 
L 105.0531 -84.903264 
L 105.115229 -85.559112 
L 105.157824 -86.21496 
L 105.186691 -86.870809 
L 105.209007 -87.526657 
L 105.231832 -88.182505 
L 105.260589 -88.838354 
L 105.297929 -89.494202 
L 105.343229 -90.15005 
L 105.392808 -90.805898 
L 105.440804 -91.461747 
L 105.480554 -92.117595 
L 105.50619 -92.773443 
L 105.514126 -93.429291 
L 105.504084 -94.08514 
L 105.47939 -94.740988 
L 105.446401 -95.396836 
L 105.413144 -96.052684 
L 105.387462 -96.708533 
L 105.375169 -97.364381 
L 105.378794 -98.020229 
L 105.397311 -98.676078 
L 105.426916 -99.331926 
L 105.462468 -99.987774 
L 105.499045 -100.643622 
L 105.533126 -101.299471 
L 105.563223 -101.955319 
L 105.590029 -102.611167 
L 105.616278 -103.267015 
L 105.646346 -103.922864 
L 105.685533 -104.578712 
L 105.738996 -105.23456 
L 105.810505 -105.890408 
L 105.901417 -106.546257 
L 106.010329 -107.202105 
L 106.133584 -107.857953 
L 106.266491 -108.513802 
L 106.404751 -109.16965 
L 106.545531 -109.825498 
L 106.687815 -110.481346 
L 106.831982 -111.137195 
L 106.978878 -111.793043 
L 107.128782 -112.448891 
L 107.28068 -113.104739 
L 107.432105 -113.760588 
L 107.579603 -114.416436 
L 107.719665 -115.072284 
L 107.849802 -115.728132 
L 107.969339 -116.383981 
L 108.079559 -117.039829 
L 108.183076 -117.695677 
L 108.282634 -118.351526 
L 108.379851 -119.007374 
L 108.474514 -119.663222 
L 108.564806 -120.31907 
L 108.648389 -120.974919 
L 108.723781 -121.630767 
L 108.791307 -122.286615 
L 108.853098 -122.942463 
L 108.912166 -123.598312 
L 108.971057 -124.25416 
L 109.030786 -124.910008 
L 109.090554 -125.565857 
L 109.14832 -126.221705 
L 109.201882 -126.877553 
L 109.249931 -127.533401 
L 109.292618 -128.18925 
L 109.331435 -128.845098 
L 109.368551 -129.500946 
L 109.405932 -130.156794 
L 109.444645 -130.812643 
L 109.484585 -131.468491 
L 109.524661 -132.124339 
L 109.563294 -132.780187 
L 109.598972 -133.436036 
L 109.630677 -134.091884 
L 109.658066 -134.747732 
L 109.68141 -135.403581 
L 109.701373 -136.059429 
L 109.718727 -136.715277 
L 109.734108 -137.371125 
L 109.747879 -138.026974 
L 109.852121 -138.026974 
L 109.852121 -138.026974 
L 109.865892 -137.371125 
L 109.881273 -136.715277 
L 109.898627 -136.059429 
L 109.91859 -135.403581 
L 109.941934 -134.747732 
L 109.969323 -134.091884 
L 110.001028 -133.436036 
L 110.036706 -132.780187 
L 110.075339 -132.124339 
L 110.115415 -131.468491 
L 110.155355 -130.812643 
L 110.194068 -130.156794 
L 110.231449 -129.500946 
L 110.268565 -128.845098 
L 110.307382 -128.18925 
L 110.350069 -127.533401 
L 110.398118 -126.877553 
L 110.45168 -126.221705 
L 110.509446 -125.565857 
L 110.569214 -124.910008 
L 110.628943 -124.25416 
L 110.687834 -123.598312 
L 110.746902 -122.942463 
L 110.808693 -122.286615 
L 110.876219 -121.630767 
L 110.951611 -120.974919 
L 111.035194 -120.31907 
L 111.125486 -119.663222 
L 111.220149 -119.007374 
L 111.317366 -118.351526 
L 111.416924 -117.695677 
L 111.520441 -117.039829 
L 111.630661 -116.383981 
L 111.750198 -115.728132 
L 111.880335 -115.072284 
L 112.020397 -114.416436 
L 112.167895 -113.760588 
L 112.31932 -113.104739 
L 112.471218 -112.448891 
L 112.621122 -111.793043 
L 112.768018 -111.137195 
L 112.912185 -110.481346 
L 113.054469 -109.825498 
L 113.195249 -109.16965 
L 113.333509 -108.513802 
L 113.466416 -107.857953 
L 113.589671 -107.202105 
L 113.698583 -106.546257 
L 113.789495 -105.890408 
L 113.861004 -105.23456 
L 113.914467 -104.578712 
L 113.953654 -103.922864 
L 113.983722 -103.267015 
L 114.009971 -102.611167 
L 114.036777 -101.955319 
L 114.066874 -101.299471 
L 114.100955 -100.643622 
L 114.137532 -99.987774 
L 114.173084 -99.331926 
L 114.202689 -98.676078 
L 114.221206 -98.020229 
L 114.224831 -97.364381 
L 114.212538 -96.708533 
L 114.186856 -96.052684 
L 114.153599 -95.396836 
L 114.12061 -94.740988 
L 114.095916 -94.08514 
L 114.085874 -93.429291 
L 114.09381 -92.773443 
L 114.119446 -92.117595 
L 114.159196 -91.461747 
L 114.207192 -90.805898 
L 114.256771 -90.15005 
L 114.302071 -89.494202 
L 114.339411 -88.838354 
L 114.368168 -88.182505 
L 114.390993 -87.526657 
L 114.413309 -86.870809 
L 114.442176 -86.21496 
L 114.484771 -85.559112 
L 114.5469 -84.903264 
L 114.631956 -84.247416 
L 114.740665 -83.591567 
L 114.871686 -82.935719 
L 115.022942 -82.279871 
L 115.193294 -81.624023 
L 115.384014 -80.968174 
L 115.599248 -80.312326 
L 115.844604 -79.656478 
L 116.123253 -79.000629 
L 116.429781 -78.344781 
L 116.743366 -77.688933 
L 117.023231 -77.033085 
L 117.209857 -76.377236 
L 117.234355 -75.721388 
L 117.035367 -75.06554 
L 116.578945 -74.409692 
L 115.87392 -73.753843 
L 114.975637 -73.097995 
z
" id="m03b3ae584e" style="stroke:#464646;stroke-width:1.25;"/>
    </defs>
    <g clip-path="url(#p998102ce44)">
     <use style="fill:#d1964d;stroke:#464646;stroke-width:1.25;" x="0.0" xlink:href="#m03b3ae584e" y="288.0"/>
    </g>
   </g>
   <g id="PolyCollection_3">
    <defs>
     <path d="M 149.398302 -73.336487 
L 144.601698 -73.336487 
L 143.759535 -74.258287 
L 142.917179 -75.180088 
L 142.168103 -76.101889 
L 141.584581 -77.023689 
L 141.199394 -77.94549 
L 141.002504 -78.867291 
L 140.952449 -79.789092 
L 140.99608 -80.710892 
L 141.087558 -81.632693 
L 141.199116 -82.554494 
L 141.321071 -83.476294 
L 141.454225 -84.398095 
L 141.600769 -85.319896 
L 141.75877 -86.241697 
L 141.921669 -87.163497 
L 142.080989 -88.085298 
L 142.229467 -89.007099 
L 142.362876 -89.928899 
L 142.48017 -90.8507 
L 142.582322 -91.772501 
L 142.670525 -92.694302 
L 142.744826 -93.616102 
L 142.804388 -94.537903 
L 142.849639 -95.459704 
L 142.884765 -96.381504 
L 142.917938 -97.303305 
L 142.957916 -98.225106 
L 143.0088 -99.146906 
L 143.066994 -100.068707 
L 143.123433 -100.990508 
L 143.170125 -101.912309 
L 143.206398 -102.834109 
L 143.240228 -103.75591 
L 143.283715 -104.677711 
L 143.346208 -105.599511 
L 143.42984 -106.521312 
L 143.529714 -107.443113 
L 143.637196 -108.364914 
L 143.743341 -109.286714 
L 143.840967 -110.208515 
L 143.925947 -111.130316 
L 143.998488 -112.052116 
L 144.063803 -112.973917 
L 144.130953 -113.895718 
L 144.209753 -114.817519 
L 144.307216 -115.739319 
L 144.425371 -116.66112 
L 144.561135 -117.582921 
L 144.707684 -118.504721 
L 144.856494 -119.426522 
L 144.999531 -120.348323 
L 145.131227 -121.270124 
L 145.249653 -122.191924 
L 145.356311 -123.113725 
L 145.454573 -124.035526 
L 145.547625 -124.957326 
L 145.637073 -125.879127 
L 145.72291 -126.800928 
L 145.804563 -127.722728 
L 145.882064 -128.644529 
L 145.956423 -129.56633 
L 146.029024 -130.488131 
L 146.100697 -131.409931 
L 146.171334 -132.331732 
L 146.240277 -133.253533 
L 146.306963 -134.175333 
L 146.371145 -135.097134 
L 146.432608 -136.018935 
L 146.490797 -136.940736 
L 146.544808 -137.862536 
L 146.593722 -138.784337 
L 146.636964 -139.706138 
L 146.674454 -140.627938 
L 146.706606 -141.549739 
L 146.734318 -142.47154 
L 146.758912 -143.393341 
L 146.781897 -144.315141 
L 146.8045 -145.236942 
L 146.827229 -146.158743 
L 146.849765 -147.080543 
L 146.87132 -148.002344 
L 146.89119 -148.924145 
L 146.909109 -149.845946 
L 146.925212 -150.767746 
L 146.939726 -151.689547 
L 146.952672 -152.611348 
L 146.963806 -153.533148 
L 146.972761 -154.454949 
L 146.979291 -155.37675 
L 146.983448 -156.298551 
L 146.985619 -157.220351 
L 146.986428 -158.142152 
L 146.986573 -159.063953 
L 146.986654 -159.985753 
L 146.987057 -160.907554 
L 146.987925 -161.829355 
L 146.989216 -162.751155 
L 146.990793 -163.672956 
L 146.992507 -164.594757 
L 147.007493 -164.594757 
L 147.007493 -164.594757 
L 147.009207 -163.672956 
L 147.010784 -162.751155 
L 147.012075 -161.829355 
L 147.012943 -160.907554 
L 147.013346 -159.985753 
L 147.013427 -159.063953 
L 147.013572 -158.142152 
L 147.014381 -157.220351 
L 147.016552 -156.298551 
L 147.020709 -155.37675 
L 147.027239 -154.454949 
L 147.036194 -153.533148 
L 147.047328 -152.611348 
L 147.060274 -151.689547 
L 147.074788 -150.767746 
L 147.090891 -149.845946 
L 147.10881 -148.924145 
L 147.12868 -148.002344 
L 147.150235 -147.080543 
L 147.172771 -146.158743 
L 147.1955 -145.236942 
L 147.218103 -144.315141 
L 147.241088 -143.393341 
L 147.265682 -142.47154 
L 147.293394 -141.549739 
L 147.325546 -140.627938 
L 147.363036 -139.706138 
L 147.406278 -138.784337 
L 147.455192 -137.862536 
L 147.509203 -136.940736 
L 147.567392 -136.018935 
L 147.628855 -135.097134 
L 147.693037 -134.175333 
L 147.759723 -133.253533 
L 147.828666 -132.331732 
L 147.899303 -131.409931 
L 147.970976 -130.488131 
L 148.043577 -129.56633 
L 148.117936 -128.644529 
L 148.195437 -127.722728 
L 148.27709 -126.800928 
L 148.362927 -125.879127 
L 148.452375 -124.957326 
L 148.545427 -124.035526 
L 148.643689 -123.113725 
L 148.750347 -122.191924 
L 148.868773 -121.270124 
L 149.000469 -120.348323 
L 149.143506 -119.426522 
L 149.292316 -118.504721 
L 149.438865 -117.582921 
L 149.574629 -116.66112 
L 149.692784 -115.739319 
L 149.790247 -114.817519 
L 149.869047 -113.895718 
L 149.936197 -112.973917 
L 150.001512 -112.052116 
L 150.074053 -111.130316 
L 150.159033 -110.208515 
L 150.256659 -109.286714 
L 150.362804 -108.364914 
L 150.470286 -107.443113 
L 150.57016 -106.521312 
L 150.653792 -105.599511 
L 150.716285 -104.677711 
L 150.759772 -103.75591 
L 150.793602 -102.834109 
L 150.829875 -101.912309 
L 150.876567 -100.990508 
L 150.933006 -100.068707 
L 150.9912 -99.146906 
L 151.042084 -98.225106 
L 151.082062 -97.303305 
L 151.115235 -96.381504 
L 151.150361 -95.459704 
L 151.195612 -94.537903 
L 151.255174 -93.616102 
L 151.329475 -92.694302 
L 151.417678 -91.772501 
L 151.51983 -90.8507 
L 151.637124 -89.928899 
L 151.770533 -89.007099 
L 151.919011 -88.085298 
L 152.078331 -87.163497 
L 152.24123 -86.241697 
L 152.399231 -85.319896 
L 152.545775 -84.398095 
L 152.678929 -83.476294 
L 152.800884 -82.554494 
L 152.912442 -81.632693 
L 153.00392 -80.710892 
L 153.047551 -79.789092 
L 152.997496 -78.867291 
L 152.800606 -77.94549 
L 152.415419 -77.023689 
L 151.831897 -76.101889 
L 151.082821 -75.180088 
L 150.240465 -74.258287 
L 149.398302 -73.336487 
z
" id="mbfa9568329" style="stroke:#464646;stroke-width:1.25;"/>
    </defs>
    <g clip-path="url(#p998102ce44)">
     <use style="fill:#a29f46;stroke:#464646;stroke-width:1.25;" x="0.0" xlink:href="#mbfa9568329" y="288.0"/>
    </g>
   </g>
   <g id="PolyCollection_4">
    <defs>
     <path d="M 186.166845 -73.197626 
L 182.233155 -73.197626 
L 181.720564 -74.147809 
L 181.212676 -75.097992 
L 180.744971 -76.048175 
L 180.346168 -76.998358 
L 180.034141 -77.948541 
L 179.815043 -78.898724 
L 179.685109 -79.848907 
L 179.633778 -80.79909 
L 179.646778 -81.749274 
L 179.70841 -82.699457 
L 179.802972 -83.64964 
L 179.915629 -84.599823 
L 180.033076 -85.550006 
L 180.144191 -86.500189 
L 180.240674 -87.450372 
L 180.317615 -88.400555 
L 180.373859 -89.350738 
L 180.411941 -90.300921 
L 180.437449 -91.251104 
L 180.457755 -92.201287 
L 180.480379 -93.15147 
L 180.51141 -94.101653 
L 180.554476 -95.051836 
L 180.610459 -96.002019 
L 180.677888 -96.952202 
L 180.753717 -97.902385 
L 180.8342 -98.852568 
L 180.915679 -99.802752 
L 180.995185 -100.752935 
L 181.070753 -101.703118 
L 181.141361 -102.653301 
L 181.206524 -103.603484 
L 181.265772 -104.553667 
L 181.318352 -105.50385 
L 181.363365 -106.454033 
L 181.400261 -107.404216 
L 181.429322 -108.354399 
L 181.451739 -109.304582 
L 181.469206 -110.254765 
L 181.483304 -111.204948 
L 181.495103 -112.155131 
L 181.505269 -113.105314 
L 181.514517 -114.055497 
L 181.524021 -115.00568 
L 181.535405 -115.955863 
L 181.550271 -116.906046 
L 181.569574 -117.85623 
L 181.593274 -118.806413 
L 181.620452 -119.756596 
L 181.6498 -120.706779 
L 181.680132 -121.656962 
L 181.710627 -122.607145 
L 181.74075 -123.557328 
L 181.770066 -124.507511 
L 181.798216 -125.457694 
L 181.825181 -126.407877 
L 181.851698 -127.35806 
L 181.879542 -128.308243 
L 181.911413 -129.258426 
L 181.950413 -130.208609 
L 181.99928 -131.158792 
L 182.059714 -132.108975 
L 182.132026 -133.059158 
L 182.215171 -134.009341 
L 182.307066 -134.959524 
L 182.404997 -135.909707 
L 182.506032 -136.859891 
L 182.607398 -137.810074 
L 182.706853 -138.760257 
L 182.802988 -139.71044 
L 182.895356 -140.660623 
L 182.984305 -141.610806 
L 183.070543 -142.560989 
L 183.154597 -143.511172 
L 183.236423 -144.461355 
L 183.315303 -145.411538 
L 183.390035 -146.361721 
L 183.459296 -147.311904 
L 183.522005 -148.262087 
L 183.577628 -149.21227 
L 183.626363 -150.162453 
L 183.669194 -151.112636 
L 183.707763 -152.062819 
L 183.744028 -153.013002 
L 183.779771 -153.963185 
L 183.816122 -154.913369 
L 183.853284 -155.863552 
L 183.890599 -156.813735 
L 183.926927 -157.763918 
L 183.961162 -158.714101 
L 183.992642 -159.664284 
L 184.021289 -160.614467 
L 184.047453 -161.56465 
L 184.071592 -162.514833 
L 184.093991 -163.465016 
L 184.114629 -164.415199 
L 184.133239 -165.365382 
L 184.149476 -166.315565 
L 184.163089 -167.265748 
L 184.236911 -167.265748 
L 184.236911 -167.265748 
L 184.250524 -166.315565 
L 184.266761 -165.365382 
L 184.285371 -164.415199 
L 184.306009 -163.465016 
L 184.328408 -162.514833 
L 184.352547 -161.56465 
L 184.378711 -160.614467 
L 184.407358 -159.664284 
L 184.438838 -158.714101 
L 184.473073 -157.763918 
L 184.509401 -156.813735 
L 184.546716 -155.863552 
L 184.583878 -154.913369 
L 184.620229 -153.963185 
L 184.655972 -153.013002 
L 184.692237 -152.062819 
L 184.730806 -151.112636 
L 184.773637 -150.162453 
L 184.822372 -149.21227 
L 184.877995 -148.262087 
L 184.940704 -147.311904 
L 185.009965 -146.361721 
L 185.084697 -145.411538 
L 185.163577 -144.461355 
L 185.245403 -143.511172 
L 185.329457 -142.560989 
L 185.415695 -141.610806 
L 185.504644 -140.660623 
L 185.597012 -139.71044 
L 185.693147 -138.760257 
L 185.792602 -137.810074 
L 185.893968 -136.859891 
L 185.995003 -135.909707 
L 186.092934 -134.959524 
L 186.184829 -134.009341 
L 186.267974 -133.059158 
L 186.340286 -132.108975 
L 186.40072 -131.158792 
L 186.449587 -130.208609 
L 186.488587 -129.258426 
L 186.520458 -128.308243 
L 186.548302 -127.35806 
L 186.574819 -126.407877 
L 186.601784 -125.457694 
L 186.629934 -124.507511 
L 186.65925 -123.557328 
L 186.689373 -122.607145 
L 186.719868 -121.656962 
L 186.7502 -120.706779 
L 186.779548 -119.756596 
L 186.806726 -118.806413 
L 186.830426 -117.85623 
L 186.849729 -116.906046 
L 186.864595 -115.955863 
L 186.875979 -115.00568 
L 186.885483 -114.055497 
L 186.894731 -113.105314 
L 186.904897 -112.155131 
L 186.916696 -111.204948 
L 186.930794 -110.254765 
L 186.948261 -109.304582 
L 186.970678 -108.354399 
L 186.999739 -107.404216 
L 187.036635 -106.454033 
L 187.081648 -105.50385 
L 187.134228 -104.553667 
L 187.193476 -103.603484 
L 187.258639 -102.653301 
L 187.329247 -101.703118 
L 187.404815 -100.752935 
L 187.484321 -99.802752 
L 187.5658 -98.852568 
L 187.646283 -97.902385 
L 187.722112 -96.952202 
L 187.789541 -96.002019 
L 187.845524 -95.051836 
L 187.88859 -94.101653 
L 187.919621 -93.15147 
L 187.942245 -92.201287 
L 187.962551 -91.251104 
L 187.988059 -90.300921 
L 188.026141 -89.350738 
L 188.082385 -88.400555 
L 188.159326 -87.450372 
L 188.255809 -86.500189 
L 188.366924 -85.550006 
L 188.484371 -84.599823 
L 188.597028 -83.64964 
L 188.69159 -82.699457 
L 188.753222 -81.749274 
L 188.766222 -80.79909 
L 188.714891 -79.848907 
L 188.584957 -78.898724 
L 188.365859 -77.948541 
L 188.053832 -76.998358 
L 187.655029 -76.048175 
L 187.187324 -75.097992 
L 186.679436 -74.147809 
L 186.166845 -73.197626 
z
" id="m940d83c1d8" style="stroke:#464646;stroke-width:1.25;"/>
    </defs>
    <g clip-path="url(#p998102ce44)">
     <use style="fill:#60ae47;stroke:#464646;stroke-width:1.25;" x="0.0" xlink:href="#m940d83c1d8" y="288.0"/>
    </g>
   </g>
   <g id="PolyCollection_5">
    <defs>
     <path d="M 222.665222 -73.385596 
L 220.134778 -73.385596 
L 219.744987 -74.395598 
L 219.328434 -75.4056 
L 218.907781 -76.415601 
L 218.505529 -77.425603 
L 218.141079 -78.435605 
L 217.828768 -79.445606 
L 217.576898 -80.455608 
L 217.387642 -81.46561 
L 217.257762 -82.475611 
L 217.180102 -83.485613 
L 217.145643 -84.495615 
L 217.145559 -85.505616 
L 217.17263 -86.515618 
L 217.221565 -87.52562 
L 217.288328 -88.535621 
L 217.369048 -89.545623 
L 217.459222 -90.555625 
L 217.553663 -91.565626 
L 217.647141 -92.575628 
L 217.735333 -93.58563 
L 217.815589 -94.595631 
L 217.887172 -95.605633 
L 217.95091 -96.615635 
L 218.008374 -97.625636 
L 218.060846 -98.635638 
L 218.108435 -99.64564 
L 218.149724 -100.655641 
L 218.182199 -101.665643 
L 218.203406 -102.675645 
L 218.212395 -103.685646 
L 218.210779 -104.695648 
L 218.202866 -105.70565 
L 218.194774 -106.715651 
L 218.192964 -107.725653 
L 218.202856 -108.735655 
L 218.228048 -109.745656 
L 218.270202 -110.755658 
L 218.329295 -111.765659 
L 218.403835 -112.775661 
L 218.490893 -113.785663 
L 218.586118 -114.795664 
L 218.684036 -115.805666 
L 218.778793 -116.815668 
L 218.865191 -117.825669 
L 218.939631 -118.835671 
L 219.000586 -119.845673 
L 219.048465 -120.855674 
L 219.08501 -121.865676 
L 219.112552 -122.875678 
L 219.133423 -123.885679 
L 219.149667 -124.895681 
L 219.163018 -125.905683 
L 219.174994 -126.915684 
L 219.187035 -127.925686 
L 219.200609 -128.935688 
L 219.217284 -129.945689 
L 219.238726 -130.955691 
L 219.26658 -131.965693 
L 219.302256 -132.975694 
L 219.346697 -133.985696 
L 219.400233 -134.995698 
L 219.462569 -136.005699 
L 219.532862 -137.015701 
L 219.609808 -138.025703 
L 219.691709 -139.035704 
L 219.776564 -140.045706 
L 219.862237 -141.055708 
L 219.946708 -142.065709 
L 220.028333 -143.075711 
L 220.106037 -144.085713 
L 220.179405 -145.095714 
L 220.248716 -146.105716 
L 220.314912 -147.115718 
L 220.379466 -148.125719 
L 220.444036 -149.135721 
L 220.509925 -150.145723 
L 220.57751 -151.155724 
L 220.645937 -152.165726 
L 220.713304 -153.175728 
L 220.777284 -154.185729 
L 220.835899 -155.195731 
L 220.888078 -156.205732 
L 220.933802 -157.215734 
L 220.973883 -158.225736 
L 221.009595 -159.235737 
L 221.042362 -160.245739 
L 221.073538 -161.255741 
L 221.104259 -162.265742 
L 221.135273 -163.275744 
L 221.166797 -164.285746 
L 221.198459 -165.295747 
L 221.229413 -166.305749 
L 221.258596 -167.315751 
L 221.285051 -168.325752 
L 221.308166 -169.335754 
L 221.327762 -170.345756 
L 221.344024 -171.355757 
L 221.357346 -172.365759 
L 221.368169 -173.375761 
L 221.431831 -173.375761 
L 221.431831 -173.375761 
L 221.442654 -172.365759 
L 221.455976 -171.355757 
L 221.472238 -170.345756 
L 221.491834 -169.335754 
L 221.514949 -168.325752 
L 221.541404 -167.315751 
L 221.570587 -166.305749 
L 221.601541 -165.295747 
L 221.633203 -164.285746 
L 221.664727 -163.275744 
L 221.695741 -162.265742 
L 221.726462 -161.255741 
L 221.757638 -160.245739 
L 221.790405 -159.235737 
L 221.826117 -158.225736 
L 221.866198 -157.215734 
L 221.911922 -156.205732 
L 221.964101 -155.195731 
L 222.022716 -154.185729 
L 222.086696 -153.175728 
L 222.154063 -152.165726 
L 222.22249 -151.155724 
L 222.290075 -150.145723 
L 222.355964 -149.135721 
L 222.420534 -148.125719 
L 222.485088 -147.115718 
L 222.551284 -146.105716 
L 222.620595 -145.095714 
L 222.693963 -144.085713 
L 222.771667 -143.075711 
L 222.853292 -142.065709 
L 222.937763 -141.055708 
L 223.023436 -140.045706 
L 223.108291 -139.035704 
L 223.190192 -138.025703 
L 223.267138 -137.015701 
L 223.337431 -136.005699 
L 223.399767 -134.995698 
L 223.453303 -133.985696 
L 223.497744 -132.975694 
L 223.53342 -131.965693 
L 223.561274 -130.955691 
L 223.582716 -129.945689 
L 223.599391 -128.935688 
L 223.612965 -127.925686 
L 223.625006 -126.915684 
L 223.636982 -125.905683 
L 223.650333 -124.895681 
L 223.666577 -123.885679 
L 223.687448 -122.875678 
L 223.71499 -121.865676 
L 223.751535 -120.855674 
L 223.799414 -119.845673 
L 223.860369 -118.835671 
L 223.934809 -117.825669 
L 224.021207 -116.815668 
L 224.115964 -115.805666 
L 224.213882 -114.795664 
L 224.309107 -113.785663 
L 224.396165 -112.775661 
L 224.470705 -111.765659 
L 224.529798 -110.755658 
L 224.571952 -109.745656 
L 224.597144 -108.735655 
L 224.607036 -107.725653 
L 224.605226 -106.715651 
L 224.597134 -105.70565 
L 224.589221 -104.695648 
L 224.587605 -103.685646 
L 224.596594 -102.675645 
L 224.617801 -101.665643 
L 224.650276 -100.655641 
L 224.691565 -99.64564 
L 224.739154 -98.635638 
L 224.791626 -97.625636 
L 224.84909 -96.615635 
L 224.912828 -95.605633 
L 224.984411 -94.595631 
L 225.064667 -93.58563 
L 225.152859 -92.575628 
L 225.246337 -91.565626 
L 225.340778 -90.555625 
L 225.430952 -89.545623 
L 225.511672 -88.535621 
L 225.578435 -87.52562 
L 225.62737 -86.515618 
L 225.654441 -85.505616 
L 225.654357 -84.495615 
L 225.619898 -83.485613 
L 225.542238 -82.475611 
L 225.412358 -81.46561 
L 225.223102 -80.455608 
L 224.971232 -79.445606 
L 224.658921 -78.435605 
L 224.294471 -77.425603 
L 223.892219 -76.415601 
L 223.471566 -75.4056 
L 223.055013 -74.395598 
L 222.665222 -73.385596 
z
" id="mea60929f28" style="stroke:#464646;stroke-width:1.25;"/>
    </defs>
    <g clip-path="url(#p998102ce44)">
     <use style="fill:#4aad95;stroke:#464646;stroke-width:1.25;" x="0.0" xlink:href="#mea60929f28" y="288.0"/>
    </g>
   </g>
   <g id="PolyCollection_6">
    <defs>
     <path d="M 260.147379 -73.264751 
L 257.052621 -73.264751 
L 256.647491 -74.370503 
L 256.238717 -75.476254 
L 255.851239 -76.582006 
L 255.506107 -77.687757 
L 255.217888 -78.793509 
L 254.993933 -79.899261 
L 254.835144 -81.005012 
L 254.73742 -82.110764 
L 254.693115 -83.216515 
L 254.692201 -84.322267 
L 254.72322 -85.428018 
L 254.774282 -86.53377 
L 254.834261 -87.639521 
L 254.894155 -88.745273 
L 254.948298 -89.851024 
L 254.994997 -90.956776 
L 255.036244 -92.062528 
L 255.076442 -93.168279 
L 255.12051 -94.274031 
L 255.172015 -95.379782 
L 255.232014 -96.485534 
L 255.29896 -97.591285 
L 255.369619 -98.697037 
L 255.440485 -99.802788 
L 255.509063 -100.90854 
L 255.574538 -102.014291 
L 255.637656 -103.120043 
L 255.700006 -104.225795 
L 255.763075 -105.331546 
L 255.82747 -106.437298 
L 255.892568 -107.543049 
L 255.956672 -108.648801 
L 256.017552 -109.754552 
L 256.073159 -110.860304 
L 256.122232 -111.966055 
L 256.164593 -113.071807 
L 256.201075 -114.177559 
L 256.233159 -115.28331 
L 256.262537 -116.389062 
L 256.290772 -117.494813 
L 256.31914 -118.600565 
L 256.348605 -119.706316 
L 256.379788 -120.812068 
L 256.41286 -121.917819 
L 256.44737 -123.023571 
L 256.482174 -124.129322 
L 256.515616 -125.235074 
L 256.546032 -126.340826 
L 256.572414 -127.446577 
L 256.594951 -128.552329 
L 256.615116 -129.65808 
L 256.635155 -130.763832 
L 256.657178 -131.869583 
L 256.682287 -132.975335 
L 256.710216 -134.081086 
L 256.739701 -135.186838 
L 256.769398 -136.29259 
L 256.798853 -137.398341 
L 256.828998 -138.504093 
L 256.861944 -139.609844 
L 256.90018 -140.715596 
L 256.945565 -141.821347 
L 256.998558 -142.927099 
L 257.057931 -144.03285 
L 257.121043 -145.138602 
L 257.184494 -146.244353 
L 257.244939 -147.350105 
L 257.299778 -148.455857 
L 257.347597 -149.561608 
L 257.388301 -150.66736 
L 257.423029 -151.773111 
L 257.453936 -152.878863 
L 257.483878 -153.984614 
L 257.516021 -155.090366 
L 257.553343 -156.196117 
L 257.598111 -157.301869 
L 257.651428 -158.40762 
L 257.713008 -159.513372 
L 257.781254 -160.619124 
L 257.853636 -161.724875 
L 257.927242 -162.830627 
L 257.999321 -163.936378 
L 258.067677 -165.04213 
L 258.13082 -166.147881 
L 258.18793 -167.253633 
L 258.238721 -168.359384 
L 258.283312 -169.465136 
L 258.322138 -170.570888 
L 258.355895 -171.676639 
L 258.385456 -172.782391 
L 258.411757 -173.888142 
L 258.435655 -174.993894 
L 258.4578 -176.099645 
L 258.478569 -177.205397 
L 258.498069 -178.311148 
L 258.516202 -179.4169 
L 258.532753 -180.522651 
L 258.547486 -181.628403 
L 258.560217 -182.734155 
L 258.639783 -182.734155 
L 258.639783 -182.734155 
L 258.652514 -181.628403 
L 258.667247 -180.522651 
L 258.683798 -179.4169 
L 258.701931 -178.311148 
L 258.721431 -177.205397 
L 258.7422 -176.099645 
L 258.764345 -174.993894 
L 258.788243 -173.888142 
L 258.814544 -172.782391 
L 258.844105 -171.676639 
L 258.877862 -170.570888 
L 258.916688 -169.465136 
L 258.961279 -168.359384 
L 259.01207 -167.253633 
L 259.06918 -166.147881 
L 259.132323 -165.04213 
L 259.200679 -163.936378 
L 259.272758 -162.830627 
L 259.346364 -161.724875 
L 259.418746 -160.619124 
L 259.486992 -159.513372 
L 259.548572 -158.40762 
L 259.601889 -157.301869 
L 259.646657 -156.196117 
L 259.683979 -155.090366 
L 259.716122 -153.984614 
L 259.746064 -152.878863 
L 259.776971 -151.773111 
L 259.811699 -150.66736 
L 259.852403 -149.561608 
L 259.900222 -148.455857 
L 259.955061 -147.350105 
L 260.015506 -146.244353 
L 260.078957 -145.138602 
L 260.142069 -144.03285 
L 260.201442 -142.927099 
L 260.254435 -141.821347 
L 260.29982 -140.715596 
L 260.338056 -139.609844 
L 260.371002 -138.504093 
L 260.401147 -137.398341 
L 260.430602 -136.29259 
L 260.460299 -135.186838 
L 260.489784 -134.081086 
L 260.517713 -132.975335 
L 260.542822 -131.869583 
L 260.564845 -130.763832 
L 260.584884 -129.65808 
L 260.605049 -128.552329 
L 260.627586 -127.446577 
L 260.653968 -126.340826 
L 260.684384 -125.235074 
L 260.717826 -124.129322 
L 260.75263 -123.023571 
L 260.78714 -121.917819 
L 260.820212 -120.812068 
L 260.851395 -119.706316 
L 260.88086 -118.600565 
L 260.909228 -117.494813 
L 260.937463 -116.389062 
L 260.966841 -115.28331 
L 260.998925 -114.177559 
L 261.035407 -113.071807 
L 261.077768 -111.966055 
L 261.126841 -110.860304 
L 261.182448 -109.754552 
L 261.243328 -108.648801 
L 261.307432 -107.543049 
L 261.37253 -106.437298 
L 261.436925 -105.331546 
L 261.499994 -104.225795 
L 261.562344 -103.120043 
L 261.625462 -102.014291 
L 261.690937 -100.90854 
L 261.759515 -99.802788 
L 261.830381 -98.697037 
L 261.90104 -97.591285 
L 261.967986 -96.485534 
L 262.027985 -95.379782 
L 262.07949 -94.274031 
L 262.123558 -93.168279 
L 262.163756 -92.062528 
L 262.205003 -90.956776 
L 262.251702 -89.851024 
L 262.305845 -88.745273 
L 262.365739 -87.639521 
L 262.425718 -86.53377 
L 262.47678 -85.428018 
L 262.507799 -84.322267 
L 262.506885 -83.216515 
L 262.46258 -82.110764 
L 262.364856 -81.005012 
L 262.206067 -79.899261 
L 261.982112 -78.793509 
L 261.693893 -77.687757 
L 261.348761 -76.582006 
L 260.961283 -75.476254 
L 260.552509 -74.370503 
L 260.147379 -73.264751 
z
" id="m965754997d" style="stroke:#464646;stroke-width:1.25;"/>
    </defs>
    <g clip-path="url(#p998102ce44)">
     <use style="fill:#4dabb3;stroke:#464646;stroke-width:1.25;" x="0.0" xlink:href="#m965754997d" y="288.0"/>
    </g>
   </g>
   <g id="PolyCollection_7">
    <defs>
     <path d="M 296.863924 -73.257966 
L 294.736076 -73.257966 
L 294.360261 -74.598271 
L 293.946252 -75.938576 
L 293.520132 -77.278881 
L 293.109995 -78.619185 
L 292.740494 -79.95949 
L 292.428644 -81.299795 
L 292.182107 -82.6401 
L 292.00014 -83.980404 
L 291.876405 -85.320709 
L 291.802307 -86.661014 
L 291.769643 -88.001319 
L 291.771929 -89.341623 
L 291.804437 -90.681928 
L 291.863452 -92.022233 
L 291.94542 -93.362538 
L 292.046435 -94.702842 
L 292.162213 -96.043147 
L 292.288386 -97.383452 
L 292.420824 -98.723757 
L 292.555784 -100.064061 
L 292.689833 -101.404366 
L 292.819705 -102.744671 
L 292.942287 -104.084976 
L 293.054837 -105.42528 
L 293.155407 -106.765585 
L 293.243253 -108.10589 
L 293.319064 -109.446195 
L 293.384841 -110.786499 
L 293.443427 -112.126804 
L 293.497793 -113.467109 
L 293.550317 -114.807414 
L 293.602291 -116.147718 
L 293.65386 -117.488023 
L 293.704398 -118.828328 
L 293.753095 -120.168633 
L 293.799472 -121.508937 
L 293.843574 -122.849242 
L 293.885861 -124.189547 
L 293.92698 -125.529852 
L 293.967617 -126.870156 
L 294.008477 -128.210461 
L 294.050258 -129.550766 
L 294.09348 -130.891071 
L 294.138144 -132.231375 
L 294.183406 -133.57168 
L 294.227514 -134.911985 
L 294.268183 -136.25229 
L 294.303331 -137.592594 
L 294.331869 -138.932899 
L 294.354151 -140.273204 
L 294.371879 -141.613509 
L 294.387526 -142.953813 
L 294.403614 -144.294118 
L 294.422166 -145.634423 
L 294.444491 -146.974728 
L 294.471209 -148.315032 
L 294.502372 -149.655337 
L 294.53758 -150.995642 
L 294.576125 -152.335947 
L 294.617211 -153.676251 
L 294.660261 -155.016556 
L 294.705156 -156.356861 
L 294.752279 -157.697166 
L 294.802265 -159.03747 
L 294.855518 -160.377775 
L 294.911673 -161.71808 
L 294.969253 -163.058385 
L 295.025729 -164.398689 
L 295.078044 -165.738994 
L 295.123467 -167.079299 
L 295.160485 -168.419604 
L 295.189352 -169.759908 
L 295.212049 -171.100213 
L 295.231643 -172.440518 
L 295.251269 -173.780823 
L 295.273166 -175.121127 
L 295.298122 -176.461432 
L 295.325523 -177.801737 
L 295.353924 -179.142042 
L 295.381833 -180.482346 
L 295.40837 -181.822651 
L 295.433515 -183.162956 
L 295.457948 -184.503261 
L 295.482602 -185.843565 
L 295.508205 -187.18387 
L 295.53501 -188.524175 
L 295.562765 -189.86448 
L 295.590864 -191.204784 
L 295.618542 -192.545089 
L 295.645025 -193.885394 
L 295.669615 -195.225699 
L 295.691751 -196.566003 
L 295.711078 -197.906308 
L 295.727501 -199.246613 
L 295.741203 -200.586918 
L 295.752581 -201.927222 
L 295.762115 -203.267527 
L 295.770228 -204.607832 
L 295.7772 -205.948137 
L 295.8228 -205.948137 
L 295.8228 -205.948137 
L 295.829772 -204.607832 
L 295.837885 -203.267527 
L 295.847419 -201.927222 
L 295.858797 -200.586918 
L 295.872499 -199.246613 
L 295.888922 -197.906308 
L 295.908249 -196.566003 
L 295.930385 -195.225699 
L 295.954975 -193.885394 
L 295.981458 -192.545089 
L 296.009136 -191.204784 
L 296.037235 -189.86448 
L 296.06499 -188.524175 
L 296.091795 -187.18387 
L 296.117398 -185.843565 
L 296.142052 -184.503261 
L 296.166485 -183.162956 
L 296.19163 -181.822651 
L 296.218167 -180.482346 
L 296.246076 -179.142042 
L 296.274477 -177.801737 
L 296.301878 -176.461432 
L 296.326834 -175.121127 
L 296.348731 -173.780823 
L 296.368357 -172.440518 
L 296.387951 -171.100213 
L 296.410648 -169.759908 
L 296.439515 -168.419604 
L 296.476533 -167.079299 
L 296.521956 -165.738994 
L 296.574271 -164.398689 
L 296.630747 -163.058385 
L 296.688327 -161.71808 
L 296.744482 -160.377775 
L 296.797735 -159.03747 
L 296.847721 -157.697166 
L 296.894844 -156.356861 
L 296.939739 -155.016556 
L 296.982789 -153.676251 
L 297.023875 -152.335947 
L 297.06242 -150.995642 
L 297.097628 -149.655337 
L 297.128791 -148.315032 
L 297.155509 -146.974728 
L 297.177834 -145.634423 
L 297.196386 -144.294118 
L 297.212474 -142.953813 
L 297.228121 -141.613509 
L 297.245849 -140.273204 
L 297.268131 -138.932899 
L 297.296669 -137.592594 
L 297.331817 -136.25229 
L 297.372486 -134.911985 
L 297.416594 -133.57168 
L 297.461856 -132.231375 
L 297.50652 -130.891071 
L 297.549742 -129.550766 
L 297.591523 -128.210461 
L 297.632383 -126.870156 
L 297.67302 -125.529852 
L 297.714139 -124.189547 
L 297.756426 -122.849242 
L 297.800528 -121.508937 
L 297.846905 -120.168633 
L 297.895602 -118.828328 
L 297.94614 -117.488023 
L 297.997709 -116.147718 
L 298.049683 -114.807414 
L 298.102207 -113.467109 
L 298.156573 -112.126804 
L 298.215159 -110.786499 
L 298.280936 -109.446195 
L 298.356747 -108.10589 
L 298.444593 -106.765585 
L 298.545163 -105.42528 
L 298.657713 -104.084976 
L 298.780295 -102.744671 
L 298.910167 -101.404366 
L 299.044216 -100.064061 
L 299.179176 -98.723757 
L 299.311614 -97.383452 
L 299.437787 -96.043147 
L 299.553565 -94.702842 
L 299.65458 -93.362538 
L 299.736548 -92.022233 
L 299.795563 -90.681928 
L 299.828071 -89.341623 
L 299.830357 -88.001319 
L 299.797693 -86.661014 
L 299.723595 -85.320709 
L 299.59986 -83.980404 
L 299.417893 -82.6401 
L 299.171356 -81.299795 
L 298.859506 -79.95949 
L 298.490005 -78.619185 
L 298.079868 -77.278881 
L 297.653748 -75.938576 
L 297.239739 -74.598271 
L 296.863924 -73.257966 
z
" id="m6ae1315634" style="stroke:#464646;stroke-width:1.25;"/>
    </defs>
    <g clip-path="url(#p998102ce44)">
     <use style="fill:#6daee2;stroke:#464646;stroke-width:1.25;" x="0.0" xlink:href="#m6ae1315634" y="288.0"/>
    </g>
   </g>
   <g id="PolyCollection_8">
    <defs>
     <path d="M 334.068098 -73.337204 
L 331.931902 -73.337204 
L 331.557548 -74.828844 
L 331.155917 -76.320483 
L 330.756276 -77.812123 
L 330.386829 -79.303763 
L 330.069255 -80.795403 
L 329.815812 -82.287043 
L 329.629443 -83.778682 
L 329.506075 -85.270322 
L 329.437704 -86.761962 
L 329.415051 -88.253602 
L 329.429161 -89.745242 
L 329.471958 -91.236882 
L 329.536187 -92.728521 
L 329.615239 -94.220161 
L 329.703212 -95.711801 
L 329.795152 -97.203441 
L 329.887228 -98.695081 
L 329.976586 -100.18672 
L 330.060946 -101.67836 
L 330.138229 -103.17 
L 330.206538 -104.66164 
L 330.26458 -106.15328 
L 330.312291 -107.644919 
L 330.351302 -109.136559 
L 330.384979 -110.628199 
L 330.417949 -112.119839 
L 330.455217 -113.611479 
L 330.501046 -115.103118 
L 330.557891 -116.594758 
L 330.625702 -118.086398 
L 330.701951 -119.578038 
L 330.782449 -121.069678 
L 330.862657 -122.561317 
L 330.938908 -124.052957 
L 331.009065 -125.544597 
L 331.072502 -127.036237 
L 331.129666 -128.527877 
L 331.181576 -130.019517 
L 331.229455 -131.511156 
L 331.274494 -133.002796 
L 331.317681 -134.494436 
L 331.359692 -135.986076 
L 331.400862 -137.477716 
L 331.441308 -138.969355 
L 331.481156 -140.460995 
L 331.520803 -141.952635 
L 331.561069 -143.444275 
L 331.603138 -144.935915 
L 331.648229 -146.427554 
L 331.69705 -147.919194 
L 331.74926 -149.410834 
L 331.80323 -150.902474 
L 331.856332 -152.394114 
L 331.905703 -153.885753 
L 331.949147 -155.377393 
L 331.985731 -156.869033 
L 332.015868 -158.360673 
L 332.040998 -159.852313 
L 332.063173 -161.343953 
L 332.084781 -162.835592 
L 332.108351 -164.327232 
L 332.136246 -165.818872 
L 332.170134 -167.310512 
L 332.210414 -168.802152 
L 332.255917 -170.293791 
L 332.304182 -171.785431 
L 332.352282 -173.277071 
L 332.397877 -174.768711 
L 332.439964 -176.260351 
L 332.478944 -177.75199 
L 332.515977 -179.24363 
L 332.55201 -180.73527 
L 332.587031 -182.22691 
L 332.619969 -183.71855 
L 332.649246 -185.210189 
L 332.673623 -186.701829 
L 332.692889 -188.193469 
L 332.708055 -189.685109 
L 332.72104 -191.176749 
L 332.734057 -192.668389 
L 332.748943 -194.160028 
L 332.766672 -195.651668 
L 332.787147 -197.143308 
L 332.809336 -198.634948 
L 332.831686 -200.126588 
L 332.852669 -201.618227 
L 332.871225 -203.109867 
L 332.886969 -204.601507 
L 332.900101 -206.093147 
L 332.911167 -207.584787 
L 332.920793 -209.076426 
L 332.929521 -210.568066 
L 332.937745 -212.059706 
L 332.94571 -213.551346 
L 332.953527 -215.042986 
L 332.961187 -216.534625 
L 332.96857 -218.026265 
L 332.975476 -219.517905 
L 332.981673 -221.009545 
L 333.018327 -221.009545 
L 333.018327 -221.009545 
L 333.024524 -219.517905 
L 333.03143 -218.026265 
L 333.038813 -216.534625 
L 333.046473 -215.042986 
L 333.05429 -213.551346 
L 333.062255 -212.059706 
L 333.070479 -210.568066 
L 333.079207 -209.076426 
L 333.088833 -207.584787 
L 333.099899 -206.093147 
L 333.113031 -204.601507 
L 333.128775 -203.109867 
L 333.147331 -201.618227 
L 333.168314 -200.126588 
L 333.190664 -198.634948 
L 333.212853 -197.143308 
L 333.233328 -195.651668 
L 333.251057 -194.160028 
L 333.265943 -192.668389 
L 333.27896 -191.176749 
L 333.291945 -189.685109 
L 333.307111 -188.193469 
L 333.326377 -186.701829 
L 333.350754 -185.210189 
L 333.380031 -183.71855 
L 333.412969 -182.22691 
L 333.44799 -180.73527 
L 333.484023 -179.24363 
L 333.521056 -177.75199 
L 333.560036 -176.260351 
L 333.602123 -174.768711 
L 333.647718 -173.277071 
L 333.695818 -171.785431 
L 333.744083 -170.293791 
L 333.789586 -168.802152 
L 333.829866 -167.310512 
L 333.863754 -165.818872 
L 333.891649 -164.327232 
L 333.915219 -162.835592 
L 333.936827 -161.343953 
L 333.959002 -159.852313 
L 333.984132 -158.360673 
L 334.014269 -156.869033 
L 334.050853 -155.377393 
L 334.094297 -153.885753 
L 334.143668 -152.394114 
L 334.19677 -150.902474 
L 334.25074 -149.410834 
L 334.30295 -147.919194 
L 334.351771 -146.427554 
L 334.396862 -144.935915 
L 334.438931 -143.444275 
L 334.479197 -141.952635 
L 334.518844 -140.460995 
L 334.558692 -138.969355 
L 334.599138 -137.477716 
L 334.640308 -135.986076 
L 334.682319 -134.494436 
L 334.725506 -133.002796 
L 334.770545 -131.511156 
L 334.818424 -130.019517 
L 334.870334 -128.527877 
L 334.927498 -127.036237 
L 334.990935 -125.544597 
L 335.061092 -124.052957 
L 335.137343 -122.561317 
L 335.217551 -121.069678 
L 335.298049 -119.578038 
L 335.374298 -118.086398 
L 335.442109 -116.594758 
L 335.498954 -115.103118 
L 335.544783 -113.611479 
L 335.582051 -112.119839 
L 335.615021 -110.628199 
L 335.648698 -109.136559 
L 335.687709 -107.644919 
L 335.73542 -106.15328 
L 335.793462 -104.66164 
L 335.861771 -103.17 
L 335.939054 -101.67836 
L 336.023414 -100.18672 
L 336.112772 -98.695081 
L 336.204848 -97.203441 
L 336.296788 -95.711801 
L 336.384761 -94.220161 
L 336.463813 -92.728521 
L 336.528042 -91.236882 
L 336.570839 -89.745242 
L 336.584949 -88.253602 
L 336.562296 -86.761962 
L 336.493925 -85.270322 
L 336.370557 -83.778682 
L 336.184188 -82.287043 
L 335.930745 -80.795403 
L 335.613171 -79.303763 
L 335.243724 -77.812123 
L 334.844083 -76.320483 
L 334.442452 -74.828844 
L 334.068098 -73.337204 
z
" id="m8cea129b78" style="stroke:#464646;stroke-width:1.25;"/>
    </defs>
    <g clip-path="url(#p998102ce44)">
     <use style="fill:#c4a1ea;stroke:#464646;stroke-width:1.25;" x="0.0" xlink:href="#m8cea129b78" y="288.0"/>
    </g>
   </g>
   <g id="PolyCollection_9">
    <defs>
     <path d="M 371.288445 -73.555833 
L 369.111555 -73.555833 
L 368.756475 -75.216979 
L 368.392861 -76.878126 
L 368.05042 -78.539272 
L 367.752535 -80.200419 
L 367.511694 -81.861565 
L 367.329468 -83.522712 
L 367.200163 -85.183858 
L 367.115651 -86.845005 
L 367.068889 -88.506151 
L 367.054962 -90.167298 
L 367.070116 -91.828444 
L 367.110121 -93.48959 
L 367.169294 -95.150737 
L 367.240745 -96.811883 
L 367.317542 -98.47303 
L 367.393995 -100.134176 
L 367.466368 -101.795323 
L 367.532838 -103.456469 
L 367.593004 -105.117616 
L 367.64737 -106.778762 
L 367.697037 -108.439909 
L 367.743553 -110.101055 
L 367.788739 -111.762201 
L 367.834338 -113.423348 
L 367.881447 -115.084494 
L 367.929941 -116.745641 
L 367.97824 -118.406787 
L 368.023788 -120.067934 
L 368.064253 -121.72908 
L 368.098916 -123.390227 
L 368.129448 -125.051373 
L 368.159509 -126.71252 
L 368.193287 -128.373666 
L 368.233671 -130.034813 
L 368.280993 -131.695959 
L 368.332916 -133.357105 
L 368.385512 -135.018252 
L 368.435022 -136.679398 
L 368.47954 -138.340545 
L 368.519873 -140.001691 
L 368.559196 -141.662838 
L 368.601646 -143.323984 
L 368.65049 -144.985131 
L 368.70669 -146.646277 
L 368.768541 -148.307424 
L 368.832485 -149.96857 
L 368.894669 -151.629716 
L 368.952466 -153.290863 
L 369.005287 -154.952009 
L 369.054402 -156.613156 
L 369.102035 -158.274302 
L 369.150251 -159.935449 
L 369.200192 -161.596595 
L 369.251874 -163.257742 
L 369.304448 -164.918888 
L 369.356614 -166.580035 
L 369.406926 -168.241181 
L 369.453933 -169.902327 
L 369.496282 -171.563474 
L 369.532913 -173.22462 
L 369.563344 -174.885767 
L 369.587859 -176.546913 
L 369.607463 -178.20806 
L 369.623582 -179.869206 
L 369.6377 -181.530353 
L 369.651128 -183.191499 
L 369.664942 -184.852646 
L 369.680046 -186.513792 
L 369.697197 -188.174938 
L 369.716982 -189.836085 
L 369.739748 -191.497231 
L 369.765522 -193.158378 
L 369.793921 -194.819524 
L 369.824077 -196.480671 
L 369.854662 -198.141817 
L 369.884079 -199.802964 
L 369.910845 -201.46411 
L 369.934009 -203.125257 
L 369.953445 -204.786403 
L 369.969845 -206.447549 
L 369.984458 -208.108696 
L 369.998677 -209.769842 
L 370.013647 -211.430989 
L 370.029973 -213.092135 
L 370.047579 -214.753282 
L 370.065737 -216.414428 
L 370.083275 -218.075575 
L 370.098972 -219.736721 
L 370.11199 -221.397868 
L 370.122189 -223.059014 
L 370.130162 -224.72016 
L 370.136957 -226.381307 
L 370.143622 -228.042453 
L 370.150812 -229.7036 
L 370.158616 -231.364746 
L 370.166653 -233.025893 
L 370.174336 -234.687039 
L 370.181135 -236.348186 
L 370.186739 -238.009332 
L 370.213261 -238.009332 
L 370.213261 -238.009332 
L 370.218865 -236.348186 
L 370.225664 -234.687039 
L 370.233347 -233.025893 
L 370.241384 -231.364746 
L 370.249188 -229.7036 
L 370.256378 -228.042453 
L 370.263043 -226.381307 
L 370.269838 -224.72016 
L 370.277811 -223.059014 
L 370.28801 -221.397868 
L 370.301028 -219.736721 
L 370.316725 -218.075575 
L 370.334263 -216.414428 
L 370.352421 -214.753282 
L 370.370027 -213.092135 
L 370.386353 -211.430989 
L 370.401323 -209.769842 
L 370.415542 -208.108696 
L 370.430155 -206.447549 
L 370.446555 -204.786403 
L 370.465991 -203.125257 
L 370.489155 -201.46411 
L 370.515921 -199.802964 
L 370.545338 -198.141817 
L 370.575923 -196.480671 
L 370.606079 -194.819524 
L 370.634478 -193.158378 
L 370.660252 -191.497231 
L 370.683018 -189.836085 
L 370.702803 -188.174938 
L 370.719954 -186.513792 
L 370.735058 -184.852646 
L 370.748872 -183.191499 
L 370.7623 -181.530353 
L 370.776418 -179.869206 
L 370.792537 -178.20806 
L 370.812141 -176.546913 
L 370.836656 -174.885767 
L 370.867087 -173.22462 
L 370.903718 -171.563474 
L 370.946067 -169.902327 
L 370.993074 -168.241181 
L 371.043386 -166.580035 
L 371.095552 -164.918888 
L 371.148126 -163.257742 
L 371.199808 -161.596595 
L 371.249749 -159.935449 
L 371.297965 -158.274302 
L 371.345598 -156.613156 
L 371.394713 -154.952009 
L 371.447534 -153.290863 
L 371.505331 -151.629716 
L 371.567515 -149.96857 
L 371.631459 -148.307424 
L 371.69331 -146.646277 
L 371.74951 -144.985131 
L 371.798354 -143.323984 
L 371.840804 -141.662838 
L 371.880127 -140.001691 
L 371.92046 -138.340545 
L 371.964978 -136.679398 
L 372.014488 -135.018252 
L 372.067084 -133.357105 
L 372.119007 -131.695959 
L 372.166329 -130.034813 
L 372.206713 -128.373666 
L 372.240491 -126.71252 
L 372.270552 -125.051373 
L 372.301084 -123.390227 
L 372.335747 -121.72908 
L 372.376212 -120.067934 
L 372.42176 -118.406787 
L 372.470059 -116.745641 
L 372.518553 -115.084494 
L 372.565662 -113.423348 
L 372.611261 -111.762201 
L 372.656447 -110.101055 
L 372.702963 -108.439909 
L 372.75263 -106.778762 
L 372.806996 -105.117616 
L 372.867162 -103.456469 
L 372.933632 -101.795323 
L 373.006005 -100.134176 
L 373.082458 -98.47303 
L 373.159255 -96.811883 
L 373.230706 -95.150737 
L 373.289879 -93.48959 
L 373.329884 -91.828444 
L 373.345038 -90.167298 
L 373.331111 -88.506151 
L 373.284349 -86.845005 
L 373.199837 -85.183858 
L 373.070532 -83.522712 
L 372.888306 -81.861565 
L 372.647465 -80.200419 
L 372.34958 -78.539272 
L 372.007139 -76.878126 
L 371.643525 -75.216979 
L 371.288445 -73.555833 
z
" id="m383e7fdc0e" style="stroke:#464646;stroke-width:1.25;"/>
    </defs>
    <g clip-path="url(#p998102ce44)">
     <use style="fill:#e88ed1;stroke:#464646;stroke-width:1.25;" x="0.0" xlink:href="#m383e7fdc0e" y="288.0"/>
    </g>
   </g>
   <g id="line2d_40">
    <path clip-path="url(#p998102ce44)" d="M 72.6 214.8472 
L 72.6 176.283606 
" style="fill:none;stroke:#464646;stroke-linecap:round;stroke-width:1.25;"/>
   </g>
   <g id="line2d_41">
    <path clip-path="url(#p998102ce44)" d="M 72.6 212.053918 
L 72.6 197.733615 
" style="fill:none;stroke:#464646;stroke-linecap:round;stroke-width:3.75;"/>
   </g>
   <g id="line2d_42">
    <path clip-path="url(#p998102ce44)" d="M 109.8 214.902005 
L 109.8 149.973026 
" style="fill:none;stroke:#464646;stroke-linecap:round;stroke-width:1.25;"/>
   </g>
   <g id="line2d_43">
    <path clip-path="url(#p998102ce44)" d="M 109.8 208.466331 
L 109.8 184.3436 
" style="fill:none;stroke:#464646;stroke-linecap:round;stroke-width:3.75;"/>
   </g>
   <g id="line2d_44">
    <path clip-path="url(#p998102ce44)" d="M 147 214.663513 
L 147 141.290718 
" style="fill:none;stroke:#464646;stroke-linecap:round;stroke-width:1.25;"/>
   </g>
   <g id="line2d_45">
    <path clip-path="url(#p998102ce44)" d="M 147 204.961078 
L 147 179.466247 
" style="fill:none;stroke:#464646;stroke-linecap:round;stroke-width:3.75;"/>
   </g>
   <g id="line2d_46">
    <path clip-path="url(#p998102ce44)" d="M 184.2 214.802374 
L 184.2 120.734252 
" style="fill:none;stroke:#464646;stroke-linecap:round;stroke-width:1.25;"/>
   </g>
   <g id="line2d_47">
    <path clip-path="url(#p998102ce44)" d="M 184.2 202.299104 
L 184.2 167.396231 
" style="fill:none;stroke:#464646;stroke-linecap:round;stroke-width:3.75;"/>
   </g>
   <g id="line2d_48">
    <path clip-path="url(#p998102ce44)" d="M 221.4 214.614404 
L 221.4 114.624239 
" style="fill:none;stroke:#464646;stroke-linecap:round;stroke-width:1.25;"/>
   </g>
   <g id="line2d_49">
    <path clip-path="url(#p998102ce44)" d="M 221.4 199.665591 
L 221.4 164.667092 
" style="fill:none;stroke:#464646;stroke-linecap:round;stroke-width:3.75;"/>
   </g>
   <g id="line2d_50">
    <path clip-path="url(#p998102ce44)" d="M 258.6 214.735249 
L 258.6 105.265845 
" style="fill:none;stroke:#464646;stroke-linecap:round;stroke-width:1.25;"/>
   </g>
   <g id="line2d_51">
    <path clip-path="url(#p998102ce44)" d="M 258.6 199.911518 
L 258.6 159.712321 
" style="fill:none;stroke:#464646;stroke-linecap:round;stroke-width:3.75;"/>
   </g>
   <g id="line2d_52">
    <path clip-path="url(#p998102ce44)" d="M 295.8 214.742034 
L 295.8 93.093517 
" style="fill:none;stroke:#464646;stroke-linecap:round;stroke-width:1.25;"/>
   </g>
   <g id="line2d_53">
    <path clip-path="url(#p998102ce44)" d="M 295.8 198.153329 
L 295.8 155.89399 
" style="fill:none;stroke:#464646;stroke-linecap:round;stroke-width:3.75;"/>
   </g>
   <g id="line2d_54">
    <path clip-path="url(#p998102ce44)" d="M 333 214.662796 
L 333 88.215558 
" style="fill:none;stroke:#464646;stroke-linecap:round;stroke-width:1.25;"/>
   </g>
   <g id="line2d_55">
    <path clip-path="url(#p998102ce44)" d="M 333 196.747334 
L 333 153.217168 
" style="fill:none;stroke:#464646;stroke-linecap:round;stroke-width:3.75;"/>
   </g>
   <g id="line2d_56">
    <path clip-path="url(#p998102ce44)" d="M 370.2 214.444167 
L 370.2 75.204812 
" style="fill:none;stroke:#464646;stroke-linecap:round;stroke-width:1.25;"/>
   </g>
   <g id="line2d_57">
    <path clip-path="url(#p998102ce44)" d="M 370.2 194.887368 
L 370.2 146.959024 
" style="fill:none;stroke:#464646;stroke-linecap:round;stroke-width:3.75;"/>
   </g>
   <g id="patch_3">
    <path d="M 54 28.8 
L 388.8 28.8 
" style="fill:none;"/>
   </g>
   <g id="patch_4">
    <path d="M 388.8 252 
L 388.8 28.8 
" style="fill:none;"/>
   </g>
   <g id="patch_5">
    <path d="M 54 252 
L 388.8 252 
" style="fill:none;"/>
   </g>
   <g id="patch_6">
    <path d="M 54 252 
L 54 28.8 
" style="fill:none;"/>
   </g>
   <g id="PathCollection_1">
    <defs>
     <path d="M 0 1.25 
C 0.331504 1.25 0.649475 1.118292 0.883883 0.883883 
C 1.118292 0.649475 1.25 0.331504 1.25 0 
C 1.25 -0.331504 1.118292 -0.649475 0.883883 -0.883883 
C 0.649475 -1.118292 0.331504 -1.25 0 -1.25 
C -0.331504 -1.25 -0.649475 -1.118292 -0.883883 -0.883883 
C -1.118292 -0.649475 -1.25 -0.331504 -1.25 0 
C -1.25 0.331504 -1.118292 0.649475 -0.883883 0.883883 
C -0.649475 1.118292 -0.331504 1.25 0 1.25 
z
" id="mcfa9b1915f" style="stroke:#464646;stroke-width:0.3;"/>
    </defs>
    <g clip-path="url(#p998102ce44)">
     <use style="fill:#ffffff;stroke:#464646;stroke-width:0.3;" x="72.6" xlink:href="#mcfa9b1915f" y="206.737047326"/>
    </g>
   </g>
   <g id="PathCollection_2">
    <g clip-path="url(#p998102ce44)">
     <use style="fill:#ffffff;stroke:#464646;stroke-width:0.3;" x="109.8" xlink:href="#mcfa9b1915f" y="197.159505225"/>
    </g>
   </g>
   <g id="PathCollection_3">
    <g clip-path="url(#p998102ce44)">
     <use style="fill:#ffffff;stroke:#464646;stroke-width:0.3;" x="147.0" xlink:href="#mcfa9b1915f" y="193.754396715"/>
    </g>
   </g>
   <g id="PathCollection_4">
    <g clip-path="url(#p998102ce44)">
     <use style="fill:#ffffff;stroke:#464646;stroke-width:0.3;" x="184.2" xlink:href="#mcfa9b1915f" y="187.338188796"/>
    </g>
   </g>
   <g id="PathCollection_5">
    <g clip-path="url(#p998102ce44)">
     <use style="fill:#ffffff;stroke:#464646;stroke-width:0.3;" x="221.4" xlink:href="#mcfa9b1915f" y="183.9111161"/>
    </g>
   </g>
   <g id="PathCollection_6">
    <g clip-path="url(#p998102ce44)">
     <use style="fill:#ffffff;stroke:#464646;stroke-width:0.3;" x="258.6" xlink:href="#mcfa9b1915f" y="183.287440992"/>
    </g>
   </g>
   <g id="PathCollection_7">
    <g clip-path="url(#p998102ce44)">
     <use style="fill:#ffffff;stroke:#464646;stroke-width:0.3;" x="295.8" xlink:href="#mcfa9b1915f" y="182.192727296"/>
    </g>
   </g>
   <g id="PathCollection_8">
    <g clip-path="url(#p998102ce44)">
     <use style="fill:#ffffff;stroke:#464646;stroke-width:0.3;" x="333.0" xlink:href="#mcfa9b1915f" y="178.510617939"/>
    </g>
   </g>
   <g id="PathCollection_9">
    <g clip-path="url(#p998102ce44)">
     <use style="fill:#ffffff;stroke:#464646;stroke-width:0.3;" x="370.2" xlink:href="#mcfa9b1915f" y="174.339891408"/>
    </g>
   </g>
  </g>
 </g>
 <defs>
  <clipPath id="p998102ce44">
   <rect height="223.2" width="334.8" x="54.0" y="28.8"/>
  </clipPath>
 </defs>
</svg>
